<?xml version="1.0" standalone="no"?>
<!DOCTYPE svg PUBLIC "-//W3C//DTD SVG 20010904//EN"
 "http://www.w3.org/TR/2001/REC-SVG-20010904/DTD/svg10.dtd">
<svg version="1.0" xmlns="http://www.w3.org/2000/svg"
 width="120.000000pt" height="120.000000pt" viewBox="0 0 120.000000 120.000000"
 preserveAspectRatio="xMidYMid meet">

<g transform="translate(0.000000,120.000000) scale(0.100000,-0.100000)"
fill="#000" stroke="none">
<path d="M383 1077 l-211 -122 -4 -280 c-2 -154 -2 -285 0 -292 4 -13 414
-253 432 -253 17 0 413 230 428 248 13 17 17 387 6 512 l-7 66 -212 122 c-116
67 -214 122 -216 122 -2 0 -99 -55 -216 -123z m161 -231 l1 -60 55 3 c48 2 59
-2 91 -28 21 -17 43 -50 54 -77 17 -44 17 -50 1 -99 -19 -62 -49 -92 -107
-109 -53 -16 -119 -1 -153 35 -20 22 -21 35 -24 212 l-3 188 42 -3 42 -3 1
-59z"/>
<path d="M550 695 c-13 -15 -9 -112 5 -135 3 -5 21 -10 40 -10 63 0 99 91 55
138 -24 26 -81 30 -100 7z"/>
<path d="M100 328 c0 -15 10 -38 23 -52 12 -14 116 -80 232 -147 160 -93 218
-122 245 -122 27 0 86 29 245 121 116 67 220 133 233 147 12 15 22 38 22 52 0
27 0 27 -19 7 -29 -31 -455 -274 -481 -274 -26 0 -467 252 -486 278 -12 15
-13 14 -14 -10z"/>
</g>
</svg>
