<svg xmlns="http://www.w3.org/2000/svg" viewBox="0 0 1500 500" xmlns:v="https://vecta.io/nano"><path d="M166.2 301.8c0 1.3-1 2-1.7 2.7-9 9.5-19.4 17.1-31.2 22.8-2.6 1.3-4.6.9-6.9-1-8.5-7.2-15.7-15.5-21.1-25.3-.4-.7-.5-2.6-1.9-1.6-1.2.8-3.1 1.7-2.5 3.8.5 1.7 1.1 3.3 1.7 5 12.8 35.2 32.9 65.5 61 90.4 5.7 5.1 32 27.9 73.9 44 24.8 9.5 44.7 12.7 50.8 13.6 22.2 3.2 39.6 2.4 45.8 2 20.7-1.3 38.3-5.6 51.8-10-14.2 8.7-33.5 18.6-57.7 25.9-30.1 9-54.1 9.8-59.7 10-7.4.2-32.2.4-63.3-7.9-9.3-2.5-31.4-9-56.5-23.5-21-12.1-39.7-27.1-56.2-44.9-14.1-15.3-25.7-32.2-35.6-50.5-.3-.5-.7-1-1.1-1.5.7-2.3 1.3-4.7 2-7 .3-1 0-1.6-.6-2.3-5-5.1-7.8-11.5-9.7-18.3a20.74 20.74 0 0 0-.8-2.1l-2 3.9c-3.9-9.5-6.8-19.3-9.3-29.3-8.1-32.2-9.1-64.5-3-97.2 4.3-23 12-44.9 22.5-65.7 8.1-16.1 17.9-31.3 29-45.5 6.4-8.1 13.1-16 20.5-23.3 16.3-16.1 35-29.1 55.9-38.5 14.4-6.4 29.7-10.8 45.2-14.1a24.27 24.27 0 0 1 2.5-.3l-9.2 5.7c-17.4 10.8-33.5 23.3-47.9 37.9-29.3 29.6-50 64.1-58.2 105.3-4.8 24.3-5.9 48.9-4.3 73.6.1 1.9 0 4 .7 6.1 4.8-3.7 10.2-6.1 15.8-8 15.2-5.1 29.9-2.8 44.3 3 4.4 1.8 8.7 3.8 12.8 6.4-1.9-.1-3.8-.2-5.7-.4-11.2-.9-22.4-.1-33.5 1.1-9 .9-18 2-26.8 4.2-.6.2-1.2.2-1.6.8-4.1 5.2-8.4 10.3-12.4 15.7-6.5 8.9-12.8 17.9-18.6 27.4-2.8 4.5-5.9 8.8-7.8 13.8-6.3.6-8.6 4.9-7.6 14.5.9-.6.8-1.5.9-2.3.2-1.3.4-2.7 1-3.9 1.5-3.2 5-4.4 8-2.5 5.1 3.2 9.7 6.9 12.6 12.3.5.9 1.2 1.6 1.8 2.5.4.6.9.7 1.4.5 2.2-.8 4.2-1.8 5.1-4.2.8-2.2.2-4-1.4-5.6-1.9-2-4.3-3.5-6.4-5.3 5.8-11.4 12.4-22.4 20-32.7 2.8-3.8 5.7-7.4 8.9-10.9 1.4-1.6 3.1-1.4 3.6.3 2.2 7.9 5.5 15.4 9.6 22.5 4.3 7.6 9.7 14.2 17.3 18.9 2.3 1.4 4.5 2 7.2 1.2 9.9-3 20-5.8 28.6-12.2zM60.8 346.4c-.1-.1-.2-.2-.3-.2v.3c.1-.1.2-.1.3-.1-.6.7.2 1.1.5 1.5 2 2.9 4.7 4.8 8.3 5.5 4.8.9 9.2 2.4 12.4 6.4.5.7 1.3 1.1 2.1 1.5 2.7 1.4 5.3.7 7.2-2.1 2.4-3.5 2.5-7.2.2-9.1-.2-.2-.4-.3-.6-.4-1.3-.8-2.1-.8-2.6.9-1.1 3.3-2.4 3.8-5.5 2.1-2.8-1.6-5.8-2.9-9-2.5-5 .6-9.2-.8-13-3.8zm-.1-26.9c-2.1-3-4.6-4.4-6.5-3.6-2.7 1.1-2.8 3.6-2.9 6-.1 3.5.9 6.7 2.8 9.7 2.2 3.5 4.4 7 6.1 10.8.8 1.8 2 3.5 3.9 4.3 5.5 2.3 11.2 2.4 17 1.4 1.4-.2 1.6-1 1-2.2-1.4-2.8-4.3-3.9-7.4-2.9-3.9 1.3-7.4.1-8.9-3.3-1.7-3.8-3.3-7.8-1.7-12.2.4-1.1 0-2-1-2.7s-2.1-.8-3.1-.1c-.6.5-1.2 1.1-1.7 1.6-.4.4-.7 1-1.3.8-.5-.2-.7-.9-.8-1.4-.8-2.9 1.3-5.8 4.5-6.2z" fill="#fff"/><path d="M55.5 308.5c2-5 5.1-9.3 7.8-13.8 5.7-9.4 12.1-18.5 18.6-27.4 3.9-5.4 8.3-10.4 12.4-15.7.5-.6 1-.6 1.6-.8 8.8-2.2 17.8-3.2 26.8-4.2 11.1-1.2 22.3-2 33.5-1.1 1.9.1 3.8.2 5.7.4 4.2.5 8.5 1.1 12.6 2 1.9.4 3.6.3 5.3-.6 2.2-1.3 4.7-2.2 7.2-3l15-4.7c9.9-2.7 19.8-5.3 30.1-5.3 2.3 0 4.6.2 6.9.2 1.3 0 2 .6 2.3 1.9.4 1.9.9 3.9 1.4 5.8.3 1.1.1 2-.6 2.9-2.1 2.6-2.2 5.6-1.6 8.8 1.4 7.5 2.4 15.1.8 22.7-.4 2-1.1 4-1.9 5.9-2.3 5.5-7.1 6.9-12.4 7.5 0-1.1-.7-1.7-1.7-2.1-2-1.7-4.3-2.9-6.6-4.2-8.9-4.7-17.3-10.3-25.7-15.8-1.9-1.3-3.7-2.6-5.2-4.4-2.5-3-3.6-3.2-7.1-.9-2.2 2.8-1.9 6.1-1.7 9.3.3 7.2.3 14.3-3.7 20.7-3.2 1.3-5.2 3.6-6.7 6.6-.5 1-1.2 1.8-2.1 2.5-8.6 6.4-18.7 9.2-28.8 12.1-2.7.8-4.9.2-7.2-1.2-7.6-4.6-13-11.3-17.3-18.9-4-7.1-7.4-14.6-9.6-22.5-.5-1.7-2.2-1.9-3.6-.3-3.1 3.5-6.1 7.1-8.9 10.9-7.7 10.3-14.2 21.3-20 32.7-5.2-2.6-10-5.4-15.6-6zm47.1-46.2c-.4-.7-1-1.3-1.4-2-1.2-1.9-1.5-4.1-2.7-5.9-.3-.4-.5-.9-1.1-.6-.4.2-.5.6-.4 1 .1.6.3 1.2.6 1.8a168.39 168.39 0 0 0 2.9 6.1c.4 1.5-1.1 2.2-1.8 4.3 3.2-2.3 5.6-2.1 7.6.3.3.4.7 1.1 1.3.6.5-.4.1-1.1-.1-1.5-1.1-2-3-3.1-4.9-4.1zm110.1-19.5c-.5 0-1.1-.1-1.6 0-6.3 1.4-12.4 3-18.3 5.7-2.1.9-3.4 2.6-4.2 4.7-.2.6-.7 1.5.1 1.9.9.5 1.3-.5 1.5-1.1 1.4-3.2 4.1-4.5 7.3-5.4 5.2-1.3 10.3-3.1 15.6-3.9 4.2-.1 7.7 1.6 10.7 4.4 3.5 3.3 6.1 7.3 8 11.7 2.2 4.9 2.6 10.1 1.7 15.4-.3 1.6-1.2 3.1-.7 4.8 1.5-2.5 2.4-5.1 2.8-7.9 1.3-9.2-.2-18.2-2.8-27.1-.4-1.2-1.1-2.1-2.3-2.6-5.8-1.9-11.8-2.1-17.8-.6zM144.6 253c-.4-.1-.8-.2-1.2-.2-9.1.5-18.2.4-27.2 2.3-5.3 1.1-6.6 2.5-5.5 7 2.3 9.4 5.2 18.5 10.3 26.8 3.9 6.4 8.4 12.1 15 15.9 1.4.8 2.8 1.5 4.5 1.1 6.8-1.4 13.5-3.4 19.9-5.9.9-.3 1.9-.7 2.2-1.9-1.1-.6-2.1-.2-2.9.2-4.9 2.5-10.2 3.4-15.4 4.8-1.6.4-3.4 1.4-4.8 1-4.2-1.2-8.1-3.5-10.7-6.8-8.2-10.6-13.7-22.6-16.2-35.9-.5-2.8.5-4.4 3.3-4.8 5-.8 10.1-1.2 15.2-1.4 4.5-.2 9-.6 13.5-.9 1.9 0 3.3 1 4.8 1.9 9.9 6.4 16.4 15.3 19.9 26.4.4 1.4.6 2.9 1.6 4.3.8-1.4.7-2.8.8-4.1.7-8.3.8-16.5-1.3-24.6-.5-1.9-1.3-3.1-3.4-3.3-2.8-.3-5.5-.9-8.3-1.3-4.8-.4-9.4-.4-14.1-.6zm-10.2 59c-.8-2.3-2.2-2.9-4.3-3.1.8 1.9 2.2 2.5 4.3 3.1z" fill="#5b3acf"/><path d="M230.7 317.8c4 3.7 2.7 8 1.1 12.5-2.9-3-6.3-2.8-10.1-2-9.9 2.2-19.1 6.4-28.3 10.4-12.9 5.5-26.6 8-40.4 9.6-.8.1-1.8-.1-2.7.7 3.2 3.7 7.4 5.9 11.9 7.4 7.9 2.8 16.1 3.5 24.4 3.4 3.4 0 6.6-1.3 9.6-2.7 11.4-5.6 23.5-8.7 35.8-11.5 3.4-.8 3.5-.9 3.2-4.3-.1-1.3.3-1.6 1.4-1.3 4.8 1.2 8.9 3.7 12.3 7.3 1.4 1.5 1 2.5-1.2 3.2-4.3 1.3-8.5 2.6-12.9 3.5-10.3 2.2-20 6.2-29.5 10.6-2 .9-4.2 1.6-6.2 2.3-6.4 2.3-12.9 2.4-19.5.5-11.8-3.4-22.7-8.6-32.8-15.4-1.9-1.3-4-2.6-4.8-5.1-.3-1.1-.2-1.6 1-1.7 7.1-.9 14.1-2.3 21-4 12.2-3 24.2-6.7 34.6-14.2 2.9-2 5.9-3 9.4-2.8 5.2.3 10.3-.8 15.1-2.7 2.1-.8 4.2-1.4 6.3-2.1.9-.3 2-.3 1.3-1.6 0-.1 0 0 0 0zm-5.5-29.7c1 .4 1.7 1 1.7 2.1-.3 4.4-2.8 7.3-5.9 10.1-2.9 2.7-2.8 4.7 0 7.4 2.1 2.1 4.5 4.1 6.9 5.8.9.7 1.4 1.4 1 2.8-2.4-1.9-4.9-3.6-7-5.6-6-5.8-13.4-6.3-21-5.4-5 .6-9.9 1.2-14.9-.1s-6.2-3-5.8-8.2c.5-5.3.3-5.5-5.1-4.5 4-6.4 4-13.5 3.7-20.7-.1-3.2-.5-6.5 1.7-9.3 5.5 6.3 10.9 12.8 16.7 18.9 2.3 2.4 2.2 3.3-.8 4.9-2.5 1.4-5.4 1.9-8.1 2.7-5.7 1.8-7.7 5.9-5.9 11.5.6 1.7 1.9 2.5 3.5 2.8s2.9.2 3.8-1.5c1.2-2.1 3.4-3.3 5.6-4.3 4.3-1.9 8.8-3.4 13.5-4.6 3.8-.9 7.2-.6 10.3 2 1.3 1.1 2.3.7 3.3-.4 1.9-1.5 2.9-3.7 2.8-6.4z" fill="#fff"/><path d="M44.7 329.8l2-3.9.8 2.1c1.9 6.8 4.6 13.1 9.7 18.3.7.7 1 1.3.6 2.3-.8 2.3-1.4 4.7-2 7l-2.5 9.4c-.3 1.1-.3 2.2-1.8 2.5-1.6.2-3.3.7-4.4-.8-3.5-4.3-6.5-9-9.1-13.9-.5-.9-.3-1.8 0-2.8 1.5-6.1 3.7-11.9 6.1-17.8.1-.7.3-1.6.6-2.4z" fill="#5b3acf"/><g fill="#fff"><path d="M157.9 327.9c0 1.5-.9 2.4-1.9 3.3-6 5.6-12.4 10.4-20.1 13.4-5.4 2.1-5.9 3.9-3.1 9l1.5 2.4c4.2 6.2 8.9 12 14 17.4 5.4 5.6 11.9 10 18.3 14.4.8.5 1.7.8 2 1.9-.5.6-.9 0-1.2-.2-12.7-7.7-24-16.9-33.1-28.8-2.6-3.4-5-6.8-6.2-10.9-1.4-4.6-.2-7 4.4-8.2 9.1-2.5 17.3-6.7 24.2-13.3.3-.1.6-.5 1.2-.4zm44-88.1l-15 4.7c-2.5.8-4.9 1.7-7.2 3 1.7-8.3 7.2-13.1 14.7-16 2.1-.8 4.3-1.1 6.4-1.7 1.4-.4 1.9 0 2 1.4.1 2 .1 4-.5 5.9-.2.8-.6 1.7-.4 2.7zm16.4 74.1c.2 0 .3.1.5.1 1.7.6 3.6 1.4 3.5 3.4-.1 1.8-2.1 2.2-3.6 2.7-4.1 1.3-8.4 1.9-12.7 1.8-2.4-.1-4.1-1.2-5-3.4-1.1-2.8-1.6-5.6-1-8.7.5 1.7 1 3.5 1.6 5.2 1 3 3.1 4.4 6.3 4.4 3.1 0 6.2-.4 9.2-1.3 3.3-.9 3.5-1.7 1.2-4.2h0z"/><path d="M218.3 313.9h-.1.1zm11.9 3.3h-.1l.1.1z"/><path d="M230.2 317.3l.5.5c-.2-.2-.3-.4-.5-.5 0-.1 0 0 0 0zM144.6 253c-.1.5-.3.9 0 1.4l-13.5.9c-5.1.2-10.1.6-15.2 1.4-2.8.5-3.8 2-3.3 4.8 2.5 13.3 8 25.3 16.2 35.9 2.6 3.3 6.5 5.6 10.7 6.8 1.4.4 3.2-.5 4.8-1 5.2-1.4 10.5-2.3 15.4-4.8.8-.4 1.7-.8 2.9-.2-.3 1.1-1.3 1.5-2.2 1.9-6.5 2.5-13.1 4.5-19.9 5.9-1.7.4-3.1-.3-4.5-1.1-6.6-3.8-11.2-9.5-15-15.9-5-8.3-7.9-17.5-10.3-26.8-1.1-4.4.3-5.9 5.5-7 9-1.9 18.1-1.8 27.2-2.3.4-.1.8.1 1.2.1zm68.1-10.2c.2.6.3 1.3.5 1.9-5.3.8-10.4 2.6-15.6 3.9-3.2.8-5.9 2.2-7.3 5.4-.3.6-.6 1.6-1.5 1.1-.8-.4-.3-1.3-.1-1.9.8-2.1 2.1-3.7 4.2-4.7 5.9-2.7 12.1-4.3 18.3-5.7.4-.1 1 0 1.5 0zm-110.1 19.5c2 1 3.8 2.1 4.9 4 .2.4.6 1.1.1 1.5-.6.5-1-.2-1.3-.6-2.1-2.4-4.4-2.6-7.6-.3.7-2 2.2-2.8 1.8-4.3.8.4 1.5.7 2.1-.3zm351.284-86.952v146.75h57.5v27.75h-92.5v-174.5h35zm175.25 36h35.25v138.5h-35.25v-17.5c-4.5 6-10.373 10.707-17.62 14.12-7.253 3.42-15.13 5.13-23.63 5.13-10.833 0-20.417-2.293-28.75-6.88-8.333-4.58-14.873-11.33-19.62-20.25-4.753-8.913-7.13-19.537-7.13-31.87v-81.25h35v76.25c0 11 2.75 19.457 8.25 25.37 5.5 5.92 13 8.88 22.5 8.88 9.667 0 17.25-2.96 22.75-8.88 5.5-5.913 8.25-14.37 8.25-25.37v-76.25zm146.5-2c16.5 0 29.833 5.207 40 15.62 10.167 10.42 15.25 24.963 15.25 43.63v81.25h-35v-76.5c0-11-2.75-19.46-8.25-25.38-5.5-5.913-13-8.87-22.5-8.87-9.667 0-17.29 2.957-22.87 8.87-5.587 5.92-8.38 14.38-8.38 25.38v76.5h-35v-138.5h35v17.25c4.667-6 10.627-10.71 17.88-14.13 7.247-3.413 15.203-5.12 23.87-5.12zm79.5 70.75c0-14 2.793-26.417 8.38-37.25 5.58-10.833 13.163-19.167 22.75-25 9.58-5.833 20.287-8.75 32.12-8.75 10.333 0 19.377 2.083 27.13 6.25 7.747 4.167 13.953 9.417 18.62 15.75v-19.75h35.25v138.5h-35.25v-20.25c-4.5 6.5-10.707 11.873-18.62 16.12-7.92 4.253-17.047 6.38-27.38 6.38-11.667 0-22.29-3-31.87-9-9.587-6-17.17-14.46-22.75-25.38-5.587-10.913-8.38-23.453-8.38-37.62zm109 .5c0-8.5-1.667-15.793-5-21.88-3.333-6.08-7.833-10.747-13.5-14-5.667-3.247-11.75-4.87-18.25-4.87s-12.5 1.583-18 4.75-9.957 7.79-13.37 13.87c-3.42 6.087-5.13 13.297-5.13 21.63s1.71 15.623 5.13 21.87c3.413 6.253 7.913 11.047 13.5 14.38 5.58 3.333 11.537 5 17.87 5 6.5 0 12.583-1.627 18.25-4.88 5.667-3.247 10.167-7.913 13.5-14 3.333-6.08 5-13.37 5-21.87z"/></g><path d="M1143.24 262.142c10.167 2.167 18.333 7.207 24.5 15.12 6.167 7.92 9.25 16.963 9.25 27.13 0 14.667-5.123 26.29-15.37 34.87-10.253 8.587-24.547 12.88-42.88 12.88h-81.75v-175.5h79c17.833 0 31.793 4.083 41.88 12.25 10.08 8.167 15.12 19.25 15.12 33.25 0 10.333-2.707 18.917-8.12 25.75-5.42 6.833-12.63 11.583-21.63 14.25zm-63.5-51.25v36.75h28c7 0 12.377-1.543 16.13-4.63 3.747-3.08 5.62-7.62 5.62-13.62s-1.873-10.583-5.62-13.75c-3.753-3.167-9.13-4.75-16.13-4.75h-28zm31.5 106.75c7.167 0 12.71-1.627 16.63-4.88 3.913-3.247 5.87-7.953 5.87-14.12s-2.04-11-6.12-14.5c-4.087-3.5-9.713-5.25-16.88-5.25h-31v38.75h31.5zm222-37.5c0 4-.25 8.167-.75 12.5h-96.75c.667 8.667 3.46 15.29 8.38 19.87 4.913 4.587 10.953 6.88 18.12 6.88 10.667 0 18.083-4.5 22.25-13.5h45.5c-2.333 9.167-6.54 17.417-12.62 24.75-6.087 7.333-13.713 13.083-22.88 17.25s-19.417 6.25-30.75 6.25c-13.667 0-25.833-2.917-36.5-8.75s-19-14.167-25-25-9-23.5-9-38 2.96-27.167 8.88-38c5.913-10.833 14.203-19.167 24.87-25s22.917-8.75 36.75-8.75c13.5 0 25.5 2.833 36 8.5s18.71 13.75 24.63 24.25c5.913 10.5 8.87 22.75 8.87 36.75zm-97.25-11.25h53.5c0-7.333-2.5-13.167-7.5-17.5s-11.25-6.5-18.75-6.5c-7.167 0-13.207 2.083-18.12 6.25-4.92 4.167-7.963 10.083-9.13 17.75zm182.25 47h15.25v36.25h-21.75c-15.5 0-27.583-3.793-36.25-11.38-8.667-7.58-13-19.953-13-37.12v-55.5h-17v-35.5h17v-34h42.75v34h28v35.5h-28v56c0 4.167 1 7.167 3 9s5.333 2.75 10 2.75z" fill="#5b3acf"/></svg>