<?xml version="1.0" encoding="utf-8"?>
<svg version="1.1" id="Layer_1" x="0px" y="0px" viewBox="0 0 1126.8 845.1" style="enable-background:new 0 0 1126.8 845.1;" xmlns="http://www.w3.org/2000/svg">
  <style type="text/css">
	.st0{clip-path:url(#SVGID_2_);}
	.st1{fill:#1B2852;}
	.st2{opacity:0.1;fill:#55A4FF;enable-background:new    ;}
	.st3{fill:url(#SVGID_3_);}
	.st4{fill:#FFDD1D;}
	.st5{fill:url(#SVGID_4_);}
	.st6{fill:url(#SVGID_5_);}
	.st7{fill:url(#SVGID_6_);}
	.st8{fill:#FF5F1E;}
	.st9{fill:url(#SVGID_7_);}
	.st10{fill:url(#SVGID_8_);}
	.st11{fill:#4169C9;}
	.st12{fill:#FA902C;}
	.st13{fill:#FAC02C;}
	.st14{fill:#FAE22C;}
	.st15{fill:#FAF02C;}
</style>
  <g>
    <defs>
      <rect id="SVGID_1_" x="0.01" y="0" width="1126.8" height="845.1"/>
    </defs>
    <clipPath id="SVGID_2_">
      <rect x="0.01" y="0" width="1126.8" height="845.1" transform="matrix(1, 0, 0, 1, 0, 0)" style="overflow: visible;"/>
    </clipPath>
    <g class="st0">
      <rect x="0.01" y="0" class="st1" width="1126.8" height="845.1" style="fill: rgb(28, 28, 28);"/>
      <path class="st2" d="M0,465.54c152.83,0,225.87,201,401.42,191c183.4-10.44,303.44-225.74,725.38-92.25V845.1H0V465.54z" style="fill: rgb(136, 136, 136);"/>
      <linearGradient id="SVGID_3_" gradientUnits="userSpaceOnUse" x1="-275.638" y1="2526.9727" x2="109.7772" y2="2526.9727" gradientTransform="matrix(0.9588 0.2842 0.2842 -0.9588 -130.0686 3016.5496)">
        <stop offset="0" style="stop-color:#FB571D"/>
        <stop offset="0" style="stop-color:#FB5A1D"/>
        <stop offset="0.06" style="stop-color:#FB7D22"/>
        <stop offset="0.13" style="stop-color:#FA9A26"/>
        <stop offset="0.2" style="stop-color:#FAB028"/>
        <stop offset="0.27" style="stop-color:#FAC02A"/>
        <stop offset="0.35" style="stop-color:#FAC92C"/>
        <stop offset="0.47" style="stop-color:#FACC2C"/>
        <stop offset="0.71" style="stop-color:#FACA2C"/>
        <stop offset="0.79" style="stop-color:#FAC32B"/>
        <stop offset="0.85" style="stop-color:#FAB829"/>
        <stop offset="0.9" style="stop-color:#FAA727"/>
        <stop offset="0.95" style="stop-color:#FB9124"/>
        <stop offset="0.98" style="stop-color:#FB7621"/>
        <stop offset="1" style="stop-color:#FB681F"/>
      </linearGradient>
      <path class="st3" d="M672.63,628L672.63,628c0.16-0.26,32.44-52.85,40-68.24l-73.27-3.69c-27.51-21.63-67.59-41.61-112.11-54.8 c-44.11-13.07-87.86-18.09-122-14.95l-62.15-36.07c-1.84,15.11-3,65.59-3.24,76.81c0,0.7-0.05,1.4,0,2.1v0.13l0,0 c0.62,36.05,60.34,83.26,150,109.84S653.93,658.29,672.63,628z"/>
      <path class="st4" d="M675.58,588.39c-37.44,12-98.36,9.78-167.41-10.68c-73.78-21.87-129.17-56.41-152.8-89 c-13.16-18.21-16.46-35.82-7.56-50.31c1.6-2.56,3.49-4.93,5.63-7.06c5.67-5.67,13.45-10.29,22.92-13.87 c13.16-5,29.6-7.9,48.23-8.82c30.62-1.54,67.16,2.39,104.78,11.71c5.25,1.3,10.51,2.69,15.79,4.21c1.44,0.41,2.89,0.83,4.33,1.26 c2.7,0.79,5.37,1.61,8,2.46c1.34,0.42,2.66,0.85,4,1.29s2.64,0.87,4,1.32s2.63,0.88,3.94,1.34c36,12.48,68.47,28.81,93.54,46.52 c27.21,19.19,45.68,40,50.47,59.32c0.75,2.94,1.16,5.96,1.23,9C715,566.28,700.48,580.46,675.58,588.39z"/>
      <linearGradient id="SVGID_4_" gradientUnits="userSpaceOnUse" x1="-259.8276" y1="2606.335" x2="93.9329" y2="2606.335" gradientTransform="matrix(0.9588 0.2842 0.2842 -0.9588 -130.0686 3016.5496)">
        <stop offset="0" style="stop-color:#FB571D"/>
        <stop offset="1" style="stop-color:#FACC2C"/>
      </linearGradient>
      <path class="st5" d="M700.42,545.2c-1.54,4.97-4.29,9.48-8,13.12l-0.07,0.08l-0.05,0.06c-24.7,24.68-95.54,28.84-179.72,3.9 c-90.23-26.74-150.66-73.57-152.13-109.26l0,0c-0.05-1.27-0.03-2.54,0.07-3.8l0,0c0.38-4.68,1.89-9.2,4.39-13.18 c3.87-6.22,10.11-11.35,18.28-15.39c11.63-5.74,27.15-9.28,45.27-10.62c29.08-2.13,64.79,1.39,101.74,10.49 c6.44,1.57,12.9,3.31,19.37,5.24c42.47,12.59,81,31.14,108.67,51.35c26.45,19.32,42.94,40.16,43.39,58.72 C701.71,539.05,701.3,542.18,700.42,545.2z"/>
      <linearGradient id="SVGID_5_" gradientUnits="userSpaceOnUse" x1="-75.1812" y1="2584.9055" x2="-91.0013" y2="2913.3855" gradientTransform="matrix(0.9588 0.2842 0.2842 -0.9588 -130.0686 3016.5396)">
        <stop offset="0" style="stop-color:#FF591D"/>
        <stop offset="1" style="stop-color:#FACC2C"/>
      </linearGradient>
      <polygon class="st6" points="663.74,451.53 610.59,205.3 430.14,385.16 364.9,219.09 379.37,479.98 421.4,446.58 538.32,554.72 &#10;&#9;&#9;&#9;639.63,540.59 809.38,367.57 &#9;&#9;"/>
      <linearGradient id="SVGID_6_" gradientUnits="userSpaceOnUse" x1="-300.3671" y1="2682.2295" x2="134.8629" y2="2668.4294" gradientTransform="matrix(0.9588 0.2842 0.2842 -0.9588 -130.0686 3016.5496)">
        <stop offset="0" style="stop-color:#FB571D"/>
        <stop offset="0" style="stop-color:#FB5A1D"/>
        <stop offset="0.06" style="stop-color:#FB7D22"/>
        <stop offset="0.13" style="stop-color:#FA9A26"/>
        <stop offset="0.2" style="stop-color:#FAB028"/>
        <stop offset="0.27" style="stop-color:#FAC02A"/>
        <stop offset="0.35" style="stop-color:#FAC92C"/>
        <stop offset="0.47" style="stop-color:#FACC2C"/>
        <stop offset="0.71" style="stop-color:#FACA2C"/>
        <stop offset="0.79" style="stop-color:#FAC32B"/>
        <stop offset="0.85" style="stop-color:#FAB829"/>
        <stop offset="0.9" style="stop-color:#FAA727"/>
        <stop offset="0.95" style="stop-color:#FB9124"/>
        <stop offset="0.98" style="stop-color:#FB7621"/>
        <stop offset="1" style="stop-color:#FB681F"/>
      </linearGradient>
      <path class="st7" d="M809.36,367.59c-1.16,1.23-70.73,115.06-102,166.26l-6.92,11.35c-4.88,8-7.84,12.82-8,13.12l0,0l-0.06,0.07 l-0.05,0.06c-24.7,24.68-95.54,28.84-179.72,3.9c-90.23-26.74-150.66-73.57-152.13-109.26l0,0l0.07-3.8l0,0l0.35-18.15l4-212 l18,198.66l0.27,2.93l2.53,27.86l42.74-38.48l0.89-0.8l76.3-68.7l24.55,80l0,0l37.55,122.3c0,0,41.71-30.3,90.49-65.71 c0.17-0.13,0.35-0.27,0.54-0.4C726.75,427.39,808.15,368.33,809.36,367.59z"/>
      <polygon class="st4" points="364.89,219.09 379.03,223.81 400.82,434.94 385.71,448.55 &#9;&#9;" style=""/>
      <polygon class="st4" points="505.64,340.57 517.28,325.46 580.14,524.76 567.74,542.86 &#9;&#9;"/>
      <polygon class="st4" points="610.59,205.3 597.42,221.85 652.84,466.86 663.74,451.53 &#9;&#9;"/>
      <polygon class="st8" points="809.36,367.58 794.86,363.28 580.14,524.76 567.74,542.86 &#9;&#9;"/>
      <polygon class="st4" points="430.14,385.16 420.93,398.13 364.89,219.09 379.03,223.81 &#9;&#9;"/>
      <polygon class="st8" points="652.84,466.86 809.38,367.57 794.86,363.28 663.74,451.53 &#9;&#9;"/>
      <polygon class="st8" points="420.93,398.13 597.42,221.85 610.59,205.3 430.14,385.16 &#9;&#9;"/>
      <linearGradient id="SVGID_7_" gradientUnits="userSpaceOnUse" x1="-119.7226" y1="2604.9231" x2="-205.1626" y2="2581.813" gradientTransform="matrix(0.9588 0.2842 0.2842 -0.9588 -130.0686 3016.5496)">
        <stop offset="0" style="stop-color:#FACC2C"/>
        <stop offset="0.65" style="stop-color:#FB8222"/>
        <stop offset="1" style="stop-color:#FB571D"/>
      </linearGradient>
      <path class="st9" d="M495.28,500.19c-5.82,19.62-25.35,27.76-43.23,18.39c-17.43-9.13-26.74-31.57-21.18-50.33 s24.08-27.39,41.76-19.11C490.77,457.63,501.09,480.57,495.28,500.19z"/>
      <linearGradient id="SVGID_8_" gradientUnits="userSpaceOnUse" x1="-175.1183" y1="2569.2769" x2="-144.1083" y2="2607.3667" gradientTransform="matrix(0.9588 0.2842 0.2842 -0.9588 -130.0686 3016.5496)">
        <stop offset="0" style="stop-color:#B30030"/>
        <stop offset="1" style="stop-color:#FF221C"/>
      </linearGradient>
      <path class="st10" d="M476.59,495.24c-3.36,11.35-14.64,16.16-25,10.83S435.72,487.65,439,476.6s14.21-16,24.56-11.08 S480,483.89,476.59,495.24z"/>
      <path class="st11" d="M314.55,666.3c-2.17-1.71-5.31-1.33-7.02,0.84c-1.71,2.17-1.33,5.31,0.84,7.02 c2.17,1.71,5.31,1.33,7.02-0.84c0.01-0.01,0.01-0.01,0.02-0.02C317.1,671.13,316.71,668,314.55,666.3z M285.26,647.09 c-1.92,1.98-1.88,5.15,0.1,7.07c1.98,1.92,5.15,1.88,7.07-0.1c1.92-1.98,1.88-5.15-0.1-7.07c0,0,0,0,0,0 C290.35,645.07,287.18,645.11,285.26,647.09L285.26,647.09z M256.41,243.44c-2.76-0.05-5.04,2.14-5.1,4.9s2.14,5.04,4.9,5.1h0.09 c2.76,0.03,5.02-2.19,5.05-4.95C261.39,245.73,259.17,243.47,256.41,243.44z M265.63,624.44c-2.15,1.71-2.52,4.84-0.83,7l0,0 c1.7,2.17,4.85,2.56,7.02,0.85s2.56-4.85,0.85-7.02c-1.7-2.17-4.85-2.56-7.02-0.85C265.65,624.43,265.64,624.43,265.63,624.44z M364.11,698.5c-2.42-1.32-5.46-0.43-6.78,2c-1.32,2.42-0.43,5.46,2,6.78c2.42,1.32,5.46,0.43,6.78-2c0,0,0,0,0,0 C367.43,702.86,366.53,699.82,364.11,698.5z M255.92,213.44c-2.76,0.12-4.9,2.46-4.77,5.22c0.12,2.76,2.46,4.9,5.22,4.78h0.46 c2.76-0.25,4.8-2.69,4.54-5.46C261.12,215.22,258.68,213.19,255.92,213.44L255.92,213.44z M562.09,757.25 c-2.76-0.22-5.18,1.84-5.39,4.61c-0.22,2.76,1.84,5.18,4.6,5.39h0.4c2.76,0.11,5.09-2.04,5.2-4.8S564.85,757.36,562.09,757.25 L562.09,757.25z M390.64,711.78c-2.47-1.23-5.47-0.21-6.7,2.26c-1.23,2.47-0.21,5.47,2.26,6.7c0.09,0.04,0.17,0.08,0.26,0.12 c0.65,0.3,1.36,0.46,2.08,0.46c2.76,0,5-2.23,5.01-4.99C393.55,714.37,392.41,712.6,390.64,711.78L390.64,711.78z M532.64,753.91 c-2.72-0.48-5.31,1.34-5.79,4.05s1.34,5.31,4.05,5.79c0.1,0.02,0.19,0.03,0.29,0.04c0.24,0.04,0.49,0.06,0.73,0.06 c2.76,0.2,5.16-1.88,5.36-4.64s-1.88-5.16-4.64-5.36L532.64,753.91z M256,273.4c-2.74-0.34-5.24,1.61-5.57,4.36 c-0.34,2.74,1.61,5.24,4.35,5.57c0.21,0,0.41,0,0.62,0c2.76,0.17,5.13-1.94,5.3-4.7c0.17-2.76-1.94-5.13-4.7-5.3V273.4z M503.39,748.71c-2.68-0.66-5.39,0.98-6.05,3.66c-0.66,2.68,0.98,5.39,3.66,6.05c0.13,0.03,0.26,0.06,0.39,0.08l0,0 c0.33,0.07,0.66,0.1,1,0.1c2.76-0.02,4.98-2.28,4.96-5.04C507.33,751.21,505.68,749.2,503.39,748.71L503.39,748.71z M418,723.36 c-2.57-1-5.47,0.27-6.48,2.85c-1,2.57,0.27,5.47,2.85,6.47l0,0c0.58,0.22,1.2,0.34,1.82,0.34c2.76,0,5-2.24,5-5 C421.19,725.96,419.92,724.11,418,723.36L418,723.36z M474.5,741.82L474.5,741.82c-2.67-0.72-5.41,0.87-6.12,3.53 c-0.72,2.67,0.87,5.41,3.53,6.13c0.42,0.11,0.86,0.17,1.3,0.17c2.76-0.01,4.99-2.25,4.99-5.01c-0.01-2.26-1.53-4.23-3.71-4.82 L474.5,741.82z M446,733.35c-2.63-0.86-5.45,0.58-6.3,3.2s0.58,5.45,3.2,6.3c2.62,0.86,5.44-0.57,6.3-3.2 C450.06,737.04,448.63,734.21,446,733.35C446,733.35,446,733.35,446,733.35z M338.66,683.35c-2.32-1.5-5.41-0.83-6.91,1.48 c-1.5,2.32-0.83,5.41,1.48,6.91c2.32,1.5,5.41,0.84,6.91-1.48c1.47-2.31,0.8-5.38-1.5-6.87L338.66,683.35z M245.96,159.07 c0.23,2.58,2.41,4.56,5,4.55h0.46c2.75-0.25,4.78-2.68,4.53-5.43c-0.25-2.75-2.68-4.78-5.43-4.53c-2.75,0.25-4.78,2.68-4.53,5.43 L245.96,159.07z M236.49,432.16c0.21,0,0.41,0,0.62,0c2.76-0.17,4.85-2.54,4.68-5.3c-0.17-2.76-2.54-4.85-5.3-4.68 c-2.76,0.17-4.85,2.54-4.68,5.3C231.97,430,233.97,432,236.49,432.16z M243.8,372.61c0.2,0,0.41,0,0.61,0 c2.76-0.17,4.85-2.54,4.69-5.3c-0.17-2.76-2.54-4.85-5.3-4.69c-2.76,0.17-4.85,2.54-4.69,5.3 C239.27,370.45,241.28,372.46,243.8,372.61z M243.23,129.2c0.24,2.58,2.41,4.55,5,4.54c0.15,0.01,0.31,0.01,0.46,0 c2.75-0.25,4.78-2.68,4.53-5.43c-0.25-2.75-2.68-4.78-5.43-4.53c-2.75,0.25-4.78,2.68-4.53,5.43c0,0,0,0.01,0,0.01L243.23,129.2z M249.59,599.09c-2.41,1.35-3.27,4.4-1.91,6.81s4.4,3.27,6.81,1.91c2.41-1.35,3.26-4.39,1.92-6.8c-1.36-2.4-4.42-3.24-6.82-1.88 c0,0-0.01,0-0.01,0.01L249.59,599.09z M248.67,189c0.24,2.58,2.41,4.55,5,4.54c0.15,0.01,0.31,0.01,0.46,0 c2.75-0.25,4.78-2.68,4.53-5.43c-0.25-2.75-2.68-4.78-5.43-4.53c-2.75,0.25-4.78,2.68-4.53,5.43c0,0,0,0.01,0,0.01L248.67,189z M256.67,308.75c0.34-2.74-1.61-5.24-4.35-5.58c-2.74-0.34-5.24,1.61-5.58,4.35c-0.34,2.74,1.61,5.24,4.35,5.58c0,0,0,0,0.01,0 c0.2,0.01,0.41,0.01,0.61,0C254.22,313.1,256.33,311.24,256.67,308.75L256.67,308.75z M248.67,332.95 c-2.74-0.34-5.24,1.61-5.57,4.36c-0.34,2.74,1.61,5.24,4.35,5.57c0.21,0,0.41,0,0.62,0c2.76,0.17,5.13-1.94,5.3-4.7 c0.17-2.76-1.94-5.13-4.7-5.3V332.95z M237.91,546.37c-0.35-2.74-2.86-4.67-5.6-4.32s-4.67,2.86-4.32,5.6 c0.32,2.48,2.42,4.34,4.92,4.36c0.21,0.01,0.43,0.01,0.64,0c2.74-0.33,4.7-2.82,4.37-5.56 C237.92,546.42,237.91,546.4,237.91,546.37z M238.15,571.44c-2.61,0.89-4.01,3.74-3.11,6.35c0.89,2.61,3.74,4.01,6.35,3.11 c2.61-0.89,4.01-3.73,3.12-6.34C243.61,571.95,240.77,570.55,238.15,571.44C238.15,571.44,238.15,571.44,238.15,571.44 L238.15,571.44z M241.34,392.51c-2.75-0.25-5.18,1.78-5.43,4.53c-0.24,2.63,1.6,4.98,4.21,5.39c0.21,0.01,0.41,0.01,0.62,0 c2.76,0.17,5.13-1.94,5.3-4.7c0.17-2.76-1.94-5.13-4.7-5.3V392.51z M233.06,492.08h0.16c2.72-0.04,4.89-2.29,4.85-5.01 c-0.04-2.72-2.29-4.89-5.01-4.85s-4.89,2.29-4.85,5.01C228.25,489.89,230.4,492.04,233.06,492.08z M233.91,462.08h0.3 c2.76-0.08,4.93-2.39,4.85-5.15c-0.08-2.76-2.39-4.93-5.15-4.85c-2.76,0.08-4.93,2.39-4.85,5.15 C229.14,459.88,231.27,462,233.91,462.08z M232.09,522.08h0.16c2.9-0.04,5.21-2.43,5.17-5.33s-2.43-5.21-5.33-5.17 s-5.21,2.43-5.17,5.33C226.96,519.75,229.25,522.04,232.09,522.08z M245.45,103.94h0.46c2.76-0.13,4.89-2.47,4.76-5.22 c-0.13-2.76-2.47-4.89-5.22-4.76c-2.76,0.13-4.89,2.47-4.76,5.22C240.8,101.76,242.87,103.82,245.45,103.94z M591.67,758.44 c-2.76,0-5,2.24-5,5s2.24,5,5,5s5-2.24,5-5S594.43,758.44,591.67,758.44z M943.41,378.5c-1.93,1.97-1.9,5.14,0.07,7.07 c0.94,0.92,2.2,1.43,3.52,1.43c2.76-0.01,5-2.25,4.99-5.01c0-1.33-0.54-2.6-1.48-3.54c-1.96-1.95-5.12-1.94-7.07,0.02 C943.43,378.48,943.42,378.49,943.41,378.5z M964.5,357.16c-1.94,1.96-1.93,5.13,0.03,7.07c0.94,0.93,2.21,1.45,3.53,1.45 c2.76,0,5-2.25,4.99-5.01c0-2.76-2.25-5-5.01-4.99C966.71,355.68,965.44,356.22,964.5,357.16z M986.81,312.57 c2.65,0.78,5.43-0.73,6.21-3.38c0.78-2.65-0.73-5.43-3.38-6.21c-2.65-0.78-5.43,0.73-6.21,3.38c0,0,0,0,0,0 C982.65,309.01,984.16,311.79,986.81,312.57z M922.32,399.84c-1.95,1.95-1.95,5.12,0,7.07s5.12,1.95,7.07,0 c1.95-1.95,1.95-5.12,0-7.07c0,0,0,0,0,0C927.44,397.89,924.27,397.89,922.32,399.84z M960.86,294.48 c-2.65-0.78-5.43,0.73-6.21,3.38c-0.78,2.65,0.73,5.43,3.38,6.21c2.65,0.78,5.43-0.73,6.21-3.38c0,0,0,0,0,0 C965.02,298.04,963.51,295.26,960.86,294.48L960.86,294.48z M861.53,497.38c-2.5-1.18-5.48-0.11-6.66,2.39 c-1.18,2.5-0.11,5.48,2.39,6.66c2.5,1.18,5.48,0.11,6.66-2.39c0,0,0,0,0-0.01C865.09,501.53,864.02,498.56,861.53,497.38 L861.53,497.38z M874.37,470.15c-2.5-1.18-5.48-0.11-6.65,2.39s-0.11,5.48,2.39,6.65c2.5,1.18,5.47,0.11,6.65-2.39 C877.94,474.31,876.87,471.33,874.37,470.15C874.37,470.15,874.37,470.15,874.37,470.15L874.37,470.15z M889.05,443.91 c-2.35-1.45-5.43-0.71-6.88,1.64c-1.45,2.35-0.71,5.43,1.64,6.88c2.35,1.45,5.43,0.71,6.88-1.64 C892.14,448.44,891.4,445.36,889.05,443.91C889.05,443.91,889.05,443.91,889.05,443.91L889.05,443.91z M901.23,421.17 c-1.95,1.95-1.95,5.12,0,7.07s5.12,1.95,7.07,0c1.95-1.95,1.95-5.12,0-7.07c0,0,0,0,0,0 C906.35,419.22,903.18,419.22,901.23,421.17L901.23,421.17z M900.49,287.08c2.65,0.78,5.43-0.73,6.21-3.38 c0.78-2.65-0.73-5.43-3.38-6.21c-2.65-0.78-5.43,0.73-6.21,3.38c0,0,0,0,0,0C896.33,283.52,897.84,286.3,900.49,287.08z M1013.75,314.45c-1.95-1.95-5.12-1.95-7.07,0c-1.95,1.95-1.95,5.12,0,7.07s5.12,1.95,7.07,0c0,0,0,0,0,0 C1015.7,319.57,1015.7,316.4,1013.75,314.45L1013.75,314.45z M760.57,261.18c2.76,0,5-2.24,5-5c0-2.76-2.24-5-5-5s-5,2.24-5,5 c0,0.99,0.3,1.96,0.85,2.79C757.35,260.35,758.9,261.18,760.57,261.18z M985.57,335.83c-1.94,1.97-1.92,5.13,0.05,7.07 c0.94,0.92,2.2,1.44,3.51,1.44c2.76-0.01,5-2.25,4.99-5.01c0-1.33-0.54-2.6-1.48-3.54c-1.96-1.93-5.11-1.91-7.05,0.04H985.57z M735.66,277.93c2.76,0,5-2.24,5-5c0-2.76-2.24-5-5-5s-5,2.24-5,5c0,0.99,0.3,1.96,0.85,2.79c0.93,1.39,2.5,2.22,4.17,2.21H735.66 z M814.16,261.6c0.46,0.13,0.93,0.2,1.41,0.2c2.76-0.01,5-2.25,4.99-5.01c-0.01-2.76-2.25-5-5.01-4.99 c-2.76,0.01-5,2.25-4.99,5.01C810.56,259.03,812.03,260.98,814.16,261.6z M848.68,524.6c-2.38-1.41-5.44-0.62-6.85,1.76 c-1.41,2.38-0.62,5.44,1.76,6.85c0.27,0.16,0.54,0.29,0.83,0.39c0.66,0.32,1.39,0.48,2.12,0.48c2.76,0,5-2.24,5-5 c0-1.93-1.11-3.7-2.86-4.52V524.6z M871.68,278.6c2.65,0.78,5.43-0.73,6.21-3.38c0.78-2.65-0.73-5.43-3.38-6.21 c-2.65-0.78-5.43,0.73-6.21,3.38c0,0,0,0,0,0c-0.77,2.65,0.76,5.43,3.41,6.2c0,0,0.01,0,0.01,0L871.68,278.6z M843,270.09 c2.65,0.78,5.43-0.73,6.21-3.38c0.78-2.65-0.73-5.43-3.38-6.21c-2.65-0.78-5.43,0.73-6.21,3.38c0,0,0,0,0,0 C838.84,266.53,840.35,269.31,843,270.09z M785.45,253.09c2.65,0.78,5.43-0.73,6.21-3.38c0.78-2.65-0.73-5.43-3.38-6.21 c-2.65-0.78-5.43,0.73-6.21,3.38c0,0,0,0,0,0c-0.79,2.64,0.7,5.42,3.33,6.22L785.45,253.09z M810.22,606.21 c-2.49-1.23-5.5-0.21-6.73,2.27c-1.23,2.49-0.21,5.5,2.28,6.73c0.69,0.34,1.45,0.52,2.22,0.52c2.76,0.01,5-2.23,5.01-4.99 c0-1.9-1.07-3.64-2.78-4.49L810.22,606.21z M795.82,632.53c-2.39-1.39-5.45-0.58-6.84,1.8c-1.39,2.39-0.58,5.45,1.8,6.84 c2.38,1.39,5.44,0.58,6.84-1.8c1.38-2.39,0.55-5.45-1.84-6.83c0,0,0,0-0.01,0L795.82,632.53z M835.92,551.76 c-2.38-1.4-5.45-0.6-6.84,1.78c-1.4,2.38-0.6,5.45,1.78,6.84c0.25,0.15,0.52,0.27,0.79,0.38c0.66,0.32,1.39,0.48,2.13,0.48 c2.76,0,5-2.24,5-5c0-1.93-1.11-3.7-2.86-4.52V551.76z M929.31,295.57c2.65,0.78,5.43-0.73,6.21-3.38 c0.78-2.65-0.73-5.43-3.38-6.21c-2.65-0.78-5.43,0.73-6.21,3.38c0,0,0,0,0,0c-0.79,2.64,0.7,5.42,3.33,6.22L929.31,295.57z M823,579c-2.5-1.18-5.48-0.11-6.66,2.38c0,0,0,0,0,0.01l0,0c-1.18,2.5-0.12,5.48,2.38,6.66c0,0,0,0,0,0 c2.5,1.18,5.48,0.12,6.66-2.38c0,0,0,0,0,0c1.19-2.49,0.13-5.48-2.37-6.66C823.01,579,823,579,823,579z M477.24,192.79 L671.48-0.81l31.2,144.56c0.58,2.7,3.24,4.42,5.95,3.84c2.7-0.58,4.42-3.24,3.84-5.95l0,0L677.39-20.82L481.82,174.11 l-11.67-36.84c-0.83-2.63-3.64-4.1-6.27-3.27c-2.63,0.83-4.1,3.64-3.27,6.27L477.24,192.79z M459.33,699.79 c-45.87-14.73-86.71-34.94-118.09-58.44c-55.65-41.66-67.95-83.25-68.45-110.84l0.87-36.48c0.81-25.32,1.78-42.8,2.9-51.94 l11.07-90.66c0.34-2.74-1.61-5.24-4.36-5.57c-2.74-0.34-5.24,1.61-5.57,4.35l0,0l-11.07,90.67c-1.15,9.43-2.15,27.21-3,52.87 l-0.87,36.72v0.11c0.52,29.82,13.5,74.63,72.45,118.78c32.26,24.15,74.11,44.89,121,60c0.49,0.16,1.01,0.24,1.53,0.24 c2.76,0.02,5.01-2.21,5.03-4.97c0.01-2.2-1.41-4.14-3.5-4.8L459.33,699.79z M715.85,680.79c-1.92,1.98-1.88,5.15,0.1,7.07 c1.98,1.92,5.15,1.88,7.07-0.1c1.92-1.98,1.88-5.15-0.1-7.07c0,0,0,0,0,0c-2-1.91-5.16-1.84-7.07,0.16c0,0,0,0,0,0V680.79z M693.41,698.6c-2.36,1.44-3.11,4.51-1.67,6.87c0.91,1.49,2.53,2.4,4.28,2.4c0.92,0,1.82-0.26,2.6-0.73 c2.36-1.44,3.1-4.52,1.66-6.88S695.77,697.16,693.41,698.6L693.41,698.6z M609.92,721.9c-2.76,0.08-4.93,2.39-4.85,5.15 c0.08,2.76,2.39,4.93,5.15,4.85l0,0h0.3c2.76-0.17,4.87-2.54,4.7-5.3S612.68,721.73,609.92,721.9z M739.83,656 c-2.36-1.44-5.43-0.7-6.88,1.66s-0.7,5.43,1.66,6.88c2.35,1.44,5.43,0.7,6.87-1.65C742.92,660.53,742.19,657.45,739.83,656 C739.83,656,739.83,656,739.83,656z M639.07,718.43c-2.72,0.49-4.52,3.09-4.03,5.81c0.43,2.38,2.51,4.11,4.93,4.11 c0.31,0,0.61-0.03,0.91-0.09c2.73-0.42,4.61-2.97,4.19-5.7c-0.42-2.73-2.97-4.61-5.7-4.19 C639.27,718.39,639.17,718.41,639.07,718.43L639.07,718.43z M797.31,550.62c-2.48-1.22-5.47-0.19-6.69,2.29l0,0l0,0 c-1.22,2.48-0.2,5.47,2.27,6.7c0,0,0.01,0,0.01,0c2.48,1.22,5.47,0.2,6.69-2.28c1.23-2.47,0.21-5.47-2.26-6.7 C797.32,550.63,797.32,550.62,797.31,550.62z M667.26,711c-2.61,0.91-3.98,3.76-3.07,6.37c0.7,2.02,2.61,3.36,4.75,3.35 c0.57,0,1.13-0.1,1.67-0.29c2.6-0.93,3.97-3.79,3.04-6.39C672.72,711.44,669.86,710.07,667.26,711L667.26,711z M784.05,577.6 c-2.48-1.22-5.47-0.2-6.69,2.28c-1.22,2.48-0.2,5.47,2.28,6.69c2.48,1.22,5.47,0.2,6.69-2.28c0,0,0,0,0,0l0,0 C787.55,581.81,786.53,578.82,784.05,577.6z M755.33,630.32c-2.37-1.41-5.44-0.64-6.86,1.73c-1.41,2.37-0.64,5.44,1.74,6.86 c0.77,0.46,1.65,0.7,2.55,0.7c2.76,0,5-2.24,5-5C757.76,632.85,756.84,631.22,755.33,630.32L755.33,630.32z M810.57,523.65 c-2.49-1.22-5.49-0.19-6.71,2.29c-1.22,2.49-0.19,5.49,2.3,6.71c0.69,0.33,1.44,0.51,2.2,0.51c1.91,0,3.65-1.09,4.49-2.8l0,0 c1.23-2.47,0.21-5.47-2.26-6.7C810.58,523.66,810.58,523.65,810.57,523.65L810.57,523.65z M580.41,722.24 c-2.76-0.1-5.08,2.06-5.17,4.83s2.06,5.08,4.83,5.17h0.18c2.76,0.05,5.04-2.15,5.09-4.91 C585.37,724.56,583.17,722.29,580.41,722.24L580.41,722.24z M770.41,604.37c-2.4-1.37-5.45-0.53-6.82,1.86 c-1.37,2.4-0.53,5.45,1.86,6.82c2.4,1.37,5.45,0.53,6.82-1.86c0,0,0-0.01,0.01-0.01C773.64,608.78,772.8,605.74,770.41,604.37z M823.83,496.67c-2.49-1.22-5.49-0.19-6.71,2.3c-1.22,2.49-0.19,5.49,2.3,6.7l0,0c0.69,0.33,1.44,0.51,2.2,0.51 c2.76,0.01,5-2.23,5.01-4.99c0-1.91-1.08-3.66-2.8-4.5L823.83,496.67z M715,324.2l-46.4-215c-0.58-2.7-3.24-4.42-5.95-3.84 s-4.42,3.24-3.84,5.95l49.52,229.42l75.26-50.63L935.76,335l-73.3,74.16c-1.8,2.09-1.56,5.25,0.53,7.05 c1.9,1.63,4.71,1.61,6.58-0.05l85-86l-172.7-51L715,324.2z M450,225.83c0.66,2.08,2.58,3.49,4.76,3.49c0.52,0,1.03-0.08,1.52-0.23 c2.63-0.84,4.09-3.65,3.25-6.28c-0.84-2.63-3.65-4.09-6.28-3.25C450.63,220.39,449.17,223.2,450,225.83L450,225.83z M464.73,254 c2.76,0,5-2.25,4.99-5.01c0-2.76-2.25-5-5.01-4.99c-2.76,0-5,2.25-4.99,5.01c0,1.32,0.53,2.59,1.46,3.52 C462.12,253.47,463.4,254,464.73,254z M440.89,197.2c0.84,2.63,3.65,4.09,6.28,3.25c2.63-0.84,4.09-3.65,3.25-6.28 c-0.84-2.63-3.65-4.09-6.28-3.25c-2.63,0.83-4.09,3.64-3.26,6.27c0,0.01,0.01,0.02,0.01,0.04V197.2z M524.94,182 c-1.95,1.95-1.95,5.12,0,7.07c1.95,1.95,5.12,1.95,7.07,0s1.95-5.12,0-7.07c0,0,0,0,0,0C530.06,180.05,526.89,180.05,524.94,182z M436.6,172.16c2.76,0,5-2.24,5-5c0-2.76-2.24-5-5-5s-5,2.24-5,5c0,0.51,0.08,1.02,0.23,1.51c0.67,2.06,2.6,3.46,4.77,3.45V172.16 z M503.69,203.16c-1.95,1.95-1.95,5.12,0,7.07c1.95,1.95,5.12,1.95,7.07,0c1.95-1.95,1.95-5.12,0-7.07c0,0,0,0,0,0 c-1.95-1.96-5.11-1.97-7.07-0.02V203.16z M482.44,224.33c-1.95,1.96-1.95,5.12,0.01,7.07c1.96,1.95,5.12,1.95,7.07-0.01 c1.95-1.95,1.95-5.11,0-7.06c-1.94-1.96-5.11-1.97-7.07-0.03c0,0-0.01,0.01-0.01,0.01V224.33z M325.58,392.82h0.1 c2.73,0,4.95-2.18,5-4.91l3.19-167.42c0.05-2.76-2.14-5.04-4.9-5.1s-5.04,2.14-5.1,4.9l0,0l-3.18,167.42 C320.63,390.48,322.82,392.76,325.58,392.82z M757.39,550.24c-2.48-1.22-5.47-0.2-6.69,2.28c-5.43,11-10.4,21.16-10.52,21.39 l-0.09,0.2c-1.14,2.55-2.45,5.02-3.91,7.4l-0.11,0.2c-8.22,14.95-23.4,40.13-31.7,53.79l-6.1,10c-17.34,26.82-54.2,41-106.6,41 c-33.58,0-71.85-6.08-110.68-17.59c-46.58-13.81-87.45-33.27-118.18-56.27c-2.21-1.66-5.34-1.21-7,1c-1.66,2.21-1.21,5.34,1,7 c0,0,0,0,0,0c31.67,23.71,73.62,43.72,121.33,57.86c39.74,11.78,79,18,113.53,18c56,0,95.77-15.77,115-45.62l6.2-10.11 c8.34-13.72,23.56-39,31.88-54.08c1.64-2.69,3.11-5.49,4.4-8.36c0.63-1.27,6.54-13.3,10.49-21.34c1.25-2.46,0.27-5.47-2.19-6.72 C757.43,550.26,757.41,550.25,757.39,550.24z M444.32,327.24l184.6-184l53.91,249.79c0.5,2.3,2.53,3.94,4.88,3.94 c0.36,0,0.71-0.03,1.06-0.11c2.7-0.58,4.42-3.24,3.84-5.94c0,0,0,0,0,0l-57.78-267.66L448.89,308.59L412.58,194 c-0.72-2.67-3.46-4.25-6.13-3.53c-2.67,0.72-4.25,3.46-3.53,6.13c0.04,0.14,0.08,0.27,0.13,0.4L444.32,327.24z" style="fill: rgb(255, 201, 37);"/>
      <path class="st12" d="M175.89,423.09L175.89,423.09l-14,7.08l1.25,2.37c-14.22,15.37-16.51,40.33-6,61.14 c10.86,21.44,33.56,35,55.3,32.26l1.21,2.29L226,522l0,0c23.35-11.19,33.3-41.76,18.7-70.57S199.18,411.75,175.89,423.09z"/>
      <path class="st12" d="M205,527c-21.87,7.07-46.88-5.84-58.12-28s-6.57-49.44,12.45-62.12c21.73-14.5,53.48-4.91,67.8,23.35 S229.94,518.93,205,527z"/>
      <path class="st13" d="M212.76,523.05c-21.87,7.06-46.88-5.85-58.12-28s-6.57-49.44,12.45-62.13c21.73-14.5,45.7-1.88,60,26.38 S237.75,515,212.76,523.05z"/>
      <path class="st14" d="M161.28,440.78c19.84-12.89,48.48-3.94,61.39,21.55s2.82,53.16-19.71,60.74c-20,6.71-43-5-53.36-25.44 S143.71,452.2,161.28,440.78 M157.28,432.91c-20.47,14-25.31,43.45-13.18,67.38c12.13,23.93,39,38,62.84,30.65 c27.53-8.54,40.43-41.77,24.65-72.92S180.94,416.72,157.28,432.91L157.28,432.91z"/>
      <path class="st12" d="M208.44,471.77c-3.04-0.55-6.17-0.29-9.07,0.76l-0.32-0.64c1.32-1.1,2.45-2.42,3.35-3.89 c1.1-1.79,1.75-3.82,1.91-5.92c0.19-2.57-0.37-5.13-1.61-7.39c-2.1-4.15-5.1-6.56-8.95-7.23c-2.5-0.38-5.05-0.15-7.43,0.68 l-5.53-10.92l-4.62,2.34l2.9,12.16l-4.7,2.73l-5.09-10.06l-4.62,2.34l3.2,11.51l-10.65,6.19L162,474l2.47-1.33 c1.53-0.63,3.29,0.1,3.91,1.64c0,0,0,0.01,0.01,0.01l10.43,20.59c0.83,1.63,0.36,3.46-1,4.06l-2.58,1.13l4.82,9.51l11.47-4.61 l7.49,9.6l4.62-2.34l-5.1-10.06l5.06-2l8.2,9.76l4.62-2.34l-5.51-10.88c2.28-1.41,4.23-3.29,5.71-5.53 c2.23-3.47,2.19-7.53-0.14-12.14C214.3,474.75,211.61,472.33,208.44,471.77z M182.33,463c0.85-0.54,1.9-0.65,2.84-0.3 c1.05,0.57,1.87,1.49,2.32,2.6l1.14,2.25c0.63,1.02,0.89,2.24,0.73,3.43c-0.25,0.98-0.95,1.78-1.89,2.16l-2.91,1.46l-5.09-10.05 L182.33,463z M193.45,492.14l-5.35-10.55l3.33-1.58c0.89-0.49,1.96-0.56,2.9-0.17c1.06,0.59,1.89,1.53,2.35,2.65l1.4,2.75 c0.62,1.01,0.88,2.21,0.71,3.39c-0.3,0.95-1.05,1.7-2,2L193.45,492.14z"/>
      <path class="st15" d="M203.82,474.11c-3.04-0.55-6.17-0.29-9.07,0.76l-0.32-0.64c1.32-1.09,2.45-2.39,3.35-3.85 c1.1-1.79,1.75-3.82,1.91-5.92c0.19-2.57-0.37-5.13-1.61-7.39c-2.1-4.15-5.1-6.56-9-7.23c-2.5-0.38-5.05-0.15-7.43,0.68 l-5.53-10.92l-6.89,4.29l5.17,10.21l-4.69,2.73l-5.1-10.06l-6.41,4l5,9.85l-10.65,6.19l4.82,9.51l2.47-1.33 c1.53-0.63,3.29,0.1,3.91,1.64c0,0,0,0.01,0.01,0.01l10.43,20.59c0.83,1.63,0.36,3.46-1,4.06l-2.58,1.13l4.82,9.51l11.47-4.59 l5,9.85l7.1-2.59l-5.1-10.06l5.06-2l5.17,10.21l7.65-2.79l-5.51-10.88c2.28-1.41,4.23-3.29,5.71-5.53 c2.23-3.47,2.19-7.53-0.14-12.14C209.68,477.09,207,474.67,203.82,474.11z M177.71,465.34c0.85-0.54,1.9-0.65,2.84-0.3 c1.05,0.57,1.87,1.49,2.32,2.6l1.14,2.25c0.63,1.03,0.89,2.24,0.74,3.43c-0.26,0.98-0.96,1.78-1.9,2.16l-2.91,1.46l-5.09-10.05 L177.71,465.34z M188.83,494.48l-5.34-10.55l3.32-1.58c0.89-0.49,1.96-0.56,2.9-0.17c1.06,0.59,1.89,1.53,2.35,2.65l1.4,2.75 c0.62,1.01,0.88,2.21,0.71,3.39c-0.3,0.95-1.05,1.7-2,2L188.83,494.48z"/>
      <path class="st12" d="M149.78,488.44L149.78,488.44l-14,7.08l1.25,2.37c-14.22,15.37-16.51,40.34-6,61.15 c10.86,21.43,33.56,35,55.3,32.26l1.21,2.29l12.29-6.24l0,0c23.35-11.2,33.3-41.76,18.7-70.57S173.07,477.1,149.78,488.44z"/>
      <path class="st12" d="M178.84,592.35c-21.87,7.07-46.88-5.85-58.12-28s-6.57-49.44,12.45-62.13c21.73-14.49,53.48-4.91,67.8,23.36 C215.29,553.85,203.83,584.27,178.84,592.35z"/>
      <path class="st13" d="M186.65,588.39c-21.86,7.07-46.88-5.85-58.12-28S122,510.92,141,498.23c21.73-14.49,45.7-1.88,60,26.39 C215.3,552.89,211.64,580.32,186.65,588.39z"/>
      <path class="st14" d="M135.17,506.13c19.84-12.9,48.48-3.94,61.39,21.55s2.82,53.15-19.71,60.73c-19.95,6.71-43-5-53.35-25.43 S117.6,517.54,135.17,506.13 M131.17,498.25c-20.47,14-25.31,43.45-13.18,67.38s39,38,62.84,30.65 c27.53-8.54,40.43-41.76,24.65-72.92S154.83,482.06,131.17,498.25L131.17,498.25z"/>
      <path class="st12" d="M182.33,537.12c-3.04-0.55-6.17-0.29-9.07,0.75l-0.32-0.63c1.32-1.09,2.45-2.39,3.35-3.85 c2.49-4.06,2.6-9.14,0.3-13.31c-2.1-4.15-5.1-6.57-9-7.24c-2.5-0.38-5.05-0.14-7.43,0.69l-5.53-10.93l-4.62,2.34L153,517.1 l-4.69,2.73l-5.1-10.05l-4.62,2.34l3.2,11.5l-10.65,6.2l4.82,9.51l2.47-1.34c1.53-0.63,3.29,0.1,3.91,1.64c0,0,0,0.01,0.01,0.01 l10.43,20.59c0.83,1.64,0.36,3.46-1,4.07l-2.58,1.12l4.82,9.51l11.47-4.58l7.49,9.59l4.62-2.34l-5.1-10.06l5.06-2l8.2,9.76 l4.62-2.34l-5.51-10.88c2.28-1.41,4.23-3.29,5.71-5.53c2.23-3.47,2.19-7.53-0.14-12.13C188.19,540.1,185.5,537.67,182.33,537.12z M156.22,528.34c0.85-0.54,1.9-0.65,2.84-0.3c1.05,0.57,1.87,1.5,2.32,2.61l1.14,2.24c0.63,1.03,0.89,2.24,0.74,3.44 c-0.26,0.98-0.97,1.77-1.9,2.16l-2.91,1.51l-5.09-10.06L156.22,528.34z M167.34,557.49L162,546.94l3.32-1.58 c0.89-0.5,1.96-0.57,2.9-0.18c1.06,0.59,1.89,1.53,2.35,2.65l1.4,2.75c0.62,1.02,0.88,2.22,0.71,3.4c-0.3,0.95-1.05,1.7-2,2 L167.34,557.49z"/>
      <path class="st15" d="M177.72,539.46c-3.04-0.55-6.17-0.29-9.08,0.75l-0.32-0.63c1.32-1.09,2.45-2.39,3.35-3.85 c2.49-4.06,2.6-9.14,0.3-13.31c-2.1-4.15-5.1-6.57-8.95-7.24c-2.5-0.38-5.05-0.14-7.43,0.69l-5.53-10.93l-6.89,4.3l5.17,10.2 l-4.69,2.73l-5.1-10l-6.41,4l5,9.85l-10.65,6.2l4.82,9.51l2.47-1.34c1.53-0.63,3.29,0.1,3.91,1.64c0,0,0,0.01,0.01,0.01 l10.43,20.59c0.83,1.64,0.36,3.46-1,4.07l-2.58,1.12l4.82,9.51l11.47-4.58l5,9.85l7.12-2.6l-5.1-10.06l5.06-2l5.08,10.13 l7.65-2.79l-5.51-10.88c2.29-1.41,4.24-3.29,5.72-5.53c2.22-3.47,2.18-7.53-0.15-12.13C183.56,542.44,180.89,540.01,177.72,539.46 z M151.6,530.68c0.85-0.54,1.9-0.65,2.84-0.3c1.05,0.57,1.87,1.5,2.32,2.61l1.14,2.24c0.63,1.03,0.89,2.24,0.74,3.44 c-0.26,0.98-0.97,1.77-1.9,2.16l-2.91,1.46l-5.09-10.06L151.6,530.68z M162.72,559.83l-5.34-10.55l3.32-1.58 c0.89-0.5,1.96-0.57,2.9-0.18c1.06,0.59,1.89,1.53,2.35,2.65l1.4,2.75c0.63,1.01,0.88,2.22,0.71,3.4c-0.3,0.95-1.05,1.7-2,2 L162.72,559.83z"/>
      <path class="st12" d="M1008.58,723.56L1008.58,723.56l3.32-15.3l-2.63-0.52c-3-20.74-20.89-38.26-43.68-43.2 c-23.48-5.09-48.31,4-59.91,22.57l-2.55-0.51l-2.9,13.47l0,0c-6,25.19,11.41,52.18,43,59S1002.7,748.78,1008.58,723.56z"/>
      <path class="st12" d="M909.61,680.58c8.31-21.43,34.11-32.7,58.41-27.43s42.51,26.08,40.36,48.84c-2.46,26-29.92,44.6-60.88,37.89 S900.12,705.06,909.61,680.58z"/>
      <path class="st13" d="M907.75,689.13c8.31-21.42,34.11-32.69,58.41-27.42s42.51,26.08,40.37,48.84 c-2.46,26-27.36,36.65-58.33,29.94S898.26,713.61,907.75,689.13z"/>
      <path class="st14" d="M1004.07,701.06c-2.51,23.53-27.52,40.11-55.44,34.05s-43-31.33-34.71-53.6c7.38-19.71,31-30.22,53.39-25.36 S1006.31,680.22,1004.07,701.06 M1012.69,702.93c2-24.72-17.76-47-44-52.73s-54.13,6.3-63.42,29.44 c-10.74,26.76,6.91,57.72,41,65.12s64-13.26,66.35-41.83H1012.69z"/>
      <path class="st12" d="M950.27,718.12c2.35-2.01,4.12-4.6,5.14-7.52l0.69,0.15c0.02,1.7,0.32,3.39,0.88,5 c1.58,4.49,5.45,7.78,10.13,8.63c4.55,1,8.32,0.18,11.27-2.39c1.87-1.69,3.29-3.82,4.15-6.19l12,2.59l1.1-5.06l-11.3-5.33 l0.84-5.37l11,2.39l1.09-5.06l-10.94-4.77l1.93-12.19l-10.42-2.26l-0.52,2.76c-0.48,1.59-2.15,2.48-3.74,2.01 c-0.01,0-0.01,0-0.02-0.01L951,680.57c-1.8-0.39-2.92-1.89-2.51-3.36l0.75-2.71l-10.41-2.26L935.15,684L923,683.8l-1.1,5.06 l11,2.39l-1.62,5.19l-12.74,0.22l-1.1,5.06l11.92,2.58c-0.35,2.66-0.12,5.36,0.68,7.92c1.29,3.92,4.47,6.45,9.51,7.55 C944.26,720.79,947.84,720.23,950.27,718.12z M973.55,703.39c-0.11,1-0.69,1.88-1.55,2.39c-1.11,0.45-2.34,0.51-3.49,0.16 l-2.47-0.53c-1.19-0.16-2.29-0.72-3.12-1.6c-0.6-0.82-0.78-1.86-0.49-2.83l0.7-3.18l11,2.39L973.55,703.39z M943.92,693.64 l11.56,2.5l-0.88,3.58c-0.17,1-0.79,1.88-1.69,2.36c-1.13,0.45-2.38,0.5-3.54,0.16l-3-0.66c-1.19-0.15-2.28-0.71-3.09-1.59 c-0.56-0.82-0.68-1.87-0.34-2.8L943.92,693.64z"/>
      <path class="st15" d="M951.37,713.06c2.34-2.01,4.11-4.61,5.13-7.52l0.7,0.15c0.02,1.7,0.32,3.39,0.87,5 c1.58,4.49,5.45,7.79,10.14,8.63c4.55,1,8.32,0.18,11.26-2.39c1.87-1.69,3.3-3.82,4.16-6.19l12,2.59l1-8.05l-11.19-2.42l0.85-5.37 l11,2.39l0.94-7.5l-10.79-2.34l1.91-12.17l-10.41-2.26l-0.53,2.76c-0.48,1.59-2.15,2.48-3.74,2c0,0-0.01,0-0.01,0l-22.56-4.89 c-1.79-0.39-2.91-1.89-2.5-3.36l0.75-2.71l-10.42-2.26L936.25,679l-10.79-2.34L923,683.8l11,2.39l-1.62,5.19L921.2,689l-2.66,7.7 l11.91,2.58c-0.35,2.66-0.11,5.36,0.69,7.92c1.29,3.92,4.47,6.45,9.51,7.54C945.36,715.73,948.94,715.17,951.37,713.06z M974.64,698.33c-0.1,1-0.68,1.89-1.55,2.39c-1.11,0.45-2.34,0.51-3.49,0.16l-2.46-0.53c-1.19-0.16-2.3-0.73-3.13-1.6 c-0.59-0.82-0.77-1.86-0.48-2.83l0.7-3.18l11,2.39L974.64,698.33z M945,688.57l11.55,2.51l-0.87,3.58c-0.17,1-0.79,1.86-1.68,2.34 c-1.13,0.45-2.38,0.5-3.54,0.16l-3-0.66c-1.18-0.15-2.28-0.72-3.09-1.59c-0.56-0.82-0.69-1.87-0.34-2.8L945,688.57z"/>
      <path class="st12" d="M936.18,114.62L936.18,114.62l-4.86-8.7l-1.47,0.86c-10.14-8.65-26.06-9.46-39-2.22 c-13.34,7.45-21.36,22.23-19.08,36l-1.42,0.82l4.28,7.65l0,0c7.71,14.55,27.39,20.08,45.32,10.06S944,129.13,936.18,114.62z"/>
      <path class="st12" d="M870.9,135.77c-5-13.72,2.51-30,16.32-37.66s31.24-5.45,39.8,6.31c9.77,13.44,4.49,33.86-13.1,43.69 S876.68,151.43,870.9,135.77z"/>
      <path class="st13" d="M873.62,140.63c-5.06-13.72,2.51-29.95,16.31-37.66s31.25-5.45,39.8,6.31c9.77,13.44,2.37,29-15.22,38.82 S879.39,156.29,873.62,140.63z"/>
      <path class="st14" d="M924.57,105.79c8.7,12.28,3.75,30.71-12.12,39.57s-33.7,3.16-39.1-11c-4.78-12.51,2.07-27.46,14.79-34.56 s28.72-4.92,36.43,6 M929.47,103.07c-9.43-12.65-28.26-15-43.16-6.65s-23.17,25.78-17.86,40.72c6.14,17.28,27.58,24.62,47,13.79 s25-33.25,14.05-47.86L929.47,103.07z"/>
      <path class="st12" d="M906.09,136.56c0.27-1.94,0.02-3.92-0.72-5.74l0.4-0.22c0.73,0.8,1.59,1.47,2.53,2 c2.65,1.47,5.88,1.41,8.47-0.16c2.34-1.11,3.97-3.31,4.36-5.87c0.19-1.59-0.03-3.21-0.62-4.7l6.8-3.8l-1.61-2.88l-7.65,2.16 l-1.86-2.91l6.26-3.5l-1.6-2.87l-7.23,2.33l-4.21-6.61l-5.92,3.3l0.91,1.54c0.44,0.95,0.03,2.07-0.91,2.51 c-0.01,0.01-0.03,0.01-0.04,0.02l-12.81,7.16c-0.83,0.58-1.97,0.37-2.55-0.45c-0.02-0.03-0.04-0.06-0.06-0.1l-0.78-1.61 l-5.92,3.31l3.21,7.17l-5.91,5l1.61,2.87l6.26-3.5l1.41,3.16l-6,5.47l1.61,2.87l6.77-3.78c0.95,1.41,2.2,2.6,3.66,3.49 c2.26,1.33,4.84,1.2,7.71-0.4C904.34,140.36,905.82,138.59,906.09,136.56z M910.99,119.74c0.36,0.53,0.46,1.19,0.27,1.8 c-0.34,0.68-0.91,1.23-1.6,1.54l-1.4,0.78c-0.63,0.43-1.4,0.63-2.16,0.56c-0.63-0.13-1.16-0.56-1.42-1.15l-1-1.81l6.26-3.5 L910.99,119.74z M892.76,127.56l6.56-3.67l1.09,2.07c0.34,0.55,0.41,1.23,0.19,1.84c-0.35,0.69-0.92,1.24-1.62,1.56l-1.71,1 c-0.63,0.43-1.39,0.62-2.14,0.54c-0.61-0.16-1.11-0.6-1.35-1.19L892.76,127.56z"/>
      <path class="st15" d="M904.48,133.69c0.28-1.95,0.03-3.93-0.71-5.75l0.4-0.22c0.73,0.8,1.58,1.48,2.53,2 c1.17,0.66,2.47,1.02,3.81,1.06c1.63,0.06,3.25-0.36,4.65-1.21c2.34-1.11,3.98-3.32,4.37-5.88c0.18-1.59-0.04-3.21-0.63-4.7 l6.8-3.8l-2.9-4.19l-6.36,3.55l-1.85-2.92l6.26-3.49l-2.71-4l-6.14,3.41l-4.21-6.61l-5.92,3.31l0.92,1.53 c0.44,0.96,0.02,2.09-0.94,2.53c0,0-0.01,0-0.01,0.01L889,115.48c-0.83,0.58-1.97,0.37-2.55-0.45c-0.02-0.03-0.04-0.06-0.06-0.1 l-0.78-1.61l-5.92,3.3l3.21,7.17l-6.13,3.43l1.83,4.46l6.26-3.5l1.42,3.16l-6.28,3.55l2,4.79l6.77-3.78 c0.96,1.42,2.21,2.61,3.67,3.49c2.26,1.32,4.84,1.19,7.7-0.41C902.74,137.49,904.21,135.72,904.48,133.69z M909.39,116.87 c0.37,0.52,0.46,1.19,0.26,1.79c-0.34,0.68-0.9,1.23-1.59,1.55l-1.4,0.78c-0.64,0.43-1.4,0.62-2.17,0.55 c-0.63-0.13-1.16-0.55-1.42-1.14l-1-1.81l6.26-3.5L909.39,116.87z M891.15,124.68l6.57-3.66l1.09,2.07 c0.34,0.55,0.41,1.23,0.19,1.84c-0.35,0.69-0.93,1.24-1.63,1.56l-1.71,1c-0.63,0.42-1.39,0.61-2.14,0.54 c-0.61-0.17-1.11-0.61-1.34-1.2L891.15,124.68z"/>
    </g>
  </g>
</svg>