<?xml version="1.0" encoding="utf-8"?>
<svg width="250" height="195" xmlns="http://www.w3.org/2000/svg" xmlns:xlink="http://www.w3.org/1999/xlink" xmlns:bx="https://boxy-svg.com">
  <defs>
    <clipPath id="A">
      <path d="M0 0h250v195H0z"/>
    </clipPath>
    <clipPath id="clip-path" transform="translate(0 0)">
      <rect class="cls-1" width="1126.8" height="845.1" transform="translate(1126.8 845.1) rotate(180)" style="fill: none;"/>
    </clipPath>
    <linearGradient id="linear-gradient" x1="292.77" y1="668.06" x2="842.44" y2="206.72" gradientUnits="userSpaceOnUse" gradientTransform="matrix(0.498884, 0, 0, 0.399437, 282.660217, 84.081307)">
      <stop offset="0" stop-color="#fb571d"/>
      <stop offset="0.04" stop-color="#fb621e"/>
      <stop offset="0.16" stop-color="#fa7e22"/>
      <stop offset="0.28" stop-color="#fa9225"/>
      <stop offset="0.39" stop-color="#fa9e26"/>
      <stop offset="0.51" stop-color="#faa227"/>
      <stop offset="0.61" stop-color="#fa9b26"/>
      <stop offset="0.76" stop-color="#fa8723"/>
      <stop offset="0.93" stop-color="#fb671f"/>
      <stop offset="1" stop-color="#fb571d"/>
    </linearGradient>
    <linearGradient id="linear-gradient-2" x1="862.13" y1="610.16" x2="680.24" y2="90.49" gradientUnits="userSpaceOnUse" gradientTransform="matrix(0.498884, 0, 0, 0.399437, 282.660217, 84.081307)">
      <stop offset="0" stop-color="#fd2371"/>
      <stop offset="1" stop-color="#fd6747"/>
    </linearGradient>
    <linearGradient id="linear-gradient-3" x1="877.22" y1="604.88" x2="695.33" y2="85.21" gradientTransform="matrix(0.497309, 0, 0, 0.45353, 284.462646, 33.27826)" xlink:href="#linear-gradient-2"/>
    <linearGradient id="linear-gradient-4" x1="812.55" y1="627.52" x2="630.67" y2="107.84" gradientTransform="matrix(0.497309, 0, 0, 0.45353, 284.462646, 33.27826)" xlink:href="#linear-gradient-2"/>
    <linearGradient id="linear-gradient-5" x1="740.8" y1="652.63" x2="558.91" y2="132.95" gradientTransform="matrix(0.497309, 0, 0, 0.45353, 284.462646, 33.27826)" xlink:href="#linear-gradient-2"/>
    <linearGradient id="linear-gradient-6" x1="651.73" y1="683.81" x2="469.84" y2="164.13" gradientTransform="matrix(0.497309, 0, 0, 0.45353, 284.462646, 33.27826)" xlink:href="#linear-gradient-2"/>
    <linearGradient id="linear-gradient-7" x1="549.06" y1="719.74" x2="367.17" y2="200.06" gradientTransform="matrix(0.497309, 0, 0, 0.45353, 284.462646, 33.27826)" xlink:href="#linear-gradient-2"/>
    <linearGradient id="linear-gradient-8" x1="471.65" y1="746.83" x2="289.77" y2="227.15" gradientTransform="matrix(0.497309, 0, 0, 0.45353, 284.462646, 33.27826)" xlink:href="#linear-gradient-2"/>
    <linearGradient id="linear-gradient-9" x1="412.68" y1="767.47" x2="230.79" y2="247.8" gradientTransform="matrix(0.497309, 0, 0, 0.45353, 284.462646, 33.27826)" xlink:href="#linear-gradient-2"/>
    <linearGradient id="linear-gradient-10" x1="380.31" y1="778.8" x2="198.42" y2="259.12" gradientTransform="matrix(0.497309, 0, 0, 0.45353, 284.462646, 33.27826)" xlink:href="#linear-gradient-2"/>
    <linearGradient id="linear-gradient-11" x1="380.29" y1="778.81" x2="198.4" y2="259.13" gradientTransform="matrix(0.497309, 0, 0, 0.45353, 284.462646, 33.27826)" xlink:href="#linear-gradient-2"/>
    <linearGradient id="linear-gradient-12" x1="410.87" y1="768.1" x2="228.99" y2="248.43" gradientTransform="matrix(0.497309, 0, 0, 0.45353, 284.462646, 33.27826)" xlink:href="#linear-gradient-2"/>
    <linearGradient id="linear-gradient-13" x1="479.94" y1="743.93" x2="298.05" y2="224.25" gradientTransform="matrix(0.497309, 0, 0, 0.45353, 284.462646, 33.27826)" xlink:href="#linear-gradient-2"/>
    <linearGradient id="linear-gradient-14" x1="586.47" y1="706.64" x2="404.59" y2="186.97" gradientTransform="matrix(0.497309, 0, 0, 0.45353, 284.462646, 33.27826)" xlink:href="#linear-gradient-2"/>
    <linearGradient id="linear-gradient-15" x1="720.69" y1="659.67" x2="538.8" y2="139.99" gradientTransform="matrix(0.497309, 0, 0, 0.45353, 284.462646, 33.27826)" xlink:href="#linear-gradient-2"/>
    <linearGradient id="linear-gradient-16" x1="809.56" y1="628.56" x2="627.67" y2="108.89" gradientTransform="matrix(0.497309, 0, 0, 0.45353, 284.462646, 33.27826)" xlink:href="#linear-gradient-2"/>
    <linearGradient id="linear-gradient-17" x1="311.5" y1="361.24" x2="707.29" y2="361.24" gradientUnits="userSpaceOnUse" gradientTransform="matrix(0.498884, 0, 0, 0.399437, 282.660217, 84.081307)">
      <stop offset="0" stop-color="#1d976c"/>
      <stop offset="1" stop-color="#94d78b"/>
    </linearGradient>
    <linearGradient id="linear-gradient-18" x1="383.06" y1="435.97" x2="646.43" y2="267.66" gradientUnits="userSpaceOnUse" gradientTransform="matrix(0.498884, 0, 0, 0.399437, 282.660217, 84.081307)">
      <stop offset="0" stop-color="#fb571d"/>
      <stop offset="0.07" stop-color="#fc781f"/>
      <stop offset="0.16" stop-color="#fd9c22"/>
      <stop offset="0.25" stop-color="#fdb924"/>
      <stop offset="0.34" stop-color="#fecd25"/>
      <stop offset="0.42" stop-color="#fed926"/>
      <stop offset="0.51" stop-color="#fedd26"/>
      <stop offset="0.58" stop-color="#fed626"/>
      <stop offset="0.68" stop-color="#fdc224"/>
      <stop offset="0.79" stop-color="#fda222"/>
      <stop offset="0.92" stop-color="#fc751f"/>
      <stop offset="1" stop-color="#fb571d"/>
    </linearGradient>
    <linearGradient id="linear-gradient-19" x1="207.38" y1="467.03" x2="774.27" y2="131.49" gradientUnits="userSpaceOnUse" gradientTransform="matrix(0.498884, 0, 0, 0.399437, 282.660217, 84.081307)">
      <stop offset="0" stop-color="#bd5018"/>
      <stop offset="0.2" stop-color="#c34919"/>
      <stop offset="0.51" stop-color="#c6451a"/>
      <stop offset="0.87" stop-color="#c14c19"/>
      <stop offset="0.99" stop-color="#bf5018"/>
    </linearGradient>
    <linearGradient id="linear-gradient-20" x1="415.43" y1="280.88" x2="535.32" y2="280.88" gradientTransform="matrix(0.497309, 0, 0, 0.45353, 284.462646, 33.27826)" xlink:href="#linear-gradient"/>
    <linearGradient id="linear-gradient-21" x1="311.69" y1="234.09" x2="573.42" y2="234.09" gradientTransform="matrix(0.497309, 0, 0, 0.45353, 284.462646, 33.27826)" xlink:href="#linear-gradient"/>
    <radialGradient id="radial-gradient" cx="372.16" cy="310.93" r="43.94" gradientUnits="userSpaceOnUse">
      <stop offset="0" stop-color="#faa227"/>
      <stop offset="0.23" stop-color="#fa9e26"/>
      <stop offset="0.46" stop-color="#fa9225"/>
      <stop offset="0.69" stop-color="#fa7e22"/>
      <stop offset="0.93" stop-color="#fb621e"/>
      <stop offset="1" stop-color="#fb571d"/>
    </radialGradient>
    <radialGradient id="radial-gradient-2" cx="551.42" cy="202.16" r="38.56" xlink:href="#radial-gradient"/>
    <radialGradient id="radial-gradient-3" cx="462.97" cy="120.19" r="43.12" xlink:href="#radial-gradient"/>
    <radialGradient id="radial-gradient-4" cx="316.45" cy="202.84" r="43.65" xlink:href="#radial-gradient"/>
  </defs>
  <g clip-path="url(#A)">
    <path fill="#1c1c1c" d="M0 0h250v195H0z"/>
    <path fill="#fff" opacity=".08" d="M 88.469 0.882 L 315.585 1.279 L 41.605 382.921 L -133.582 169.103 L 88.469 0.882 Z"/>
    <g transform="matrix(.121869 -.992546 .992546 .121869 61.833 73.044)" fill="#f9b316"/>
    <title>Wheel</title>
    <g class="cls-2" transform="matrix(0.275115, 0, 0, 0.29281, -31.027008, 6.016068)" style="isolation: isolate;" bx:origin="0.470968 0.5">
      <g id="Layer_1" data-name="Layer 1">
        <g class="cls-3" style="clip-path: url(#clip-path);">
          <path class="cls-5" d="M 705.621 274.518 C 704.778 275.588 703.899 276.658 703.001 277.713 L 702.801 277.944 C 702.803 277.957 702.803 277.968 702.801 277.981 C 684.687 299.343 656.405 320.073 618.795 336.77 C 617.378 337.4 615.944 338.026 614.495 338.643 C 611.196 340.054 607.897 341.404 604.601 342.689 C 601.003 344.098 597.411 345.429 593.826 346.684 C 569.316 355.335 545.179 360.664 522.594 363.06 C 471.444 368.413 428.247 358.455 406.664 336.85 L 385.332 316.362 L 395.344 320.157 C 394.855 318.962 394.418 317.748 394.033 316.515 C 380.617 273.735 431.638 218.001 506.161 186.17 C 570.587 158.641 644.672 152.366 688.499 171.87 C 695.215 174.817 701.349 178.545 706.699 182.935 C 709.781 185.485 712.558 188.263 714.99 191.231 L 715.757 182.307 C 715.832 182.48 723.845 207.025 723.845 207.025 C 730.659 227.064 724.249 251.055 705.621 274.518 Z" style="fill: url(#linear-gradient);"/>
          <g class="cls-6" style="mix-blend-mode: overlay;" transform="matrix(0.498884, 0, 0, 0.399437, 282.660126, 84.081276)">
            <path class="cls-7" d="M762.9,113.47a317,317,0,0,1,84.72,17.14,260.37,260.37,0,0,1,40.09,18.3,227.47,227.47,0,0,1,36.54,25.65,212.43,212.43,0,0,1,30.92,32.84,213.74,213.74,0,0,1,31.88,60.15l1.74,5.44c.28.9.59,1.81.85,2.72l.77,2.75,1.51,5.5,1.32,5.54.66,2.78.54,2.8,1.08,5.59.88,5.63c.3,1.87.59,3.75.79,5.63l.67,5.65c.2,1.89.32,3.77.49,5.66.36,3.78.49,7.55.67,11.33a289.07,289.07,0,0,1-11.64,89,372.64,372.64,0,0,1-34.73,81.72,460.36,460.36,0,0,1-50.75,71.93q-14.26,16.69-29.8,32.15c-10.35,10.29-21.16,20.09-32.23,29.52S817.39,657.37,805.7,666,782,682.71,769.78,690.51s-24.65,15.18-37.31,22.16c-6.3,3.54-12.71,6.86-19.1,10.22s-12.91,6.46-19.4,9.63c-52.08,24.93-107.19,43.75-164,54.64a551,551,0,0,1-86.14,9.69,456.18,456.18,0,0,1-86.63-5.23c-28.6-4.69-56.87-12.2-83.6-23.69-26.74-11.32-51.91-26.71-73.54-46.09a6,6,0,0,1,7.67-9.31l.1.07a268.32,268.32,0,0,0,72.2,39.14l4.84,1.75c1.62.57,3.22,1.19,4.87,1.67l9.85,3.06c1.62.54,3.3.95,5,1.39l5,1.32,5,1.32,5,1.14c3.36.74,6.7,1.54,10.07,2.24l10.15,1.85c3.37.68,6.79,1.1,10.19,1.6l5.11.74,2.55.36c.86.12,1.71.19,2.57.28l10.27,1.08,2.56.28,2.58.18,5.15.37,5.15.37,2.58.18,2.58.09,10.33.37,2.58.09H416.9c1.72,0,3.44,0,5.17-.07,6.89-.28,13.78-.33,20.66-.88A528.11,528.11,0,0,0,524.65,761c54-11.87,106.24-31.27,155.43-56.51s95.5-56,136.65-92.32a549.87,549.87,0,0,0,57.4-58.46,459.62,459.62,0,0,0,46.74-66.51,388.81,388.81,0,0,0,18.25-36A336.27,336.27,0,0,0,953,413.52c7.71-25.53,12-52,11.87-78.24a212.61,212.61,0,0,0-3.69-39.06l-.93-4.81-1.1-4.76-.55-2.39c-.19-.79-.43-1.57-.64-2.36l-1.29-4.72c-1.9-6.24-4-12.44-6.45-18.47a190.94,190.94,0,0,0-18.33-34.66,200.25,200.25,0,0,0-25.18-30.51c-18.82-18.74-41.55-33.94-66.23-45.74s-51.39-20.08-78.75-26.24h0a4.09,4.09,0,0,1,1.18-8.08Z" transform="translate(0 0)" style="fill: rgb(255, 255, 255);"/>
          </g>
          <g class="cls-6" style="mix-blend-mode: overlay;" transform="matrix(0.498884, 0, 0, 0.399437, 282.660126, 84.081276)">
            <path class="cls-1" d="M762.32,117.52" transform="translate(0 0)" style="fill: none;"/>
          </g>
          <g class="cls-6" style="mix-blend-mode: overlay;" transform="matrix(0.498884, 0, 0, 0.399437, 282.660126, 84.081276)">
            <path class="cls-7" d="M159.85,603.34a169.9,169.9,0,0,1-8.13-31.64c-.46-2.7-.77-5.42-1.11-8.14s-.58-5.45-.73-8.19-.39-5.47-.42-8.21l-.1-4.12,0-4.11c.2-22,4-43.8,10.1-64.78a295.52,295.52,0,0,1,11-30.83c2.11-5,4.27-10,6.62-14.92s4.8-9.75,7.36-14.54c1.29-2.39,2.55-4.79,3.91-7.14s2.63-4.74,4-7.05,2.77-4.66,4.22-6.95,2.86-4.6,4.35-6.85c5.87-9.1,12.12-17.92,18.65-26.51a516.24,516.24,0,0,1,42.26-48.82c7.51-7.68,15.16-15.22,23.06-22.49S300.8,273.6,309,266.71q24.63-20.71,51-39.3C377.52,215,395.6,203.34,414,192a13.39,13.39,0,1,1,14,22.81,14.69,14.69,0,0,1-1.35.73l-.1,0c-37.59,17.31-72.78,40-104.77,66.4-8,6.64-15.81,13.44-23.37,20.54s-14.94,14.37-22,21.92a494.17,494.17,0,0,0-39.56,47.7q-9.08,12.51-17.31,25.56c-1.39,2.16-2.71,4.37-4.05,6.56s-2.62,4.41-3.92,6.63c-2.58,4.43-5.1,8.89-7.51,13.41s-4.74,9.08-7,13.68c-1.13,2.3-2.19,4.62-3.29,6.93s-2.1,4.65-3.15,7c-4.11,9.34-7.69,18.89-10.9,28.54a274.65,274.65,0,0,0-12.89,59.39,224.26,224.26,0,0,0-1,30.46A238.18,238.18,0,0,0,169,600.88v0a4.75,4.75,0,0,1-9.14,2.41Z" transform="translate(0 0)" style="fill: rgb(255, 255, 255);"/>
          </g>
          <path class="cls-8" d="M 697.543 156.173 C 745.436 195.889 708.379 272.597 601.578 318.229 C 494.777 363.859 388.814 348.258 372.172 295.185 C 358.213 250.656 411.309 192.67 488.851 159.539 C 566.392 126.411 657.363 122.86 697.543 156.173 Z" style="fill: rgb(250, 223, 44);"/>
          <path class="cls-9" d="M 702.876 194.782 C 703.126 204.369 700.567 214.638 695.289 225.139 L 618.615 222.839 C 620.793 218.88 622.263 214.694 622.98 210.409 Z" style="fill: url(#linear-gradient-2);"/>
          <path class="cls-10" d="M 688.074 162.148 C 695.566 169.353 700.419 178.078 702.093 187.357 L 623.141 203.014 C 622.695 199.058 621.185 195.227 618.715 191.782 Z" style="fill: url(#linear-gradient-3);"/>
          <path class="cls-11" d="M 682.228 157.187 L 613.706 186.451 C 610.543 183.838 606.854 181.67 602.795 180.035 L 654.145 143.606 C 664.902 146.801 674.429 151.319 682.228 157.187 Z" style="fill: rgb(142, 212, 137);"/>
          <path class="cls-12" d="M 645.085 141.237 L 594.08 177.223 C 588.359 175.851 582.449 175.047 576.484 174.826 L 604.343 137.279 C 618.875 137.175 632.669 138.465 645.085 141.237 Z" style="fill: url(#linear-gradient-4);"/>
          <path class="cls-13" d="M 593.466 137.614 L 565.339 174.87 C 559.193 175.184 553.084 175.877 547.071 176.943 L 552.059 143.063 C 565.622 140.228 579.483 138.405 593.466 137.614 Z" style="fill: url(#linear-gradient-5);"/>
          <path class="cls-14" d="M 540.744 145.603 L 535.137 179.48 C 528.117 181.258 521.267 183.444 514.642 186.019 L 496.184 160.08 C 510.491 154.24 525.401 149.396 540.744 145.603 Z" style="fill: url(#linear-gradient-6);"/>
          <path class="cls-15" d="M 485.543 164.617 L 503.348 190.844 C 497.664 193.505 492.205 196.461 487.005 199.695 L 448.89 184.209 C 460.441 176.913 472.697 170.361 485.543 164.617 Z" style="fill: url(#linear-gradient-7);"/>
          <path class="cls-16" d="M 477.611 206.102 C 472.619 209.806 468.043 213.852 463.936 218.197 L 408.74 216.54 C 417.968 206.925 428.401 198.091 439.875 190.177 Z" style="fill: url(#linear-gradient-8);"/>
          <path class="cls-17" d="M 457.85 225.518 C 455.153 229.167 452.979 233.045 451.364 237.082 L 385.611 250.119 C 389.414 241.221 395.145 232.261 402.483 223.525 Z" style="fill: url(#linear-gradient-9);"/>
          <path class="cls-18" d="M 449.348 244.384 C 448.664 248.371 448.933 252.425 450.141 256.332 L 381.621 285.607 C 379.38 276.559 379.973 267.017 382.948 257.377 Z" style="fill: url(#linear-gradient-10);"/>
          <path class="cls-19" d="M 461.541 270.715 L 400.977 313.455 C 393.097 307.632 387.183 300.307 383.785 292.165 L 453.13 262.531 C 455.251 265.665 458.108 268.445 461.541 270.715 Z" style="fill: url(#linear-gradient-11);"/>
          <path class="cls-20" d="M 486.515 279.283 L 447.448 331.042 C 432.087 328.644 418.792 324.252 408.17 318.156 L 469.244 274.801 C 474.678 277.002 480.503 278.513 486.515 279.283 Z" style="fill: url(#linear-gradient-12);"/>
          <path class="cls-21" d="M 518.674 279.015 L 510.068 331.03 C 492.058 333.391 475.002 333.825 459.52 332.504 L 498.329 280.177 C 505.142 280.305 511.953 279.916 518.674 279.015 Z" style="fill: url(#linear-gradient-13);"/>
          <path class="cls-22" d="M 556.629 269.32 L 585.065 311.21 C 565.92 318.91 545.709 324.779 524.85 328.693 L 532.488 276.559 C 540.782 274.709 548.858 272.288 556.629 269.32 Z" style="fill: url(#linear-gradient-14);"/>
          <path class="cls-23" d="M 647.161 277.589 C 632.547 288.102 616.55 297.312 599.453 305.059 L 569.95 263.633 C 576.574 260.481 582.884 256.923 588.822 252.991 Z" style="fill: url(#linear-gradient-15);"/>
          <path class="cls-24" d="M 690.314 233.879 C 682.752 245.781 671.896 257.753 658.012 269.189 L 599.214 245.308 C 604.49 240.99 609.174 236.232 613.182 231.114 Z" style="fill: url(#linear-gradient-16);"/>
          <path class="cls-4" d="M 618.715 191.782 C 621.185 195.227 622.695 199.058 623.141 203.014 L 702.093 187.357 C 702.56 189.815 702.822 192.296 702.876 194.782 L 622.98 210.415 C 622.263 214.703 620.793 218.888 618.615 222.847 L 695.289 225.147 C 693.847 228.048 692.181 230.971 690.3 233.895 L 613.178 231.099 C 609.169 236.217 604.486 240.975 599.208 245.291 L 658.007 269.189 C 654.571 272.031 650.954 274.827 647.157 277.578 L 588.822 252.991 C 582.884 256.923 576.574 260.481 569.95 263.633 L 599.453 305.059 C 597.098 306.123 594.715 307.176 592.304 308.214 C 589.892 309.252 587.477 310.252 585.055 311.21 L 556.619 269.32 C 548.849 272.288 540.774 274.709 532.484 276.559 L 524.855 328.693 C 519.866 329.612 514.937 330.391 510.068 331.03 L 518.674 279.015 C 511.954 279.921 505.142 280.313 498.329 280.19 L 459.52 332.515 C 455.374 332.156 451.349 331.669 447.448 331.054 L 486.515 279.295 C 480.503 278.521 474.676 277.005 469.244 274.801 L 408.17 318.16 C 405.65 316.713 403.247 315.139 400.977 313.447 L 461.541 270.707 C 458.111 268.431 455.26 265.648 453.146 262.511 L 383.801 292.145 C 383.356 291.083 382.952 290 382.588 288.906 C 382.224 287.811 381.915 286.709 381.635 285.598 L 450.157 256.324 C 448.949 252.416 448.68 248.363 449.364 244.377 L 382.937 257.377 C 383.678 254.966 384.569 252.545 385.606 250.119 L 451.369 237.074 C 452.983 233.038 455.159 229.159 457.854 225.511 L 402.479 223.514 C 404.444 221.167 406.528 218.839 408.729 216.528 L 463.926 218.185 C 468.033 213.84 472.608 209.794 477.601 206.091 L 439.865 190.18 C 442.785 188.151 445.79 186.155 448.88 184.189 L 486.995 199.675 C 492.195 196.441 497.654 193.485 503.338 190.823 L 485.543 164.617 C 487.285 163.839 489.045 163.069 490.821 162.304 C 492.596 161.539 494.385 160.797 496.184 160.08 L 514.642 186.019 C 521.265 183.447 528.113 181.266 535.132 179.492 L 540.744 145.603 C 544.526 144.678 548.294 143.826 552.049 143.051 L 547.061 176.931 C 553.067 175.867 559.168 175.175 565.309 174.863 L 593.466 137.614 C 597.125 137.42 600.752 137.309 604.347 137.279 L 576.489 174.826 C 582.454 175.047 588.363 175.851 594.085 177.223 L 645.091 141.237 C 648.204 141.93 651.224 142.714 654.151 143.59 L 602.795 180.035 C 606.854 181.67 610.543 183.838 613.706 186.451 L 682.228 157.187 C 683.252 157.962 684.263 158.761 685.261 159.584 C 686.259 160.415 687.182 161.27 688.08 162.137 Z" style="fill: rgb(27, 40, 82);"/>
          <path class="cls-4" d="M 637.637 179.956 C 638.743 181.048 639.762 182.193 640.691 183.386 C 644 187.63 646.113 192.401 646.882 197.367 C 647.372 200.457 647.422 203.581 647.032 206.681 C 646.312 212.109 644.606 217.425 641.968 222.46 C 640.093 226.116 637.868 229.652 635.308 233.032 C 630.306 239.616 624.411 245.735 617.727 251.278 C 613.544 254.774 609.123 258.084 604.487 261.193 C 596.887 266.278 588.792 270.869 580.281 274.925 C 577.53 276.257 574.704 277.534 571.8 278.755 C 568.896 279.977 566.003 281.142 563.119 282.246 C 553.141 286.047 542.762 289.134 532.103 291.47 C 526.269 292.748 520.353 293.765 514.377 294.517 C 505.804 295.619 497.116 296.047 488.436 295.795 C 483.413 295.649 478.41 295.203 473.47 294.457 C 465.382 293.223 458.109 291.198 451.863 288.417 C 448.453 286.917 445.263 285.115 442.354 283.046 C 438.155 280.067 434.719 276.465 432.236 272.437 C 431.462 271.181 430.786 269.889 430.212 268.566 C 429.634 267.241 429.158 265.89 428.784 264.519 C 427.466 259.543 427.311 254.414 428.331 249.393 C 428.931 246.28 429.868 243.213 431.134 240.23 C 433.278 235.198 436.098 230.367 439.545 225.823 C 441.899 222.682 444.477 219.653 447.268 216.751 C 452.433 211.396 458.157 206.404 464.38 201.828 C 468.039 199.128 471.926 196.501 476.044 193.948 C 482.48 189.974 489.227 186.336 496.243 183.055 C 498.493 181.989 500.787 180.961 503.129 179.971 C 505.469 178.98 507.812 178.025 510.153 177.104 C 518.324 173.928 526.77 171.222 535.421 169.006 C 540.38 167.738 545.301 166.674 550.184 165.81 C 557.634 164.457 565.202 163.554 572.823 163.111 C 577.453 162.847 582.098 162.791 586.736 162.943 C 594.224 163.147 601.654 164.061 608.872 165.667 C 612.685 166.527 616.399 167.648 619.972 169.018 C 625.168 170.986 629.929 173.619 634.066 176.816 C 635.332 177.806 636.524 178.853 637.637 179.956 Z" style="fill: rgb(27, 40, 82);"/>
          <path class="cls-25" d="M 627.266 184.368 C 628.234 185.363 629.127 186.404 629.94 187.484 C 632.827 191.345 634.633 195.661 635.233 200.134 C 635.625 202.922 635.625 205.736 635.233 208.523 C 634.504 213.391 632.905 218.15 630.483 222.655 C 628.754 225.917 626.72 229.069 624.396 232.085 C 619.875 237.944 614.569 243.39 608.573 248.327 C 604.831 251.433 600.879 254.374 596.733 257.134 C 589.957 261.651 582.743 265.731 575.162 269.337 C 572.718 270.507 570.203 271.646 567.638 272.741 C 565.075 273.835 562.501 274.873 559.917 275.853 C 551.023 279.24 541.776 282.001 532.284 284.101 C 527.086 285.251 521.813 286.172 516.489 286.857 C 508.824 287.866 501.055 288.282 493.29 288.098 C 488.795 287.997 484.314 287.631 479.886 287.004 C 473.086 286.081 466.51 284.306 460.399 281.747 C 457.318 280.43 454.428 278.845 451.783 277.019 C 447.952 274.391 444.793 271.193 442.484 267.604 C 441.762 266.487 441.129 265.337 440.588 264.156 C 440.047 262.973 439.594 261.766 439.232 260.541 C 437.955 256.087 437.737 251.48 438.588 246.96 C 439.084 244.157 439.888 241.394 440.993 238.704 C 442.872 234.158 445.374 229.791 448.451 225.682 C 450.552 222.835 452.863 220.09 455.37 217.462 C 460.018 212.596 465.182 208.06 470.806 203.906 C 474.088 201.445 477.601 199.053 481.342 196.732 C 487.179 193.116 493.304 189.808 499.676 186.825 C 501.722 185.867 503.806 184.935 505.933 184.029 C 508.057 183.125 510.191 182.256 512.332 181.425 C 519.753 178.544 527.423 176.095 535.281 174.095 C 539.784 172.948 544.251 171.984 548.681 171.204 C 555.431 169.987 562.284 169.186 569.186 168.807 C 573.369 168.579 577.565 168.545 581.753 168.703 C 588.495 168.917 595.183 169.781 601.669 171.275 C 605.083 172.075 608.406 173.112 611.596 174.375 C 616.233 176.182 620.466 178.593 624.118 181.509 C 625.235 182.412 626.287 183.367 627.266 184.368 Z" style="fill: url(#linear-gradient-17);"/>
          <path class="cls-26" d="M 609.83 206.53 C 609.504 208.363 609.002 210.173 608.334 211.946 C 607.665 213.715 606.862 215.449 605.929 217.138 C 605.929 217.175 605.889 217.214 605.864 217.251 C 604.529 219.642 602.978 221.953 601.225 224.165 C 597.774 228.497 593.76 232.524 589.251 236.18 C 586.448 238.463 583.496 240.629 580.41 242.667 C 575.372 245.987 570.023 248.993 564.412 251.658 C 562.602 252.521 560.748 253.358 558.849 254.17 C 556.949 254.982 555.047 255.75 553.142 256.472 C 551.479 257.103 549.816 257.701 548.153 258.265 C 543.121 259.986 537.955 261.444 532.686 262.63 C 528.832 263.501 524.922 264.206 520.974 264.743 C 515.263 265.535 509.472 265.895 503.677 265.822 C 500.298 265.779 496.928 265.544 493.589 265.119 C 489.735 264.635 485.958 263.823 482.32 262.695 C 481.277 262.367 480.26 262.011 479.282 261.627 C 479.122 261.561 478.953 261.492 478.782 261.424 C 478.204 261.193 477.64 260.953 477.092 260.709 L 477.057 260.709 C 475.314 259.924 473.657 259.027 472.097 258.025 C 470.827 257.207 469.638 256.309 468.546 255.341 C 467.086 254.045 465.814 252.62 464.754 251.095 C 464.169 250.271 463.65 249.416 463.203 248.538 C 462.751 247.661 462.368 246.761 462.055 245.847 C 461.425 244.009 461.058 242.121 460.963 240.218 C 460.88 238.692 460.949 237.162 461.167 235.645 C 461.47 233.519 462.016 231.421 462.8 229.377 C 464.138 225.902 465.965 222.561 468.247 219.415 C 469.817 217.233 471.547 215.126 473.43 213.108 C 476.951 209.345 480.881 205.839 485.174 202.631 C 487.709 200.725 490.412 198.873 493.285 197.075 C 497.783 194.267 502.507 191.702 507.429 189.394 C 509.008 188.651 510.621 187.928 512.269 187.225 C 513.915 186.522 515.565 185.857 517.222 185.228 C 522.958 182.99 528.892 181.094 534.978 179.555 C 538.456 178.684 541.903 177.957 545.319 177.371 C 550.507 176.465 555.774 175.887 561.075 175.642 C 564.27 175.489 567.476 175.489 570.672 175.642 C 575.788 175.856 580.85 176.58 585.745 177.795 C 588.305 178.441 590.789 179.272 593.163 180.278 C 596.604 181.71 599.718 183.602 602.366 185.871 C 603.178 186.572 603.937 187.313 604.636 188.088 C 605.331 188.854 605.967 189.654 606.537 190.484 C 608.577 193.467 609.791 196.766 610.094 200.159 C 610.296 202.283 610.207 204.42 609.83 206.53 Z" style="fill: rgb(136, 209, 191); mix-blend-mode: multiply; stroke: rgb(136, 209, 136); stroke-miterlimit: 10;"/>
          <path class="cls-27" d="M 702.897 277.845 L 703.001 277.726 L 702.801 277.957 C 702.832 277.922 702.861 277.881 702.897 277.845 Z" style="fill: rgb(252, 149, 33);"/>
          <path class="cls-28" d="M 609.83 212.458 C 609.504 214.291 609.002 216.102 608.334 217.875 C 607.665 219.642 606.862 221.376 605.929 223.066 C 605.929 223.102 605.889 223.142 605.864 223.178 C 604.529 225.571 602.978 227.881 601.225 230.092 C 597.774 234.425 593.76 238.451 589.251 242.107 C 586.445 244.394 583.493 246.561 580.404 248.602 C 578.714 249.716 576.963 250.815 575.152 251.881 C 571.77 253.878 568.168 255.796 564.406 257.593 C 563.076 258.229 561.721 258.851 560.341 259.455 C 559.842 259.675 559.343 259.89 558.843 260.106 C 556.948 260.904 555.046 261.672 553.137 262.407 C 551.473 263.038 549.81 263.635 548.147 264.2 C 543.116 265.921 537.95 267.379 532.682 268.566 C 528.828 269.436 524.917 270.141 520.968 270.679 C 515.257 271.47 509.468 271.832 503.673 271.757 C 500.302 271.705 496.941 271.46 493.615 271.026 C 489.762 270.552 485.985 269.748 482.345 268.629 C 481.303 268.302 480.285 267.946 479.307 267.564 C 479.147 267.495 478.977 267.428 478.807 267.359 C 478.23 267.128 477.666 266.888 477.116 266.645 L 477.082 266.645 C 475.34 265.86 473.681 264.962 472.123 263.96 C 470.852 263.144 469.664 262.246 468.57 261.277 C 467.102 259.978 465.821 258.552 464.754 257.022 C 464.169 256.198 463.65 255.344 463.203 254.466 C 462.751 253.588 462.368 252.689 462.055 251.773 C 461.425 249.937 461.058 248.049 460.963 246.145 C 460.88 244.619 460.949 243.09 461.167 241.572 C 461.47 239.448 462.016 237.35 462.8 235.305 C 464.138 231.83 465.965 228.487 468.247 225.343 C 469.818 223.154 471.552 221.04 473.439 219.016 C 476.96 215.253 480.891 211.747 485.184 208.539 C 487.718 206.635 490.422 204.783 493.296 202.983 C 497.793 200.174 502.518 197.609 507.439 195.301 C 509.018 194.558 510.631 193.835 512.279 193.132 C 513.925 192.429 515.575 191.764 517.232 191.136 C 522.97 188.912 528.904 187.028 534.986 185.503 C 538.466 184.632 541.913 183.905 545.329 183.318 C 550.517 182.412 555.784 181.834 561.085 181.589 C 564.28 181.436 567.486 181.436 570.682 181.589 C 575.798 181.803 580.86 182.527 585.754 183.742 C 588.315 184.388 590.799 185.22 593.172 186.226 C 596.615 187.659 599.728 189.548 602.376 191.819 C 603.188 192.519 603.947 193.26 604.646 194.035 C 605.341 194.802 605.977 195.603 606.547 196.431 C 608.587 199.415 609.801 202.714 610.104 206.106 C 610.3 208.224 610.209 210.354 609.83 212.458 Z" style="fill: url(#linear-gradient-18);"/>
          <path class="cls-29" d="M 548.172 264.188 C 543.141 265.91 537.974 267.368 532.707 268.554 C 528.852 269.425 524.941 270.129 520.994 270.667 C 515.283 271.458 509.492 271.82 503.697 271.745 C 500.319 271.696 496.95 271.456 493.615 271.026 C 489.762 270.552 485.985 269.748 482.345 268.629 L 507.898 225.891 L 512.548 214.335 L 527.24 223.521 Z" style="fill: rgb(254, 244, 38); opacity: 0.8;"/>
          <g class="cls-30" style="mix-blend-mode: overlay; opacity: 0.5;" transform="matrix(0.498884, 0, 0, 0.399437, 282.660126, 84.081276)">
            <path class="cls-7" d="M980.88,167.11a182.11,182.11,0,0,1,34.34,25.59c2.69,2.41,5.15,5,7.73,7.58s5,5.26,7.31,8,4.73,5.52,6.91,8.43c1.1,1.45,2.24,2.88,3.31,4.35l3.18,4.45A220.34,220.34,0,0,1,1078.21,306c.42,1.79.74,3.6,1.07,5.41l1,5.42.81,5.45c.27,1.82.53,3.64.72,5.46l.61,5.47c.22,1.83.32,3.66.48,5.48s.31,3.66.41,5.49l.23,5.49.12,2.74,0,2.75.07,5.48c0,1.83-.06,3.66-.08,5.48s0,3.66-.15,5.48l-.3,5.47-.15,2.73-.23,2.72c-.3,3.63-.58,7.27-1,10.88a318.23,318.23,0,0,1-8,42.73,360.32,360.32,0,0,1-13.41,41,400.36,400.36,0,0,1-17.78,39q-9.84,19-21.33,36.91t-24.23,34.82c-8.52,11.25-17.35,22.23-26.61,32.82-18.55,21.11-37.82,41.64-59.43,59.51a541.44,541.44,0,0,1-68,48.81,4.36,4.36,0,0,1-5.09-7l0,0c21-17.84,41.42-36,60.67-55.29,2.43-2.39,4.82-4.81,7.2-7.25s4.79-4.82,7.13-7.28,4.79-4.82,7.11-7.3l7-7.37L934,630l6.75-7.61q6.69-7.67,13-15.61c8.43-10.6,16.54-21.43,24.08-32.63s14.63-22.66,21.16-34.4S1011.57,516,1017,503.83s10.18-24.66,14.41-37.22a363.32,363.32,0,0,0,16.91-76.92,280,280,0,0,0-2.23-77.46,256.37,256.37,0,0,0-24.39-73.37,269.63,269.63,0,0,0-20.51-33.8,340.21,340.21,0,0,0-25.41-31.57l0,0a4.15,4.15,0,0,1,5.15-6.36Z" transform="translate(0 0)" style="fill: rgb(255, 255, 255);"/>
          </g>
          <g class="cls-30" style="mix-blend-mode: overlay; opacity: 0.5;" transform="matrix(0.498884, 0, 0, 0.399437, 282.660126, 84.081276)">
            <path class="cls-7" d="M548.37,868.2C499.43,879.61,448.77,885,398,883.07c-3.17-.14-6.35-.19-9.52-.4L379,882l-4.76-.35c-1.58-.12-3.17-.21-4.75-.41l-9.5-1.07-4.74-.55-2.38-.28-2.36-.36L341,877.49c-6.32-.86-12.58-2.24-18.86-3.42a381.9,381.9,0,0,1-73.61-22.5c-5.92-2.59-11.89-5-17.66-8l-8.7-4.32-8.5-4.74c-5.74-3-11.16-6.68-16.69-10.1l-2.07-1.29-2-1.4-4-2.81-4-2.81c-1.32-1-2.7-1.83-4-2.87l-7.72-6.06c-1.27-1-2.58-2-3.83-3l-3.7-3.25-7.37-6.49-7-6.92L147.84,784c-1.15-1.18-2.21-2.44-3.32-3.65L138,773c-2.14-2.5-4.13-5.13-6.19-7.7s-4.13-5.13-5.95-7.88l-5.64-8.12c-1-1.33-1.78-2.78-2.65-4.18L115,740.86c-3.56-5.56-6.47-11.5-9.53-17.34-.37-.74-.77-1.46-1.11-2.21l-1-2.26-2-4.53-2-4.53-1-2.26-.85-2.32c-2.24-6.2-4.66-12.33-6.35-18.7L89.76,682c-.44-1.58-1-3.14-1.32-4.75l-1.15-4.79-.57-2.39-.49-2.41-1-4.83c-.34-1.6-.57-3.23-.85-4.84s-.55-3.23-.79-4.85L83,648.25a257.85,257.85,0,0,1-2-39,311.88,311.88,0,0,1,11.68-76.29,402.8,402.8,0,0,1,27.68-71.08,510.31,510.31,0,0,1,38.79-65A612.93,612.93,0,0,1,206,338c8.38-9.32,17.06-18.35,25.83-27.27l6.6-6.68c2.18-2.24,4.47-4.38,6.66-6.61s4.45-4.39,6.7-6.58l3.37-3.27,3.41-3.22c4.53-4.32,9.17-8.52,13.82-12.71l7.08-6.18c2.38-2,4.78-4,7.19-6,9.68-8,19.71-15.45,30-22.6l7.71-5.34,7.81-5.19c5.23-3.42,10.48-6.8,15.83-10.05,10.64-6.54,21.41-12.86,32.42-18.72a572.76,572.76,0,0,1,67.81-31.23,4.37,4.37,0,0,1,3.73,7.87h0c-10.66,6.14-21.25,12.29-31.69,18.67s-20.75,12.92-31,19.58l-7.62,5.06c-2.51,1.72-5,3.46-7.54,5.15s-5,3.46-7.52,5.19-5,3.5-7.45,5.27-4.95,3.54-7.38,5.36-4.92,3.57-7.34,5.4l-7.28,5.48L330,254.94c-9.57,7.49-19,15.09-28.44,22.72-2.33,1.93-4.69,3.83-7.06,5.73l-7,5.8c-4.66,3.88-9.31,7.78-13.87,11.77l-3.44,3-3.39,3c-2.26,2-4.54,4-6.75,6.1-4.47,4.1-8.81,8.34-13.14,12.59-8.58,8.57-16.74,17.55-24.7,26.68A570.64,570.64,0,0,0,178,409.84a477,477,0,0,0-35.52,62.72,377.09,377.09,0,0,0-24.12,67.18,285.39,285.39,0,0,0-8.82,69.76c0,46.59,14.36,92.41,41.93,129.11,1.6,2.37,3.47,4.56,5.28,6.78s3.59,4.47,5.49,6.63l5.85,6.33c1,1,1.92,2.13,2.94,3.14l3.11,3,6.21,6,6.56,5.65,3.27,2.84c1.11.92,2.28,1.77,3.42,2.66l6.87,5.3c18.66,13.75,39.34,24.85,60.91,34,1.35.57,2.67,1.21,4,1.72l4.12,1.57,8.24,3.14c2.75,1,5.58,1.88,8.36,2.83s5.58,1.89,8.4,2.75l8.52,2.42c2.84.79,5.65,1.69,8.54,2.35l8.61,2.13,4.31,1.07,4.36.89c5.81,1.16,11.58,2.51,17.47,3.37l8.79,1.45,2.2.37,2.21.28,4.43.56,8.85,1.15c1.48.22,3,.34,4.45.48l4.45.42,8.9.85c3,.27,6,.37,8.94.57,47.72,2.95,96-.58,143.67-8.43h.07a12.9,12.9,0,0,1,5,25.3Z" transform="translate(0 0)" style="fill: rgb(255, 255, 255);"/>
          </g>
          <path class="cls-29" d="M 575.158 251.854 C 571.774 253.851 568.173 255.768 564.412 257.565 C 563.08 258.201 561.725 258.822 560.345 259.426 L 532.193 218.865 L 535.56 213.583 Z" style="fill: rgb(254, 244, 38); opacity: 0.8;"/>
          <g class="cls-30" style="mix-blend-mode: overlay; opacity: 0.5;" transform="matrix(0.498884, 0, 0, 0.399437, 282.660126, 84.081276)">
            <path class="cls-7" d="M582.5,91.14a643.51,643.51,0,0,1,64.9-15.08l8.21-1.47c2.74-.47,5.49-.88,8.24-1.3,5.51-.79,11-1.71,16.53-2.34l8.28-1c2.76-.36,5.53-.68,8.3-.92,5.55-.51,11.09-1.08,16.64-1.53a655.16,655.16,0,0,1,133.67,2.71A509.74,509.74,0,0,1,913.2,82.93,445.09,445.09,0,0,1,976.8,105c2.6,1,5.12,2.33,7.67,3.5l7.62,3.62c2.52,1.25,5,2.61,7.49,3.91s5,2.6,7.44,4,4.87,2.84,7.28,4.29,4.87,2.82,7.2,4.42l7.06,4.63c1.17.78,2.36,1.53,3.51,2.34l3.41,2.5,6.79,5c1.15.81,2.23,1.72,3.32,2.6l3.28,2.67c2.16,1.79,4.35,3.55,6.47,5.4l6.23,5.69c2.08,1.89,4.14,3.79,6.06,5.84l5.86,6c2,2,3.74,4.18,5.59,6.29s3.62,4.26,5.4,6.42a3.51,3.51,0,0,1-5.07,4.82l-.06-.06c-32.13-29.41-69.28-52-109.21-68.2a438.9,438.9,0,0,0-61.54-19.78,567.52,567.52,0,0,0-63.75-11.78A646.63,646.63,0,0,0,780,84.22q-32.53-.9-65.14,1.25c-5.43.34-10.85.81-16.27,1.2-2.71.18-5.42.48-8.13.73l-8.12.77c-5.43.45-10.82,1.18-16.23,1.79-2.7.34-5.42.59-8.12,1L649.92,92c-21.6,2.93-43.12,6.61-64.61,10.72h0a6,6,0,0,1-2.79-11.6Z" transform="translate(0 0)" style="fill: rgb(255, 255, 255);"/>
          </g>
          <g class="cls-30" style="mix-blend-mode: overlay; opacity: 0.5;" transform="matrix(0.498884, 0, 0, 0.399437, 282.660126, 84.081276)">
            <path class="cls-7" d="M72.87,812.61a175,175,0,0,1-19.13-25.7A207.63,207.63,0,0,1,39,758.17c-2.05-5-4-10-5.72-15.2-.84-2.56-1.74-5.12-2.52-7.71s-1.53-5.19-2.22-7.8a241.41,241.41,0,0,1-6.24-31.84,294.72,294.72,0,0,1-.64-64.56,339,339,0,0,1,12.28-62.82,439.16,439.16,0,0,1,22.28-59.33,590.89,590.89,0,0,1,29.12-55.64,607.7,607.7,0,0,1,34.49-52q9.3-12.48,19.18-24.47c6.61-8,13.38-15.78,20.37-23.38a3.51,3.51,0,0,1,5.41,4.46c-6.06,8.24-12,16.54-17.72,25s-11.29,17-16.62,25.62A587.58,587.58,0,0,0,101,461.7,470.41,470.41,0,0,0,62.43,575.3c-7.78,38.87-11,78.18-7.63,116.89.36,4.84.88,9.67,1.44,14.49.26,2.42.59,4.82.9,7.23s.67,4.82,1,7.22.77,4.81,1.19,7.2.85,4.81,1.3,7.2c1,4.76,2,9.53,3.22,14.26,2.34,9.49,5.15,18.9,8.35,28.29s6.86,18.68,10.68,28.13l0,.07a6,6,0,0,1-10.09,6.33Z" transform="translate(0 0)" style="fill: rgb(255, 255, 255);"/>
          </g>
          <g class="cls-30" style="mix-blend-mode: overlay; opacity: 0.5;" transform="matrix(0.498884, 0, 0, 0.399437, 282.660126, 84.081276)">
            <path class="cls-7" d="M1080.41,615.19a658.9,658.9,0,0,1-39.68,57.35l-10.83,13.71-11.28,13.34-2.83,3.34-2.92,3.25-5.86,6.49-5.86,6.49c-2,2.16-4,4.22-6,6.33-16,17-33,33-50.53,48.47L931.3,785.42c-4.49,3.74-9.06,7.38-13.59,11.08L910.9,802l-7,5.33L890,818l-14.25,10.24c-2.39,1.7-4.75,3.43-7.15,5.1l-7.28,4.91-14.57,9.82-14.83,9.42-7.41,4.73L817,866.78l-15,9.14q-15.16,8.93-31,16.66l-8,3.74c-2.65,1.27-5.35,2.41-8,3.61-5.35,2.42-10.76,4.68-16.18,6.94l-8.15,3.31-8.21,3.18c-2.73,1.07-5.49,2.07-8.23,3.11L710,918l-4.15,1.45c-5.53,2-11.1,3.81-16.66,5.66s-11.2,3.5-16.82,5.15c-11.27,3.24-22.6,6.26-34.08,8.71a13,13,0,0,1-7.64-24.65h0c21-8.67,41.92-17.3,62.53-26.58s40.94-19,61.11-29.07c10.1-5,20.26-9.92,30.44-14.81L800,836.34l7.6-3.77,7.45-4,14.9-8.1,14.67-8.52,7.33-4.28c2.43-1.45,4.81-3,7.22-4.46l14.41-9,14.15-9.37,7.08-4.7,6.93-4.9c4.61-3.29,9.28-6.52,13.86-9.85l13.57-10.23c17.92-13.87,35.52-28.24,52.12-43.74a662.57,662.57,0,0,0,90.57-101.87l0,0a5.13,5.13,0,0,1,8.55,5.67Z" transform="translate(0 0)" style="fill: rgb(255, 255, 255);"/>
          </g>
          <g class="cls-6" style="mix-blend-mode: overlay;" transform="matrix(0.498884, 0, 0, 0.399437, 282.660126, 84.081276)">
            <line class="cls-31" x1="717.04" y1="835.28" x2="717.04" y2="835.28" style="fill: none; stroke: rgb(255, 255, 255); stroke-linecap: round; stroke-miterlimit: 10; stroke-width: 10px;"/>
            <path class="cls-32" d="M745.48,825.25C793.75,805.68,896,753.38,993.85,633.68" transform="translate(0 0)" style="fill: none; stroke: rgb(255, 255, 255); stroke-dasharray: 0px, 30.17px; stroke-linecap: round; stroke-miterlimit: 10; stroke-width: 10px;"/>
            <line class="cls-31" x1="1003.28" y1="621.91" x2="1003.28" y2="621.91" style="fill: none; stroke: rgb(255, 255, 255); stroke-linecap: round; stroke-miterlimit: 10; stroke-width: 10px;"/>
          </g>
          <path class="cls-33" d="M 748.943 199.695 C 748.943 199.695 765.193 243.066 718.152 288.151" style="fill: none; mix-blend-mode: overlay; stroke: rgb(255, 255, 255); stroke-dasharray: 0px, 30px; stroke-linecap: round; stroke-miterlimit: 10; stroke-width: 10px;"/>
          <path class="cls-34" d="M 317.214 259.443 C 317.214 259.443 352.426 212.025 402.349 187.888" style="fill: none; mix-blend-mode: overlay; stroke: rgb(255, 255, 255); stroke-dasharray: 0px, 21px; stroke-linecap: round; stroke-miterlimit: 10; stroke-width: 5px;"/>
          <path class="cls-35" d="M 383.84 295.472 C 371.304 254.673 421.167 201.076 493.49 170.177 C 565.813 139.276 650.339 135.458 687.331 165.807 C 692.717 170.193 697.084 175.313 700.227 180.926 C 697.345 172.324 691.733 164.467 683.934 158.118 C 646.936 127.76 562.421 131.588 490.092 162.491 C 417.764 193.396 367.896 246.985 380.443 287.802 C 381.347 290.756 382.586 293.635 384.144 296.407 C 384.035 296.084 383.935 295.792 383.84 295.472 Z" style="fill: url(#linear-gradient-19);"/>
          <path class="cls-36" d="M 549.589 204.887 C 549.346 206.201 548.876 207.48 548.192 208.69 C 547.707 209.562 547.143 210.404 546.507 211.211 C 545.265 212.758 543.825 214.197 542.211 215.504 C 541.204 216.326 540.145 217.104 539.039 217.838 C 537.23 219.039 535.31 220.128 533.296 221.097 C 532.647 221.408 531.979 221.708 531.3 222 C 530.622 222.292 529.939 222.567 529.255 222.827 C 528.572 223.087 527.913 223.323 527.259 223.545 L 527.259 223.545 C 525.533 224.13 523.761 224.626 521.956 225.031 C 520.574 225.343 519.172 225.596 517.756 225.79 C 515.708 226.078 513.63 226.211 511.549 226.189 C 510.338 226.174 509.128 226.089 507.933 225.934 C 506.086 225.712 504.293 225.266 502.614 224.612 C 501.763 224.273 500.957 223.862 500.214 223.386 C 499.145 222.701 498.25 221.859 497.576 220.906 C 497.366 220.611 497.179 220.305 497.017 219.99 C 496.856 219.674 496.72 219.352 496.608 219.024 C 496.208 217.831 496.1 216.587 496.289 215.361 C 496.334 215.038 496.398 214.71 496.479 214.382 C 498.564 204.145 498.877 194.81 495.286 184.297 C 493.993 180.558 492.345 176.902 490.357 173.364 C 490.227 173.121 490.088 172.877 489.948 172.629 L 501.421 166.43 L 502.48 167.628 C 521.826 189.17 539.398 193.431 543.658 195.509 C 544.893 196.021 546.008 196.696 546.961 197.506 C 547.541 198.009 548.044 198.565 548.457 199.164 C 549.188 200.234 549.621 201.418 549.729 202.635 C 549.786 203.388 549.738 204.143 549.589 204.887 Z" style="fill: url(#linear-gradient-20);"/>
          <path class="cls-29" d="M 503.298 184.285 C 502.151 182.355 498.494 183.418 499.173 185.483 C 501.128 191.415 502.664 197.99 502.769 204.189 C 503.029 219.499 513.745 213.976 511.509 204.768 C 510.467 200.486 509.868 195.345 503.298 184.285 Z" style="fill: rgb(254, 244, 38); opacity: 0.8;"/>
          <path class="cls-37" d="M 549.589 204.887 C 549.346 206.201 548.876 207.48 548.192 208.69 C 547.707 209.562 547.143 210.404 546.507 211.211 C 545.265 212.758 543.825 214.197 542.211 215.504 C 541.204 216.326 540.145 217.104 539.039 217.838 C 537.23 219.039 535.31 220.128 533.296 221.097 C 532.647 221.408 531.979 221.708 531.3 222 C 530.622 222.292 529.939 222.567 529.255 222.827 C 528.572 223.087 527.913 223.323 527.259 223.545 C 540.171 217.534 531.964 205.104 521.537 193.875 C 511.111 182.648 503.079 179.548 495.271 184.289 C 495.271 184.289 492.567 184.349 492.353 184.289 C 492.138 184.228 487.404 174.762 487.404 174.762 L 490.342 173.372 L 502.455 167.632 C 521.801 189.174 539.372 193.436 543.632 195.513 C 544.867 196.024 545.983 196.699 546.935 197.51 C 547.517 198.012 548.019 198.569 548.433 199.168 C 549.163 200.239 549.597 201.422 549.705 202.639 C 549.768 203.39 549.729 204.143 549.589 204.887 Z" style="fill: rgb(251, 93, 29);"/>
          <polygon class="cls-38" points="568.732 162.516 565.08 173.449 499.895 175.35 483.118 201.364 473.46 216.344 455.829 215.001 469.15 196.491 469.15 196.488 469.154 196.488 484.031 175.812 438.158 177.152 445.881 168.886 490.692 166.561 505.089 146.554 509.514 140.407 523.437 138.845 519.586 144.817 506.076 165.763 568.732 162.516" style="fill: url(#linear-gradient-21);"/>
          <path class="cls-37" d="M 519.586 144.804 L 506.076 165.752 C 506.076 165.752 502.29 164.981 499.652 168.604 C 498.103 170.698 498.199 173.319 499.895 175.337 L 483.118 201.364 L 476.583 205.966 L 469.15 196.491 L 469.15 196.491 C 475.895 196.411 481.088 193.472 489.908 179.736 C 498.728 165.998 502.44 161.281 506.646 155.241 C 510.851 149.203 505.084 146.559 505.084 146.559 L 518.554 143.598 Z" style="fill: rgb(251, 93, 29);"/>
          <circle class="cls-39" cx="373.82" cy="319.6" r="38.21" style="fill: url(#radial-gradient);" transform="matrix(0.498884, 0, 0, 0.399437, 282.660126, 84.081276)"/>
          <circle class="cls-40" cx="552.69" cy="213.1" r="33.13" style="fill: url(#radial-gradient-2);" transform="matrix(0.498884, 0, 0, 0.399437, 282.660126, 84.081276)"/>
          <circle class="cls-41" cx="465.02" cy="136.28" r="27.78" style="fill: url(#radial-gradient-3);" transform="matrix(0.498884, 0, 0, 0.399437, 282.660126, 84.081276)"/>
          <circle class="cls-42" cx="319.69" cy="218.46" r="27.78" style="fill: url(#radial-gradient-4);" transform="matrix(0.498884, 0, 0, 0.399437, 282.660126, 84.081276)"/>
          <circle class="cls-29" cx="358.37" cy="313.83" r="10.76" style="fill: rgb(254, 244, 38); opacity: 0.8;" transform="matrix(0.498884, 0, 0, 0.399437, 282.660126, 84.081276)"/>
          <circle class="cls-29" cx="543" cy="208.01" r="10.76" style="fill: rgb(254, 244, 38); opacity: 0.8;" transform="matrix(0.498884, 0, 0, 0.399437, 282.660126, 84.081276)"/>
          <circle class="cls-29" cx="454.51" cy="126.58" r="7.01" style="fill: rgb(254, 244, 38); opacity: 0.8;" transform="matrix(0.498884, 0, 0, 0.399437, 282.660126, 84.081276)"/>
          <circle class="cls-29" cx="306.27" cy="213.1" r="7.01" style="fill: rgb(254, 244, 38); opacity: 0.8;" transform="matrix(0.498884, 0, 0, 0.399437, 282.660126, 84.081276)"/>
        </g>
      </g>
    </g>
  </g>
</svg>