<?xml version="1.0" encoding="utf-8"?>
<svg xmlns="http://www.w3.org/2000/svg" xmlns:xlink="http://www.w3.org/1999/xlink" style="margin: auto; display: block; z-index: 1; position: relative; shape-rendering: auto; background: none;" width="1005" height="818" preserveAspectRatio="xMidYMid" viewBox="0 0 1005 818">
<g transform="translate(502.5,409) scale(1,1) translate(-502.5,-409)"><path id="path0" d="M 60.482326942594156 722.4143561734901
c 0 32.48746295502615 -7.949060084740441 9.331505316869215 -17.280565401609657 9.331505316869215
S 25.921196139374842 754.9018191285162 25.921196139374842 722.4143561734901
s 7.949060084740441 -9.331505316869215 17.280565401609657 -9.331505316869215
S 60.482326942594156 689.926893218464 60.482326942594156 722.4143561734901
z" fill="none" stroke="none"></path>
<circle cx="0" cy="0" r="1.6637594016580328" fill="#9bcc31">
  <animateMotion begin="-6.476382376461576s" dur="10s" repeatCount="indefinite">
    <mpath xlink:href="#path0"></mpath>
  </animateMotion>
</circle><path id="path1" d="M 101.66662331843945 712.3009271561662
c 0 19.701375235453906 -4.820549259738721 5.6589056527367605 -10.47945491247548 5.6589056527367605
S 80.7077134934885 732.0023023916201 80.7077134934885 712.3009271561662
s 4.820549259738721 -5.6589056527367605 10.47945491247548 -5.6589056527367605
S 101.66662331843945 692.5995519207122 101.66662331843945 712.3009271561662
z" fill="none" stroke="none"></path>
<circle cx="0" cy="0" r="2.8949571184611607" fill="#f5b70f">
  <animateMotion begin="-7.329519328865828s" dur="10s" repeatCount="indefinite">
    <mpath xlink:href="#path1"></mpath>
  </animateMotion>
</circle><path id="path2" d="M 122.35483344700894 688.1882103623209
c 0 25.089061112220296 -6.138812825330498 7.206432447127106 -13.345245272457603 7.206432447127106
S 95.66434290209374 713.2772714745412 95.66434290209374 688.1882103623209
s 6.138812825330498 -7.206432447127106 13.345245272457603 -7.206432447127106
S 122.35483344700894 663.0991492501006 122.35483344700894 688.1882103623209
z" fill="none" stroke="none"></path>
<circle cx="0" cy="0" r="1.9909055871560417" fill="#e7e0c9">
  <animateMotion begin="-8.732968657337302s" dur="10s" repeatCount="indefinite">
    <mpath xlink:href="#path2"></mpath>
  </animateMotion>
</circle><path id="path3" d="M 690.9507538245373 498.3428970243087
c 0 35.34384248933594 -8.647961460156665 10.151954757575217 -18.799916217731884 10.151954757575217
S 653.3509213890736 533.6867395136446 653.3509213890736 498.3428970243087
s 8.647961460156665 -10.151954757575217 18.799916217731884 -10.151954757575217
S 690.9507538245373 462.99905453497274 690.9507538245373 498.3428970243087
z" fill="none" stroke="none"></path>
<circle cx="0" cy="0" r="2.0661598959052077" fill="#cc0505">
  <animateMotion begin="-6.4819056660247405s" dur="10s" repeatCount="indefinite">
    <mpath xlink:href="#path3"></mpath>
  </animateMotion>
</circle><path id="path4" d="M 912.1578342771804 747.1477208157977
c 0 30.689345684745092 -7.5090952207354995 8.815024824341675 -16.324120045077176 8.815024824341675
S 879.5095941870261 777.8370665005427 879.5095941870261 747.1477208157977
s 7.5090952207354995 -8.815024824341675 16.324120045077176 -8.815024824341675
S 912.1578342771804 716.4583751310527 912.1578342771804 747.1477208157977
z" fill="none" stroke="none"></path>
<circle cx="0" cy="0" r="1.9860644116225" fill="#089ccc">
  <animateMotion begin="-8.864525464272543s" dur="10s" repeatCount="indefinite">
    <mpath xlink:href="#path4"></mpath>
  </animateMotion>
</circle><path id="path5" d="M 661.7922331452205 346.13917591964486
c 0 35.593376617790575 -8.709017683076416 10.22362945404623 -18.932647137122647 10.22362945404623
S 623.9269388709752 381.7325525374354 623.9269388709752 346.13917591964486
s 8.709017683076416 -10.22362945404623 18.932647137122647 -10.22362945404623
S 661.7922331452205 310.5457993018543 661.7922331452205 346.13917591964486
z" fill="none" stroke="none"></path>
<circle cx="0" cy="0" r="2.592632039633321" fill="#089ccc">
  <animateMotion begin="-2.845385703622967s" dur="10s" repeatCount="indefinite">
    <mpath xlink:href="#path5"></mpath>
  </animateMotion>
</circle><path id="path6" d="M 438.6212609490467 189.92569404187333
c 0 28.436474431442534 -6.957860765140194 8.167923506903707 -15.125784272043902 8.167923506903707
S 408.36969240495887 218.36216847331588 408.36969240495887 189.92569404187333
s 6.957860765140194 -8.167923506903707 15.125784272043902 -8.167923506903707
S 438.6212609490467 161.48921961043078 438.6212609490467 189.92569404187333
z" fill="none" stroke="none"></path>
<circle cx="0" cy="0" r="2.3007417217362174" fill="#f5b70f">
  <animateMotion begin="-6.171594621762344s" dur="10s" repeatCount="indefinite">
    <mpath xlink:href="#path6"></mpath>
  </animateMotion>
</circle><path id="path7" d="M 348.6116224858185 100.6634440229959
c 0 36.173935719208444 -8.851069378104194 10.390385791687532 -19.241455169791728 10.390385791687532
S 310.12871214623505 136.83737974220435 310.12871214623505 100.6634440229959
s 8.851069378104194 -10.390385791687532 19.241455169791728 -10.390385791687532
S 348.6116224858185 64.48950830378746 348.6116224858185 100.6634440229959
z" fill="none" stroke="none"></path>
<circle cx="0" cy="0" r="2.560347379909903" fill="#9bcc31">
  <animateMotion begin="-4.406348753335996s" dur="10s" repeatCount="indefinite">
    <mpath xlink:href="#path7"></mpath>
  </animateMotion>
</circle><path id="path8" d="M 349.83239638368485 532.9410461931835
c 0 29.91371809009849 -7.319314000768778 8.592238174815524 -15.911552175584303 8.592238174815524
S 318.00929203251627 562.8547642832821 318.00929203251627 532.9410461931835
s 7.319314000768778 -8.592238174815524 15.911552175584303 -8.592238174815524
S 349.83239638368485 503.02732810308504 349.83239638368485 532.9410461931835
z" fill="none" stroke="none"></path>
<circle cx="0" cy="0" r="1.9756830380956671" fill="#f5b70f">
  <animateMotion begin="-6.577237073679143s" dur="10s" repeatCount="indefinite">
    <mpath xlink:href="#path8"></mpath>
  </animateMotion>
</circle><path id="path9" d="M 523.0227770884542 494.9026568899964
c 0 19.363307611845403 -4.737830585877066 5.561801122551339 -10.299631708428405 5.561801122551339
S 502.4235136715974 514.2659645018418 502.4235136715974 494.9026568899964
s 4.737830585877066 -5.561801122551339 10.299631708428405 -5.561801122551339
S 523.0227770884542 475.539349278151 523.0227770884542 494.9026568899964
z" fill="none" stroke="none"></path>
<circle cx="0" cy="0" r="2.293601685341565" fill="#cc0505">
  <animateMotion begin="-8.531856257450091s" dur="10s" repeatCount="indefinite">
    <mpath xlink:href="#path9"></mpath>
  </animateMotion>
</circle><path id="path10" d="M 247.51677602194385 435.1400712595032
c 0 25.44502239405879 -6.225909734716512 7.308676645101993 -13.534586379818505 7.308676645101993
S 220.44760326230684 460.585093653562 220.44760326230684 435.1400712595032
s 6.225909734716512 -7.308676645101993 13.534586379818505 -7.308676645101993
S 247.51677602194385 409.6950488654444 247.51677602194385 435.1400712595032
z" fill="none" stroke="none"></path>
<circle cx="0" cy="0" r="1.8023074213108674" fill="#cc0505">
  <animateMotion begin="-7.692193349479082s" dur="10s" repeatCount="indefinite">
    <mpath xlink:href="#path10"></mpath>
  </animateMotion>
</circle><path id="path11" d="M 985.1387059111056 54.563533415808024
c 0 30.406005106988456 -7.439767207029089 8.73363976477328 -16.17340697180237 8.73363976477328
S 952.7918919675009 84.96953852279648 952.7918919675009 54.563533415808024
s 7.439767207029089 -8.73363976477328 16.17340697180237 -8.73363976477328
S 985.1387059111056 24.15752830881957 985.1387059111056 54.563533415808024
z" fill="none" stroke="none"></path>
<circle cx="0" cy="0" r="1.7748209456431" fill="#e7e0c9">
  <animateMotion begin="-2.1372602186700984s" dur="10s" repeatCount="indefinite">
    <mpath xlink:href="#path11"></mpath>
  </animateMotion>
</circle><path id="path12" d="M 168.68796398321916 27.12580245457776
c 0 19.52503803081758 -4.777402922434089 5.60825560459654 -10.385658527030628 5.60825560459654
S 147.91664692915788 46.650840485395335 147.91664692915788 27.12580245457776
s 4.777402922434089 -5.60825560459654 10.385658527030628 -5.60825560459654
S 168.68796398321916 7.600764423760179 168.68796398321916 27.12580245457776
z" fill="none" stroke="none"></path>
<circle cx="0" cy="0" r="1.9194628763824664" fill="#f5b70f">
  <animateMotion begin="-2.448848628573259s" dur="10s" repeatCount="indefinite">
    <mpath xlink:href="#path12"></mpath>
  </animateMotion>
</circle><path id="path13" d="M 393.62372399645886 3.9159889820046683
c 0 37.386757696958234 -9.147823691808929 10.738749551253962 -19.88657324306289 10.738749551253962
S 353.85057751033304 41.302746678962905 353.85057751033304 3.9159889820046683
s 9.147823691808929 -10.738749551253962 19.88657324306289 -10.738749551253962
S 393.62372399645886 -33.470768714953564 393.62372399645886 3.9159889820046683
z" fill="none" stroke="none"></path>
<circle cx="0" cy="0" r="1.7747215370151617" fill="#9bcc31">
  <animateMotion begin="-6.842281746511258s" dur="10s" repeatCount="indefinite">
    <mpath xlink:href="#path13"></mpath>
  </animateMotion>
</circle><path id="path14" d="M 341.1619516891743 482.41965559295693
c 0 36.25404270588722 -8.870670023780914 10.413395245308031 -19.284065269088945 10.413395245308031
S 302.5938211509964 518.6736982988441 302.5938211509964 482.41965559295693
s 8.870670023780914 -10.413395245308031 19.284065269088945 -10.413395245308031
S 341.1619516891743 446.1656128870697 341.1619516891743 482.41965559295693
z" fill="none" stroke="none"></path>
<circle cx="0" cy="0" r="2.7527875505919406" fill="#089ccc">
  <animateMotion begin="-5.675504616598421s" dur="10s" repeatCount="indefinite">
    <mpath xlink:href="#path14"></mpath>
  </animateMotion>
</circle><path id="path15" d="M 333.43850810892644 661.8320918854679
c 0 24.621372714809496 -6.024378430219344 7.0720964180835795 -13.096474848302924 7.0720964180835795
S 307.2455584123206 686.4534646002774 307.2455584123206 661.8320918854679
s 6.024378430219344 -7.0720964180835795 13.096474848302924 -7.0720964180835795
S 333.43850810892644 637.2107191706584 333.43850810892644 661.8320918854679
z" fill="none" stroke="none"></path>
<circle cx="0" cy="0" r="1.88940287568831" fill="#e7e0c9">
  <animateMotion begin="-7.384206220084851s" dur="10s" repeatCount="indefinite">
    <mpath xlink:href="#path15"></mpath>
  </animateMotion>
</circle><path id="path16" d="M 480.1936719875535 718.3467822425156
c 0 33.48289217398165 -8.192622553208274 9.617426475505367 -17.810049028713642 9.617426475505367
S 444.5735739301262 751.8296744164973 444.5735739301262 718.3467822425156
s 8.192622553208274 -9.617426475505367 17.810049028713642 -9.617426475505367
S 480.1936719875535 684.8638900685339 480.1936719875535 718.3467822425156
z" fill="none" stroke="none"></path>
<circle cx="0" cy="0" r="2.9833926771154164" fill="#f5b70f">
  <animateMotion begin="-3.810445022284097s" dur="10s" repeatCount="indefinite">
    <mpath xlink:href="#path16"></mpath>
  </animateMotion>
</circle><path id="path17" d="M 921.0798693571361 697.3966625100653
c 0 26.078931615294078 -6.381015182465572 7.49075695332915 -13.871772135794721 7.49075695332915
S 893.3363250855467 723.4755941253594 893.3363250855467 697.3966625100653
s 6.381015182465572 -7.49075695332915 13.871772135794721 -7.49075695332915
S 921.0798693571361 671.3177308947712 921.0798693571361 697.3966625100653
z" fill="none" stroke="none"></path>
<circle cx="0" cy="0" r="2.998376799643564" fill="#cc0505">
  <animateMotion begin="-2.1964109194805315s" dur="10s" repeatCount="indefinite">
    <mpath xlink:href="#path17"></mpath>
  </animateMotion>
</circle><path id="path18" d="M 789.4274925020047 298.30503624467775
c 0 30.186189541351517 -7.385982547351967 8.670501251239266 -16.05648379859123 8.670501251239266
S 757.3145249048223 328.49122578602925 757.3145249048223 298.30503624467775
s 7.385982547351967 -8.670501251239266 16.05648379859123 -8.670501251239266
S 789.4274925020047 268.11884670332626 789.4274925020047 298.30503624467775
z" fill="none" stroke="none"></path>
<circle cx="0" cy="0" r="2.9717016416425834" fill="#cc0505">
  <animateMotion begin="-8.404426944127634s" dur="10s" repeatCount="indefinite">
    <mpath xlink:href="#path18"></mpath>
  </animateMotion>
</circle><path id="path19" d="M 524.8594069987555 66.14973369259732
c 0 33.17933289730929 -8.11834741104376 9.530233917312243 -17.648581328356002 9.530233917312243
S 489.56224434204347 99.3290665899066 489.56224434204347 66.14973369259732
s 8.11834741104376 -9.530233917312243 17.648581328356002 -9.530233917312243
S 524.8594069987555 32.970400795288036 524.8594069987555 66.14973369259732
z" fill="none" stroke="none"></path>
<circle cx="0" cy="0" r="2.1222570053509764" fill="#f5b70f">
  <animateMotion begin="-9.696363719018938s" dur="10s" repeatCount="indefinite">
    <mpath xlink:href="#path19"></mpath>
  </animateMotion>
</circle><path id="path20" d="M 192.31581592733724 228.11965074992614
c 0 37.03512147455179 -9.061785041645647 10.637747657584024 -19.69953269922967 10.637747657584024
S 152.91675052887788 265.15477222447794 152.91675052887788 228.11965074992614
s 9.061785041645647 -10.637747657584024 19.69953269922967 -10.637747657584024
S 192.31581592733724 191.08452927537434 192.31581592733724 228.11965074992614
z" fill="none" stroke="none"></path>
<circle cx="0" cy="0" r="1.9713200291361774" fill="#cc0505">
  <animateMotion begin="-7.256924908060036s" dur="10s" repeatCount="indefinite">
    <mpath xlink:href="#path20"></mpath>
  </animateMotion>
</circle><path id="path21" d="M 220.3084042171489 720.1769311823458
c 0 36.33513426287168 -8.890511574957962 10.436687501037609 -19.327199075995573 10.436687501037609
S 181.65400606515777 756.5120654452174 181.65400606515777 720.1769311823458
s 8.890511574957962 -10.436687501037609 19.327199075995573 -10.436687501037609
S 220.3084042171489 683.8417969194742 220.3084042171489 720.1769311823458
z" fill="none" stroke="none"></path>
<circle cx="0" cy="0" r="2.300809433979141" fill="#9bcc31">
  <animateMotion begin="-7.2435836975611245s" dur="10s" repeatCount="indefinite">
    <mpath xlink:href="#path21"></mpath>
  </animateMotion>
</circle><path id="path22" d="M 435.0204348228629 209.08411549154292
c 0 30.245602484329087 -7.4005197568039245 8.687566671030696 -16.08808642783462 8.687566671030696
S 402.84426196719363 239.329717975872 402.84426196719363 209.08411549154292
s 7.4005197568039245 -8.687566671030696 16.08808642783462 -8.687566671030696
S 435.0204348228629 178.83851300721383 435.0204348228629 209.08411549154292
z" fill="none" stroke="none"></path>
<circle cx="0" cy="0" r="2.2464878119283673" fill="#cc0505">
  <animateMotion begin="-0.9898009284743314s" dur="10s" repeatCount="indefinite">
    <mpath xlink:href="#path22"></mpath>
  </animateMotion>
</circle><path id="path23" d="M 334.05525246534575 744.1506407759458
c 0 22.54799795751374 -5.517063330029957 6.476552604817777 -11.993615934847735 6.476552604817777
S 310.06802059565024 766.6986387334596 310.06802059565024 744.1506407759458
s 5.517063330029957 -6.476552604817777 11.993615934847735 -6.476552604817777
S 334.05525246534575 721.6026428184321 334.05525246534575 744.1506407759458
z" fill="none" stroke="none"></path>
<circle cx="0" cy="0" r="1.817036235540832" fill="#e7e0c9">
  <animateMotion begin="-8.528615350771528s" dur="10s" repeatCount="indefinite">
    <mpath xlink:href="#path23"></mpath>
  </animateMotion>
</circle><path id="path24" d="M 221.11732379234022 482.3810855767492
c 0 23.750611906707697 -5.811319934619968 6.821984271075616 -12.633304205695584 6.821984271075616
S 195.85071538094903 506.1316974834569 195.85071538094903 482.3810855767492
s 5.811319934619968 -6.821984271075616 12.633304205695584 -6.821984271075616
S 221.11732379234022 458.63047367004145 221.11732379234022 482.3810855767492
z" fill="none" stroke="none"></path>
<circle cx="0" cy="0" r="2.838789668969021" fill="#e7e0c9">
  <animateMotion begin="-3.497114153733729s" dur="10s" repeatCount="indefinite">
    <mpath xlink:href="#path24"></mpath>
  </animateMotion>
</circle><path id="path25" d="M 884.2479713848296 276.16454563260487
c 0 31.484009397333462 -7.703534214241166 9.043279294978761 -16.746813509219926 9.043279294978761
S 850.7543443663898 307.64855502993834 850.7543443663898 276.16454563260487
s 7.703534214241166 -9.043279294978761 16.746813509219926 -9.043279294978761
S 884.2479713848296 244.6805362352714 884.2479713848296 276.16454563260487
z" fill="none" stroke="none"></path>
<circle cx="0" cy="0" r="1.8851131266387573" fill="#9bcc31">
  <animateMotion begin="-1.1167020721984944s" dur="10s" repeatCount="indefinite">
    <mpath xlink:href="#path25"></mpath>
  </animateMotion>
</circle><path id="path26" d="M 317.15533097286726 653.3140958161063
c 0 29.828520296150053 -7.2984677320367135 8.5677664680431 -15.866234200079814 8.5677664680431
S 285.42286257270763 683.1426161122563 285.42286257270763 653.3140958161063
s 7.2984677320367135 -8.5677664680431 15.866234200079814 -8.5677664680431
S 317.15533097286726 623.4855755199562 317.15533097286726 653.3140958161063
z" fill="none" stroke="none"></path>
<circle cx="0" cy="0" r="2.956225189834435" fill="#f5b70f">
  <animateMotion begin="-1.5315862291037519s" dur="10s" repeatCount="indefinite">
    <mpath xlink:href="#path26"></mpath>
  </animateMotion>
</circle><path id="path27" d="M 273.67968993182916 327.7410767802679
c 0 28.945827902155365 -7.082489805846524 8.314227163385052 -15.396716969231576 8.314227163385052
S 242.88625599336598 356.6869046824233 242.88625599336598 327.7410767802679
s 7.082489805846524 -8.314227163385052 15.396716969231576 -8.314227163385052
S 273.67968993182916 298.79524887811255 273.67968993182916 327.7410767802679
z" fill="none" stroke="none"></path>
<circle cx="0" cy="0" r="2.6517657704946425" fill="#089ccc">
  <animateMotion begin="-8.545397509923271s" dur="10s" repeatCount="indefinite">
    <mpath xlink:href="#path27"></mpath>
  </animateMotion>
</circle><path id="path28" d="M 160.57717464387522 760.5054849994267
c 0 24.724568045110573 -6.049628351463225 7.101737629978569 -13.151365981441794 7.101737629978569
S 134.27444268099165 785.2300530445373 134.27444268099165 760.5054849994267
s 6.049628351463225 -7.101737629978569 13.151365981441794 -7.101737629978569
S 160.57717464387522 735.7809169543161 160.57717464387522 760.5054849994267
z" fill="none" stroke="none"></path>
<circle cx="0" cy="0" r="2.3644223388972696" fill="#e7e0c9">
  <animateMotion begin="-5.06505404685254s" dur="10s" repeatCount="indefinite">
    <mpath xlink:href="#path28"></mpath>
  </animateMotion>
</circle><path id="path29" d="M 736.55239333174 584.8960309089659
c 0 33.12294824982847 -8.10455116751122 9.51403832707839 -17.61858949458961 9.51403832707839
S 701.3152143425607 618.0189791587944 701.3152143425607 584.8960309089659
s 8.10455116751122 -9.51403832707839 17.61858949458961 -9.51403832707839
S 736.55239333174 551.7730826591375 736.55239333174 584.8960309089659
z" fill="none" stroke="none"></path>
<circle cx="0" cy="0" r="2.3165437124620656" fill="#089ccc">
  <animateMotion begin="-7.996648310387142s" dur="10s" repeatCount="indefinite">
    <mpath xlink:href="#path29"></mpath>
  </animateMotion>
</circle></g>
</svg>