<?xml version="1.0" encoding="UTF-8"?>
<svg width="347px" height="204px" viewBox="0 0 347 204" version="1.1" xmlns="http://www.w3.org/2000/svg" xmlns:xlink="http://www.w3.org/1999/xlink">
    <!-- Generator: sketchtool 62 (101010) - https://sketch.com -->
    <title>0ECDB9EF-AD47-4B22-9D9A-3063D260FD97@1.00x</title>
    <desc>Created with sketchtool.</desc>
    <g id="Signed-Out" stroke="none" stroke-width="1" fill="none" fill-rule="evenodd" opacity="0.100000001">
        <g id="Affiliates-/-Signed-Out" transform="translate(-1500.000000, -407.000000)" fill="#000000" fill-rule="nonzero">
            <g id="Set-your-code-Copy-2" transform="translate(1438.000000, 407.000000)">
                <g id="angle-double-right" transform="translate(62.000000, -18.000000)">
                    <path d="M173.91794,141.577874 L55.3999511,250.36055 L55.3999511,250.36055 C47.3261873,257.826249 34.1693011,257.887287 26.0132922,250.496875 C25.9633974,250.451664 25.9137529,250.406222 25.8643621,250.360551 L6.14194818,232.251435 L6.14194663,232.251433 C-2.03578585,224.780759 -2.04898947,212.656314 6.11246298,205.170706 C6.12228207,205.1617 6.13211103,205.152703 6.14194969,205.143715 L90.1435294,128.059991 L6.14194969,50.9762674 L6.14194815,50.976266 C-2.03578434,43.5055917 -2.04898796,31.3811466 6.1124645,23.8955388 C6.12228358,23.8865328 6.13211255,23.8775358 6.14195121,23.8685478 L25.7507669,5.63945089 L25.7507681,5.63944972 C33.8245407,-1.82624932 46.9814181,-1.8872876 55.1374271,5.50312743 C55.1873218,5.54833847 55.2369663,5.59378099 55.2863571,5.63945212 L173.813084,114.382134 L173.813085,114.382134 C182.04129,121.806232 182.136651,133.930381 174.026087,141.462142 C173.984393,141.50086 173.94252,141.539415 173.900467,141.577807 L173.91794,141.577874 Z" id="Path" opacity="0.4"></path>
                    <path d="M340.783152,141.577945 L222.329254,250.36119 L222.329254,250.36119 C214.259515,257.82472 201.107524,257.887246 192.953561,250.500846 C192.902438,250.454537 192.851579,250.407984 192.800985,250.36119 L173.09508,232.171992 L173.095078,232.171991 C164.916944,224.701277 164.90374,212.576769 173.065593,205.091122 C173.075413,205.082116 173.085242,205.073119 173.095081,205.06413 L257.083308,127.980003 L173.191208,50.8158882 L173.191206,50.8158868 C165.013072,43.3451735 164.999868,31.2206649 173.161721,23.7350179 C173.171541,23.7260118 173.18137,23.7170148 173.191209,23.7080268 L192.870898,5.63880984 L192.870897,5.6388104 C200.940636,-1.82472004 214.092628,-1.88724641 222.24659,5.49915351 C222.297713,5.54546342 222.348572,5.59201601 222.399166,5.6388096 L340.879281,114.382061 L340.879282,114.382061 C349.057512,121.890161 349.037675,134.045033 340.83497,141.53076 C340.817728,141.546495 340.800456,141.562203 340.783154,141.577883 L340.783152,141.577945 Z" id="Path"></path>
                </g>
            </g>
        </g>
    </g>
</svg>