<?xml version="1.0" encoding="utf-8"?>
<svg viewBox="0 0 1200 480" style="fill-rule:evenodd;clip-rule:evenodd;stroke-miterlimit:10;" xmlns="http://www.w3.org/2000/svg">
  <rect x="0" width="1200" height="480" style="fill:rgb(49 76 198)" y="0"/>
  <g>
    <g id="Layer1">
      <path d="M-251.426,508.822L821.824,-564.428" style="fill:none;stroke:rgb(46 71 188);stroke-width:4px;stroke-dasharray:16,8,0,0;"/>
      <path d="M-318.415,441.833L754.835,-631.417" style="fill:none;stroke:rgb(46 71 188);stroke-width:4px;stroke-dasharray:16,8,0,0;"/>
      <path d="M-184.437,575.811L888.813,-497.439" style="fill:none;stroke:rgb(46 71 188);stroke-width:4px;stroke-dasharray:16,8,0,0;"/>
      <path d="M-117.448,642.8L955.802,-430.45" style="fill:none;stroke:rgb(46 71 188);stroke-width:4px;stroke-dasharray:16,8,0,0;"/>
      <path d="M150.508,910.757L1223.76,-162.493" style="fill:none;stroke:rgb(46 71 188);stroke-width:4px;stroke-dasharray:16,8,0,0;"/>
      <path d="M83.519,843.768L1156.77,-229.482" style="fill:none;stroke:rgb(46 71 188);stroke-width:4px;stroke-dasharray:16,8,0,0;"/>
      <path d="M16.53,776.779L1089.78,-296.472" style="fill:none;stroke:rgb(46 71 188);stroke-width:4px;stroke-dasharray:16,8,0,0;"/>
      <path d="M-50.459,709.79L1022.79,-363.461" style="fill:none;stroke:rgb(46 71 188);stroke-width:4px;stroke-dasharray:16,8,0,0;"/>
      <path d="M217.497,977.746L1290.75,-95.504" style="fill:none;stroke:rgb(46 71 188);stroke-width:4px;stroke-dasharray:16,8,0,0;"/>
      <path d="M284.487,1044.74L1357.74,-28.515" style="fill:none;stroke:rgb(46 71 188);stroke-width:4px;stroke-dasharray:16,8,0,0;"/>
      <path d="M351.476,1111.72L1424.73,38.474" style="fill:none;stroke:rgb(46 71 188);stroke-width:4px;stroke-dasharray:16,8,0,0;"/>
      <path d="M418.465,1178.71L1491.71,105.463" style="fill:none;stroke:rgb(46 71 188);stroke-width:4px;stroke-dasharray:16,8,0,0;"/>
    </g>
    <g id="Layer11">
      <path d="M351.476,-559.874L1424.73,513.377" style="fill:none;stroke:rgb(46 71 188);stroke-width:4px;stroke-dasharray:16,8,0,0;"/>
      <path d="M418.465,-626.863L1491.71,446.387" style="fill:none;stroke:rgb(46 71 188);stroke-width:4px;stroke-dasharray:16,8,0,0;"/>
      <path d="M284.487,-492.885L1357.74,580.366" style="fill:none;stroke:rgb(46 71 188);stroke-width:4px;stroke-dasharray:16,8,0,0;"/>
      <path d="M217.497,-425.895L1290.75,647.355" style="fill:none;stroke:rgb(46 71 188);stroke-width:4px;stroke-dasharray:16,8,0,0;"/>
      <path d="M-50.459,-157.939L1022.79,915.311" style="fill:none;stroke:rgb(46 71 188);stroke-width:4px;stroke-dasharray:16,8,0,0;"/>
      <path d="M16.53,-224.928L1089.78,848.322" style="fill:none;stroke:rgb(46 71 188);stroke-width:4px;stroke-dasharray:16,8,0,0;"/>
      <path d="M83.519,-291.917L1156.77,781.333" style="fill:none;stroke:rgb(46 71 188);stroke-width:4px;stroke-dasharray:16,8,0,0;"/>
      <path d="M150.508,-358.906L1223.76,714.344" style="fill:none;stroke:rgb(46 71 188);stroke-width:4px;stroke-dasharray:16,8,0,0;"/>
      <path d="M-117.448,-90.95L955.802,982.3" style="fill:none;stroke:rgb(46 71 188);stroke-width:4px;stroke-dasharray:16,8,0,0;"/>
      <path d="M-184.437,-23.961L888.813,1049.29" style="fill:none;stroke:rgb(46 71 188);stroke-width:4px;stroke-dasharray:16,8,0,0;"/>
      <path d="M-251.426,43.028L821.824,1116.28" style="fill:none;stroke:rgb(46 71 188);stroke-width:4px;stroke-dasharray:16,8,0,0;"/>
      <path d="M-318.415,110.017L754.835,1183.27" style="fill:none;stroke:rgb(46 71 188);stroke-width:4px;stroke-dasharray:16,8,0,0;"/>
    </g>
  </g>
  <g transform="matrix(1.469887, 0, 0, 1.469887, -371.613861, -97.12944)" style="">
    <path d="M 629.26 210.9 L 630.426 216.6 C 625.081 217.8 619.736 219.3 614.391 221 L 605.256 192.1 C 611.379 190.1 617.501 188.3 623.721 187 L 624.887 192.7 C 621.193 193.5 617.501 194.5 613.905 195.5 C 614.391 197.2 614.78 198.9 615.266 200.6 C 618.473 199.7 621.68 198.8 624.887 198.1 L 626.054 203.6 C 622.944 204.3 619.834 205.1 616.724 206 L 618.764 213.5 L 629.26 210.9 Z M 651.224 207.7 C 647.628 208 644.128 208.4 640.534 208.9 L 639.075 215.5 C 637.034 215.5 634.993 215.5 632.953 215.6 C 635.11 204.783 637.968 194.126 641.505 183.7 C 642.671 183.6 643.837 183.4 644.906 183.3 C 650.64 192.8 655.694 202.6 659.969 212.5 C 657.929 212.9 655.985 213.3 653.944 213.8 C 653.167 211.8 652.195 209.7 651.224 207.7 Z M 641.894 203.6 L 648.891 202.8 L 644.42 194.3 L 641.894 203.6 Z M 671.049 188.2 L 670.174 213.1 L 663.953 213 L 663.953 182.6 L 673.575 182.8 C 677.268 183 680.281 184.1 682.419 186.1 C 684.556 188.1 685.431 190.5 685.139 193.3 C 684.751 196.4 682.807 198.6 679.406 200.1 C 681.739 204.4 683.876 208.7 685.82 213.1 C 683.876 213.4 681.835 213.8 679.892 214.2 C 677.462 208.6 674.839 203.1 671.826 197.7 C 671.923 197.3 672.02 196.8 672.117 196.4 L 672.992 196.4 C 674.353 196.5 675.519 196.2 676.49 195.5 C 677.462 194.8 677.949 193.9 678.045 192.7 C 678.143 191.4 677.753 190.4 676.878 189.499 C 676.004 188.7 674.741 188.2 673.186 188.1 C 672.408 188.2 671.729 188.2 671.049 188.2 Z M 710.699 207.6 L 715.558 189.9 L 722.748 192.1 L 713.613 220.9 L 710.796 220.6 C 707.297 213 703.119 205.4 698.356 198 L 694.955 216 C 692.913 215.6 690.874 215.2 688.735 214.9 L 693.303 185 L 696.704 185 C 701.952 192.3 706.713 199.9 710.699 207.6 Z" opacity=".3" style=""/>
    <path d="M 629.056 208.6 L 630.156 214 C 624.856 215.1 619.656 216.5 614.456 218.2 L 605.656 190.8 C 611.656 188.9 617.656 187.3 623.756 186 L 624.956 191.4 C 621.333 192.206 617.732 193.106 614.156 194.1 C 614.556 195.7 615.056 197.3 615.456 198.9 C 618.556 198 621.656 197.3 624.856 196.6 L 626.056 201.9 C 623.056 202.6 619.956 203.3 616.956 204.2 L 618.956 211.3 C 622.256 210.1 625.656 209.3 629.056 208.6 Z M 650.556 205.5 C 647.056 205.8 643.556 206.1 640.156 206.6 L 638.756 212.8 C 636.756 212.8 634.756 212.8 632.756 212.9 C 634.89 202.66 637.696 192.571 641.156 182.7 C 642.256 182.6 643.356 182.4 644.556 182.3 C 650.156 191.3 655.056 200.6 659.256 210 L 653.356 211.2 L 650.556 205.5 Z M 641.456 201.6 C 643.756 201.3 646.056 201.1 648.256 200.9 C 646.856 198.2 645.456 195.5 643.956 192.9 C 643.056 195.8 642.156 198.7 641.456 201.6 Z M 669.856 187 L 668.956 210.6 L 662.856 210.5 L 662.856 181.7 L 672.256 181.9 C 675.856 182.1 678.756 183.2 680.856 185.1 C 682.956 187 683.856 189.3 683.556 191.9 C 683.256 194.8 681.356 196.9 677.956 198.3 C 680.214 202.317 682.315 206.42 684.256 210.6 L 678.456 211.7 C 676.156 206.4 673.456 201.2 670.556 196.1 C 670.656 195.7 670.756 195.3 670.856 194.8 L 671.656 194.8 C 672.956 194.9 674.156 194.6 675.056 194 C 675.956 193.4 676.456 192.5 676.556 191.3 C 676.682 190.162 676.231 189.037 675.356 188.3 C 674.456 187.5 673.256 187.1 671.756 187 C 671.256 187.1 670.556 187 669.856 187 Z M 708.756 205.4 L 713.456 188.6 L 720.456 190.7 L 711.656 218.1 L 708.856 217.8 C 705.456 210.5 701.356 203.4 696.656 196.4 L 693.356 213.5 C 691.356 213.1 689.356 212.8 687.356 212.4 L 691.756 184 L 695.056 184 C 700.156 190.9 704.756 198.1 708.756 205.4 Z" stroke-width=".819" class="Sg Wv Ww" style="fill: rgb(255, 255, 255); stroke: rgb(99, 17, 188); stroke-miterlimit: 10;"/>
    <g class="TJ" transform="matrix(0.751639, -0.011925, 0.011925, 0.751639, 434.496033, 160.590057)" style="opacity: 0.29;">
      <path d="M171.5 138.7c-1.2.9-2.5 1.7-3.9 2.4s-2.9 1.3-4.5 1.9c-1.6.5-3.1 1-4.6 1.2-1.5.3-2.9.4-4.2.4v11c3-.1 6.1-.7 9.3-1.6s6-2.3 8.6-4l-.7-11.3zM141 107.5c1.3-2 2.9-3.5 4.7-4.6s3.8-1.8 5.9-1.9V89.8c-4.2.1-8.2.8-11.9 2.1s-7 3.3-9.8 6-5 6.1-6.6 10.3-2.4 9.1-2.4 14.9c0 5 .7 9.5 2.2 13.5 1.4 3.9 3.5 7.3 6.2 10.1s5.9 4.9 9.7 6.4 8 2.3 12.7 2.5v-11.1c-4.5-.5-8.1-2.6-10.8-6.3s-4.1-8.7-4.1-14.8c0-3.3.4-6.3 1.1-9 .7-2.6 1.8-4.9 3.1-6.9zm31.8-14.4l-.8 18.2c-2.9.4-5.2.1-7-.9s-3.2-2.5-4.2-4.5c-.7-1.4-1.3-2.9-1.7-4.6-.2 0-.5-.1-.7-.1-1.3-.2-2.7-.4-4.1-.4v-11l4.7.2 4.9.7 4.8 1 4.1 1.4zm69.4 55.2l-1.4 9.4c-4.8 0-9.1-1-12.9-2.9-3.9-1.9-7.3-5.2-10.5-10l-10.1-15.2h.1l-1.1-.2V120l2.3.1c1.6.1 3.1-.1 4.2-.6a7.63 7.63 0 0 0 2.8-2.2c.7-.9 1.2-2 1.5-3.2s.5-2.5.5-3.8c0-2.6-.8-4.7-2.4-6.2s-3.5-2.3-5.8-2.2l-3.1.1V90.8c.4 0 .9 0 1.3-.1h1.4c.5 0 1 0 1.5-.1 3.6 0 6.8.5 9.5 1.5s5 2.4 6.8 4.1 3.2 3.7 4.1 6 1.4 4.7 1.4 7.2c0 2.3-.4 4.7-1.1 7.3a17.11 17.11 0 0 1-3.8 7c-1.3 1.5-2.8 2.8-4.7 3.8 1.3 2 2.6 3.8 3.8 5.5l3.1 4.6 2.7 4c.9 1.4 1.9 2.7 2.7 3.9l7.2 2.8zm-31.5 6.1h-29.9l.2-9.2c.2-.1.6-.3 1.2-.5l1.9-.6 2.1-.5 1.9-.3v-.3h15.1v.4l1.9.3c.7.1 1.4.3 2.1.5l1.9.6c.6.2 1 .3 1.3.5l.1 4.6.2 4.5z"/>
      <path d="M203.3 90.9V143h-15.1v-41c-2.1-.1-3.6-.5-4.7-1.2s-1.9-1.5-2.3-2.5-.7-2.1-.6-3.4c0-1.3.1-2.6.2-3.9h7.7l6.5-.1h8.3zm97.7.2l-.3 9.2c-.5.3-1.4.7-2.7 1-1.3.4-2.5.6-3.6.8l-14 26.4-5.6-10.7 7.5-15.7-1.8-.3c-.7-.1-1.3-.3-2-.5l-1.8-.6c-.6-.2-1-.3-1.2-.5l.2-9.2H301zm-14.6 63.3h-30l.2-9.2c.2-.1.7-.3 1.2-.5l1.9-.6 2.1-.5 1.9-.3v-.3h15.1v.4l1.9.3c.7.1 1.5.3 2.2.5l1.9.6c.6.2 1 .3 1.3.5l.1 4.6.2 4.5z"/>
      <path d="M278.9 131v12h-15.1v-12l-16.4-29-1.9-.3c-.7-.1-1.5-.3-2.2-.5l-1.9-.6c-.6-.2-1-.3-1.2-.5l-.3-9.2h30.5l-.3 9.2c-.3.1-.7.3-1.2.5a18.88 18.88 0 0 1-1.8.6c-.6.2-1.3.3-2 .5l-1.8.3 9.3 17.5 6.3 11.5zm77.1-28.9c-.9-2.3-2.3-4.4-4.2-6.1-1.8-1.8-4.1-3.1-6.8-4.1s-5.9-1.4-9.5-1.3c-.6 0-1 0-1.2.1h-3.1v11.2l3.4-.1c2.2-.1 4 .7 5.6 2.2s2.3 3.6 2.3 6.2-.8 4.8-2.5 6.6c-1.6 1.7-4 2.6-7.2 2.6h-1.7v10.2c.9.1 1.8.1 2.4.1h1.2c4.2.4 7.8 0 10.7-1.2s5.2-2.8 7-4.9a17.55 17.55 0 0 0 3.7-7c.7-2.6 1.1-5 1.1-7.3.3-2.4-.2-4.9-1.2-7.2zm-18.4 52.3h-31.7l.2-9.2c.2-.1.7-.3 1.2-.5l1.9-.6 2.1-.5 1.9-.3v-.3h15.1v.4c.5.1 1.2.2 2.1.3s1.8.3 2.7.5l2.5.6c.7.2 1.3.3 1.5.5l.1 4.6c.3 1.4.3 2.9.4 4.5z"/>
      <path d="M328.4 91v52h-15.1v-41c-2.1-.1-3.6-.5-4.7-1.2s-1.9-1.5-2.3-2.5-.6-2.1-.6-3.4.1-2.6.2-3.9h18.7l2.4-.1c.7.1 1.2.1 1.4.1zm50.2.1v52h15.1v-52h-15.1z"/>
      <path d="M401.1 154.4h-30l.2-9.2c.2-.1.7-.3 1.2-.5l1.9-.6c.7-.2 1.4-.3 2.2-.5l1.9-.3v-.3h15.1v.4l1.9.3c.7.1 1.4.3 2.1.5l1.9.6c.6.2 1 .3 1.3.5l.1 4.6.2 4.5zm12.1-63.3l-.3 20.6-8.6.7c-.2-.3-.3-.8-.5-1.7s-.3-1.9-.4-3l-.3-3.2-.2-2.4-6.3.3V91.1h16.6zm-37.5 0v11.2l-6.1-.2c-.1.6-.1 1.3-.2 2.3l-.4 3c-.1 1-.3 2-.5 2.9l-.5 2-8.6-.7-.3-20.6h16.6zm70.9 9.9c-2.1.2-3.9.9-5.6 2-1.6 1.2-3.1 2.7-4.3 4.6s-2.1 4.2-2.8 6.7c-.6 2.6-1 5.3-1 8.4s.3 5.8 1 8.4a21.46 21.46 0 0 0 2.8 6.7c1.2 1.9 2.6 3.4 4.3 4.6 1.6 1.2 3.5 1.9 5.6 2.1v11.2c-4.5-.1-8.5-.9-12.1-2.5-3.6-1.5-6.7-3.7-9.3-6.4-2.6-2.8-4.6-6.2-6-10.2s-2.1-8.6-2.1-13.8.7-9.8 2.1-13.8 3.4-7.4 6-10.2 5.7-4.9 9.4-6.4c3.6-1.5 7.7-2.3 12.1-2.5V101zm3-11.2c4.5.1 8.5.9 12.1 2.5 3.6 1.5 6.7 3.7 9.3 6.4 2.6 2.8 4.6 6.2 6 10.2s2.1 8.6 2.1 13.8-.7 9.8-2.1 13.8-3.4 7.4-6 10.2-5.7 5-9.3 6.5-7.7 2.3-12.1 2.5v-11.2c2-.2 3.8-.9 5.5-2 1.7-1.2 3.1-2.7 4.3-4.6s2.1-4.2 2.8-6.7c.6-2.6 1-5.3 1-8.4s-.3-5.8-1-8.4c-.6-2.6-1.6-4.8-2.7-6.7-1.2-1.9-2.6-3.4-4.3-4.6s-3.5-1.9-5.6-2.1V89.8z"/>
    </g>
    <path d="M 563.045 257.141 C 562.127 257.753 561.209 258.365 560.138 258.824 L 556.773 260.124 C 555.626 260.506 554.479 260.812 553.331 260.965 C 552.184 261.195 551.113 261.271 550.119 261.271 L 550.119 268.996 C 552.414 268.92 554.708 268.537 557.079 267.849 C 559.45 267.16 561.592 266.243 563.504 265.019 L 563.045 257.141 Z M 540.1 235.267 C 541.094 233.89 542.241 232.819 543.618 232.055 C 544.984 231.289 546.495 230.82 548.054 230.678 L 548.054 222.876 C 544.842 222.953 541.859 223.488 539.105 224.406 C 536.386 225.269 533.883 226.704 531.763 228.613 C 529.698 230.525 528.015 232.896 526.792 235.879 C 525.568 238.785 524.956 242.303 524.956 246.357 C 524.956 249.875 525.491 253.087 526.562 255.841 C 527.633 258.594 529.163 260.965 531.228 262.877 C 533.216 264.789 535.664 266.319 538.494 267.39 C 541.323 268.461 544.536 268.996 548.054 269.149 L 548.054 261.424 C 544.689 261.042 542.012 259.589 539.947 256.988 C 537.882 254.388 536.887 250.946 536.887 246.586 C 536.887 244.292 537.193 242.15 537.729 240.315 C 538.341 238.25 539.105 236.644 540.1 235.267 Z M 564.039 225.171 L 563.427 237.944 C 561.286 238.25 559.527 238.02 558.15 237.332 C 556.773 236.567 555.702 235.573 554.938 234.12 C 554.402 233.125 553.943 232.055 553.714 230.907 C 553.561 230.907 553.331 230.831 553.178 230.831 C 552.184 230.678 551.19 230.601 550.119 230.525 L 550.119 222.876 L 553.637 223.029 C 554.869 223.107 556.095 223.26 557.309 223.488 L 560.903 224.253 C 562.051 224.483 563.121 224.789 564.039 225.171 Z M 616.201 263.872 L 615.13 270.449 C 611.535 270.449 608.323 269.761 605.417 268.384 C 602.51 267.007 599.91 264.713 597.539 261.424 L 589.891 250.716 L 589.049 250.64 L 589.049 243.986 L 590.808 244.062 C 592.032 244.139 593.103 243.986 593.944 243.604 C 594.785 243.221 595.474 242.686 596.009 242.074 C 596.545 241.385 596.927 240.621 597.156 239.856 C 597.386 239.015 597.539 238.097 597.539 237.179 C 597.539 235.343 596.927 233.89 595.78 232.819 C 594.556 231.749 593.103 231.213 591.42 231.29 L 589.126 231.366 L 589.126 223.488 L 591.191 223.488 C 591.573 223.488 591.956 223.488 592.338 223.412 C 595.015 223.412 597.386 223.794 599.451 224.483 C 601.516 225.171 603.199 226.165 604.575 227.313 C 605.952 228.536 606.946 229.913 607.711 231.519 C 608.4 233.125 608.782 234.808 608.782 236.567 C 608.782 238.173 608.476 239.856 607.941 241.691 C 607.405 243.527 606.411 245.21 605.111 246.663 C 604.116 247.734 602.969 248.651 601.592 249.34 L 604.422 253.24 L 606.717 256.453 L 608.782 259.283 C 609.47 260.277 610.159 261.195 610.847 262.036 L 616.201 263.872 Z M 592.491 268.155 L 570.005 268.155 L 570.158 261.73 C 570.311 261.654 570.617 261.501 571.076 261.424 C 571.534 261.271 571.993 261.118 572.529 261.042 C 573.064 260.889 573.6 260.812 574.135 260.736 L 575.588 260.506 L 575.588 260.277 L 586.908 260.277 L 586.908 260.506 L 588.361 260.736 L 589.967 261.042 L 591.344 261.424 C 591.726 261.577 592.109 261.654 592.338 261.73 L 592.491 268.155 Z M 586.908 223.565 L 586.908 260.2 L 575.588 260.2 L 575.588 231.366 C 574.058 231.29 572.835 230.984 572.07 230.525 C 571.229 230.066 570.693 229.454 570.311 228.766 C 570.005 228.077 569.852 227.313 569.852 226.395 C 569.852 225.477 569.928 224.559 570.005 223.641 L 575.741 223.641 L 580.636 223.565 L 586.908 223.565 Z M 660.408 223.718 L 660.179 230.142 C 659.796 230.372 659.108 230.601 658.19 230.907 L 655.513 231.443 L 644.959 249.952 L 640.752 242.456 L 646.412 231.443 C 646.029 231.366 645.571 231.366 645.035 231.213 C 644.5 231.137 644.041 230.984 643.505 230.907 C 643.047 230.754 642.588 230.678 642.129 230.525 L 641.211 230.219 L 641.364 223.794 L 660.408 223.794 Z M 649.395 268.155 L 626.832 268.155 L 626.985 261.73 C 627.273 261.58 627.583 261.477 627.903 261.424 C 628.362 261.271 628.821 261.118 629.356 261.042 C 629.891 260.889 630.427 260.812 630.962 260.736 L 632.415 260.506 L 632.415 260.277 L 643.735 260.277 L 643.735 260.506 L 645.188 260.736 L 646.794 261.042 L 648.247 261.424 C 648.63 261.577 649.012 261.654 649.242 261.73 L 649.395 268.155 Z M 643.811 251.787 L 643.811 260.2 L 632.492 260.2 L 632.492 251.787 L 620.101 231.366 C 619.719 231.29 619.26 231.29 618.648 231.137 L 617.042 230.831 L 615.589 230.448 L 614.671 230.142 L 614.442 223.718 L 637.387 223.718 L 637.157 230.142 C 636.928 230.219 636.622 230.372 636.24 230.448 C 635.857 230.601 635.398 230.678 634.939 230.831 C 634.48 230.984 633.945 231.06 633.486 231.137 L 632.109 231.366 L 639.069 243.604 L 643.811 251.787 Z M 701.786 231.443 C 701.098 229.836 700.027 228.383 698.65 227.16 C 697.273 225.936 695.591 224.942 693.526 224.253 C 691.461 223.565 689.09 223.259 686.413 223.335 L 683.2 223.335 L 683.2 231.366 L 685.724 231.29 C 687.278 231.197 688.8 231.751 689.931 232.819 C 691.078 233.89 691.69 235.343 691.69 237.179 C 691.69 239.015 691.078 240.544 689.854 241.768 C 688.631 242.992 686.795 243.604 684.501 243.604 L 683.2 243.604 L 683.2 250.793 C 683.889 250.869 684.501 250.869 685.036 250.869 L 685.954 250.869 C 689.166 251.175 691.843 250.869 693.985 250.028 C 696.126 249.187 697.885 248.04 699.262 246.586 C 700.562 245.133 701.556 243.527 702.092 241.691 C 702.627 239.856 702.933 238.173 702.933 236.567 C 702.857 234.808 702.474 233.125 701.786 231.443 Z M 687.942 268.155 L 664.156 268.155 L 664.309 261.73 C 664.462 261.654 664.768 261.501 665.227 261.424 C 665.686 261.271 666.145 261.118 666.68 261.042 C 667.215 260.889 667.751 260.812 668.286 260.736 L 669.739 260.506 L 669.739 260.277 L 681.059 260.277 L 681.059 260.506 C 681.441 260.583 681.977 260.659 682.665 260.736 L 684.73 261.042 L 686.642 261.424 L 687.789 261.73 L 687.942 268.155 Z M 680.982 223.641 L 680.982 260.2 L 669.663 260.2 L 669.663 231.366 C 668.133 231.29 666.909 230.984 666.145 230.525 C 665.303 230.066 664.768 229.454 664.385 228.766 C 664.08 228.077 663.927 227.313 663.927 226.395 C 663.927 225.477 664.003 224.559 664.08 223.641 L 680.982 223.641 Z M 718.765 223.718 L 718.765 260.2 L 730.085 260.2 L 730.085 223.718 L 718.765 223.718 Z M 735.668 268.155 L 713.105 268.155 L 713.258 261.73 C 713.411 261.654 713.717 261.501 714.176 261.424 C 714.635 261.271 715.094 261.118 715.629 261.042 C 716.165 260.889 716.7 260.812 717.236 260.736 L 718.689 260.506 L 718.689 260.277 L 730.008 260.277 L 730.008 260.506 L 731.461 260.736 L 733.068 261.042 L 734.444 261.424 C 734.827 261.577 735.209 261.654 735.439 261.73 L 735.515 264.942 L 735.668 268.155 Z M 744.693 223.718 L 744.464 238.173 L 738.039 238.632 C 737.886 238.479 737.81 238.02 737.657 237.408 L 737.351 235.343 L 737.121 233.125 L 736.968 231.443 L 732.226 231.672 L 732.226 223.718 L 744.693 223.718 Z M 716.547 223.718 L 716.547 231.596 L 711.958 231.443 C 711.958 231.825 711.882 232.36 711.805 233.049 L 711.576 235.19 C 711.499 235.955 711.346 236.567 711.193 237.255 L 710.811 238.709 L 704.386 238.25 L 704.157 223.718 L 716.547 223.718 Z M 769.856 230.678 C 768.327 230.831 766.95 231.29 765.65 232.131 C 764.426 232.972 763.355 234.043 762.437 235.42 C 761.52 236.796 760.831 238.326 760.372 240.162 C 759.913 241.921 759.607 243.909 759.607 246.051 C 759.607 248.193 759.837 250.105 760.372 251.94 C 760.831 253.699 761.52 255.305 762.437 256.606 C 763.355 257.906 764.426 258.977 765.65 259.818 C 766.873 260.659 768.25 261.118 769.856 261.348 L 769.856 269.149 C 766.491 269.073 763.432 268.461 760.755 267.39 C 758.13 266.373 755.737 264.838 753.718 262.877 C 751.806 260.965 750.276 258.518 749.206 255.688 C 748.135 252.858 747.6 249.646 747.6 245.975 C 747.6 242.38 748.135 239.091 749.206 236.261 C 750.276 233.431 751.806 231.06 753.718 229.072 C 755.63 227.16 758.001 225.63 760.755 224.559 C 763.508 223.488 766.491 222.953 769.856 222.8 L 769.856 230.678 Z M 772.074 222.876 C 775.44 222.953 778.499 223.565 781.176 224.636 C 783.8 225.653 786.193 227.187 788.212 229.148 C 790.124 231.06 791.654 233.508 792.725 236.338 C 793.796 239.167 794.331 242.38 794.331 246.051 C 794.331 249.646 793.796 252.858 792.725 255.688 C 791.654 258.518 790.124 260.889 788.212 262.877 C 786.3 264.866 783.929 266.396 781.176 267.39 C 778.422 268.384 775.44 268.996 772.074 269.149 L 772.074 261.195 C 773.604 261.042 774.981 260.583 776.204 259.742 C 777.428 258.9 778.575 257.829 779.493 256.453 C 780.411 255.076 781.099 253.546 781.558 251.711 C 782.017 249.952 782.323 247.963 782.323 245.822 C 782.323 243.68 782.094 241.768 781.558 239.932 C 781.099 238.173 780.411 236.567 779.493 235.267 C 778.575 233.967 777.505 232.896 776.281 232.055 C 775.057 231.213 773.604 230.754 772.074 230.525 L 772.074 222.876 Z" class="Sg Wv Ww" style="fill: rgb(255, 255, 255); stroke: rgb(99, 17, 188); stroke-miterlimit: 10;"/>
    <g class="Sh" style="" transform="matrix(1, 0, 0, 1, 359.056152, 119.999992)">
      <g class="Sg" style="fill: rgb(255, 255, 255);">
        <path d="M441.2 202.9c1.3.3 2.6.5 3.8.5l-.5.9c-1.2 0-2.5-.1-3.8-.5.2-.4.4-.6.5-.9z"/>
        <path d="M445 203.3c2.4-.1 4.1-1 4.9-2.4l-.5.9c-.8 1.4-2.4 2.3-4.9 2.4.2-.2.4-.6.5-.9zm-13.4-7.1c1.9 3.1 5.8 5.7 9.6 6.7-.2.3-.3.6-.5.9-3.9-1-7.7-3.6-9.6-6.7-1.3-2-1.4-3.9-.7-5.3l.5-.9c-.7 1.3-.6 3.2.7 5.3z"/>
      </g>
      <path d="M430.4 191.7l.5-.9c.8-1.4 2.4-2.3 4.9-2.4l-.5.9c-2.4.1-4.1 1-4.9 2.4z" class="TK" style="fill: rgb(229, 238, 249);"/>
      <linearGradient id="bt" gradientUnits="userSpaceOnUse" x1="429.018" y1="186.688" x2="455.948" y2="198.636">
        <stop offset="0" stop-color="#6311bc"/>
        <stop offset="1" stop-color="#c1d7ff"/>
      </linearGradient>
      <path d="M428.9 190.2l.5-.9c1-1.9 3.2-3.1 6.5-3.2l-.5.9c-3.3.1-5.5 1.3-6.5 3.2z" fill="url(#bt)"/>
      <g class="TK" style="fill: rgb(229, 238, 249);">
        <path d="M435.3 189.3c4.9-.2 10.9 3.1 13.4 7.2s.7 7.6-4.2 7.7c-4.9.2-10.9-3.1-13.4-7.2s-.6-7.6 4.2-7.7z"/>
        <path d="M449.9 200.9l-.5.9c.7-1.4.6-3.3-.7-5.3-2.5-4.1-8.5-7.3-13.4-7.2l.5-.9c4.9-.2 10.9 3.1 13.4 7.2 1.3 2.1 1.4 3.9.7 5.3z"/>
      </g>
      <linearGradient id="bu" gradientUnits="userSpaceOnUse" x1="428.954" y1="186.831" x2="455.884" y2="198.78">
        <stop offset="0" stop-color="#6311bc"/>
        <stop offset="1" stop-color="#c1d7ff"/>
      </linearGradient>
      <path d="M454.5 202.7l-.5.9c1-1.9.8-4.3-.9-7.1-3.4-5.5-11.3-9.7-17.7-9.5l.5-.9c6.4-.2 14.4 4.1 17.7 9.5 1.7 2.8 1.9 5.3.9 7.1z" fill="url(#bu)"/>
      <path d="M435.4 187c6.4-.2 14.4 4.1 17.7 9.5s.9 10-5.6 10.2c-6.4.2-14.4-4.1-17.7-9.5s-.9-10 5.6-10.2zm9.1 17.2c4.9-.2 6.7-3.6 4.2-7.7s-8.5-7.3-13.4-7.2c-4.9.2-6.7 3.6-4.2 7.7 2.6 4.2 8.6 7.4 13.4 7.2" class="Sg" style="fill: rgb(255, 255, 255);"/>
      <g class="Se" style="fill: rgb(212, 175, 255);">
        <path d="M430.6 191.7l.2-.3c-.8 1.6-.6 3.7.8 6 2.8 4.6 9.6 8.2 15 8l-.2.3c-5.4.2-12.2-3.4-15-8-1.4-2.3-1.6-4.4-.8-6z"/>
        <path d="M452 202.7l-.2.3c-.8 1.6-2.7 2.6-5.5 2.7l.2-.3c2.8 0 4.7-1.1 5.5-2.7zm-22.1-11.4l.2-.3c.9-1.7 2.9-2.8 5.8-2.9l-.2.3c-2.8.2-4.9 1.3-5.8 2.9z"/>
        <path d="M452.7 203.1l-.2.3c.9-1.7.7-3.9-.8-6.4-3-4.9-10.2-8.8-16-8.6l.2-.3c5.8-.2 13 3.7 16 8.6 1.5 2.5 1.7 4.7.8 6.4z"/>
      </g>
      <path d="M435.8 188.5c5.8-.2 13 3.7 16 8.6s.8 9.1-5 9.2c-5.8.2-13-3.7-16-8.6-3.1-4.9-.8-9.1 5-9.2zm10.6 17.2c5.4-.2 7.5-4.1 4.7-8.7s-9.6-8.2-15-8-7.5 4.1-4.7 8.7 9.6 8.2 15 8" class="Sf" style="fill: rgb(99, 17, 188);"/>
      <g class="Se" style="fill: rgb(212, 175, 255);">
        <path d="M435.2 197.4l.2-.3 1.8-.5-.2.3zm6.2-.2l.2-.3 1.1 3.1-.2.3zm7.3 2.9l.2-.3.8 2.4-.1.3z"/>
        <path d="M442.5 200.3l.2-.3 6.2-.2-.2.3zm.2-4.9l.2-.3.7 1.2-.1.3z"/>
        <path d="M440.9 195.8l.2-.3 1.8-.4-.2.3z"/>
      </g>
      <path d="M439.1 190.9l1.8 4.9 1.8-.4.8 1.2-2.1.6 1.1 3.1 6.2-.2.9 2.4-10.4.4-1.7-4.7-1.5.4-.8-1.2 1.8-.5-2.1-5.9z" class="Sf" style="fill: rgb(99, 17, 188);"/>
      <g class="Se" style="fill: rgb(212, 175, 255);">
        <path d="M439.1 190.9l.2-.3 1.8 4.9-.2.3z"/>
        <path d="M434.9 191l.1-.3 4.3-.1-.2.3z"/>
      </g>
      <g class="Sg" style="fill: rgb(255, 255, 255);">
        <path d="M115.1 57.3v-1.6 1.6z"/>
        <path d="M115.1 57.3v-1.4a4.53 4.53 0 0 1 .3 1.6V59c0-.6-.1-1.2-.3-1.7z"/>
        <path d="M88 52.4c-3.1 1.8-4.7 4.2-4.7 6.5v-1.5c0-2.4 1.6-4.7 4.7-6.5 6.2-3.6 16.4-3.6 22.7 0 2.4 1.4 3.8 3 4.4 4.8v1.5c-.6-1.8-2.1-3.4-4.4-4.8-6.4-3.7-16.5-3.7-22.7 0zm27.4 6.6s0-.1 0 0v-1.5V59z"/>
      </g>
      <g class="TK" style="fill: rgb(229, 238, 249);">
        <path d="M115.4 57.5V59c0 2.4-1.6 4.7-4.7 6.5-6.2 3.6-16.4 3.6-22.7 0-3.2-1.8-4.7-4.2-4.7-6.6v-1.5c0 2.4 1.6 4.8 4.7 6.6 6.3 3.6 16.4 3.6 22.7 0 3.1-1.8 4.7-4.1 4.7-6.5z"/>
        <path d="M110.6 50.9c6.3 3.6 6.3 9.5.1 13.1S94.3 67.6 88 64s-6.3-9.5-.1-13.1c6.3-3.6 16.4-3.6 22.7 0z"/>
      </g>
      <linearGradient id="bv" gradientUnits="userSpaceOnUse" x1="78.431" y1="64.906" x2="120.868" y2="64.906">
        <stop offset="0" stop-color="#6311bc"/>
        <stop offset="1" stop-color="#c1d7ff"/>
      </linearGradient>
      <path d="M120.9 58.1v1.5c0 3.1-2.1 6.2-6.2 8.6-8.3 4.8-21.7 4.8-30 0-4.2-2.4-6.3-5.6-6.3-8.8v-1.5c0 3.2 2.1 6.3 6.3 8.8 8.3 4.8 21.7 4.8 30 0 4.1-2.3 6.2-5.5 6.2-8.6z" fill="url(#bv)"/>
      <path d="M114.6 49.4c8.3 4.8 8.4 12.6.1 17.4s-21.7 4.8-30 0-8.4-12.6-.1-17.4 21.7-4.8 30 0zM88 64c6.3 3.6 16.4 3.6 22.7 0 6.2-3.6 6.2-9.5-.1-13.1s-16.4-3.6-22.7 0c-6.2 3.6-6.1 9.5.1 13.1" class="Sg" style="fill: rgb(255, 255, 255);"/>
      <path d="M117.3 58v.5c0-2.7-1.8-5.4-5.3-7.4-7-4-18.4-4-25.4 0-3.5 2-5.2 4.6-5.2 7.3v-.5c0-2.6 1.7-5.3 5.2-7.3 7-4.1 18.3-4.1 25.4 0 3.5 2.1 5.3 4.7 5.3 7.4zm1.2 0v.5c0 2.8-1.9 5.6-5.6 7.8-7.4 4.3-19.6 4.3-27.1 0-3.8-2.2-5.6-5-5.6-7.9v-.5c0 2.9 1.9 5.7 5.6 7.9 7.5 4.3 19.6 4.3 27.1 0 3.7-2.1 5.5-5 5.6-7.8z" class="Se" style="fill: rgb(212, 175, 255);"/>
      <path d="M112.8 50.1c7.5 4.3 7.5 11.4.1 15.7s-19.6 4.3-27.1 0-7.5-11.3-.1-15.7c7.5-4.3 19.6-4.3 27.1 0zM86.7 65.3c7 4.1 18.4 4.1 25.4 0s6.9-10.6-.1-14.7c-7-4-18.4-4-25.4 0-7 4.1-6.9 10.7.1 14.7" class="Sf" style="fill: rgb(99, 17, 188);"/>
      <path d="M95.9 60.1v.5L93 54.2v-.4z" class="Se" style="fill: rgb(212, 175, 255);"/>
      <path d="M106.9 61.8l-11-1.7-2.9-6.3 18.2-2.6z" class="Sf" style="fill: rgb(99, 17, 188);"/>
      <g class="Se" style="fill: rgb(212, 175, 255);">
        <path d="M106.9 61.8v.5l-11-1.7v-.5z"/>
        <path d="M111.2 51.2v.5l-4.3 10.6v-.5zm-4.8 11.6v.5L89 64.6v-.5z"/>
      </g>
      <path d="M94.4 61l12 1.8L89 64.1 91.3 54z" class="Sf" style="fill: rgb(99, 17, 188);"/>
      <g class="Sg" style="fill: rgb(255, 255, 255);">
        <path d="M499.2 49.5c3 5.2 7.1 9.7 11.7 12.4L509 63c-4.6-2.6-8.7-7.2-11.7-12.4.7-.4 1.3-.8 1.9-1.1z"/>
        <path d="M494.4 33.2c0 5.3 1.8 11.1 4.8 16.3-.6.4-1.2.7-1.9 1.1-3-5.2-4.8-11-4.8-16.3 0-5.2 1.9-8.9 4.8-10.6l1.9-1.1c-2.9 1.7-4.8 5.3-4.8 10.6zm16.5 28.6c4.6 2.7 8.8 2.9 11.8 1.2l-1.9 1.1c-3 1.8-7.2 1.5-11.8-1.2.6-.3 1.4-.8 1.9-1.1z"/>
      </g>
      <path d="M497.4 23.6l1.9-1.1c3-1.8 7.2-1.5 11.8 1.2l-1.9 1.1c-4.6-2.7-8.8-2.9-11.8-1.2z" class="TK" style="fill: rgb(229, 238, 249);"/>
      <linearGradient id="bw" gradientUnits="userSpaceOnUse" x1="507.419" y1="27.785" x2="522.895" y2="83.781">
        <stop offset="0" stop-color="#6311bc"/>
        <stop offset="1" stop-color="#c1d7ff"/>
      </linearGradient>
      <path d="M497.5 23.2l1.9-1.1c4-2.3 9.5-2 15.6 1.5l-1.9 1.1c-6.1-3.5-11.6-3.8-15.6-1.5z" fill="url(#bw)"/>
      <g class="TK" style="fill: rgb(229, 238, 249);">
        <path d="M509.2 24.8c9.2 5.3 16.6 18.1 16.5 28.6 0 10.5-7.5 14.8-16.6 9.5-9.2-5.3-16.6-18.1-16.5-28.6 0-10.6 7.4-14.8 16.6-9.5z"/>
        <path d="M522.7 63l-1.9 1.1c3-1.7 4.8-5.4 4.8-10.6 0-10.5-7.4-23.3-16.5-28.6l1.9-1.1c9.2 5.3 16.6 18.1 16.5 28.6.1 5.2-1.8 8.8-4.8 10.6z"/>
      </g>
      <linearGradient id="bx" gradientUnits="userSpaceOnUse" x1="520.382" y1="24.202" x2="535.858" y2="80.199">
        <stop offset="0" stop-color="#6311bc"/>
        <stop offset="1" stop-color="#c1d7ff"/>
      </linearGradient>
      <path d="M530.4 75.6l-1.9 1.1c3.9-2.3 6.4-7.2 6.4-14.1 0-13.9-9.8-30.9-21.9-37.9l1.9-1.1c12.1 7 21.9 24 21.9 37.9 0 6.9-2.4 11.8-6.4 14.1z" fill="url(#bx)"/>
      <path d="M513.1 24.7c12.1 7 21.9 24 21.9 37.9s-9.9 19.5-22 12.6c-12.1-7-21.9-24-21.9-37.9s9.9-19.6 22-12.6zm-4 38.2c9.2 5.3 16.6 1 16.6-9.5s-7.4-23.3-16.5-28.6c-9.2-5.3-16.6-1-16.6 9.5-.1 10.5 7.3 23.3 16.5 28.6" class="Sg" style="fill: rgb(255, 255, 255);"/>
      <g class="Se" style="fill: rgb(212, 175, 255);">
        <path d="M499.2 28l.6-.4c-3.3 1.9-5.4 6.1-5.4 11.9 0 11.8 8.3 26.1 18.5 32l-.6.4c-10.2-5.9-18.5-20.3-18.5-32 0-5.9 2-10 5.4-11.9z"/>
        <path d="M526.1 72.8l-.6.4c-3.4 2-8 1.7-13.2-1.3l.6-.4c5.1 3 9.8 3.3 13.2 1.3zm-27.8-46.3l.6-.4c3.6-2.1 8.6-1.8 14.1 1.4l-.6.4c-5.5-3.2-10.5-3.5-14.1-1.4z"/>
        <path d="M526.9 74.3l-.6.4c3.6-2.1 5.8-6.5 5.8-12.7 0-12.5-8.8-27.9-19.7-34.2l.6-.4c10.9 6.3 19.8 21.6 19.7 34.2 0 6.3-2.2 10.7-5.8 12.7z"/>
      </g>
      <path d="M512.4 27.8c10.9 6.3 19.8 21.6 19.7 34.2 0 12.5-8.9 17.6-19.9 11.3-10.9-6.3-19.8-21.6-19.7-34.2 0-12.5 9-17.6 19.9-11.3zm-.2 44.1c10.2 5.9 18.6 1.1 18.6-10.6 0-11.8-8.3-26.1-18.5-32s-18.6-1.1-18.6 10.6 8.3 26.1 18.5 32" class="Sf" style="fill: rgb(99, 17, 188);"/>
      <path d="M500.5 53.5l.7-.4 3.5 2.1-.6.4zm10.1 10.6l.6-.4v3.6l-.6.4z" class="Se" style="fill: rgb(212, 175, 255);"/>
      <path d="M516.1 66.9l.6-.3v3.9l-.6.3z" class="Sf" style="fill: rgb(99, 17, 188);"/>
      <path d="M509.2 58.5l.6-.4 3.5 2-.7.3z" class="Se" style="fill: rgb(212, 175, 255);"/>
      <path d="M509.2 51.3l.6-.4v7.2l-.6.4z" class="Sf" style="fill: rgb(99, 17, 188);"/>
      <g class="Se" style="fill: rgb(212, 175, 255);">
        <path d="M516.5 60.8l-.6.4c-.1 0-.1.1-.2.1-.7.2-1.6 0-3-.8l.6-.4c1.3.8 2.3 1 3 .8 0-.1.1-.1.2-.1zm-7.3-14.2l.7-.3 2.9 1.7-.6.3z"/>
        <path d="M509.3 40.5l.6-.4v6.2l-.7.3zm2.9 7.8l.6-.4c.2.1.3.2.5.3 1.1.6 2 .8 2.5.7l-.6.4c-.5.1-1.4-.1-2.5-.7-.2-.1-.3-.2-.5-.3z"/>
      </g>
      <path d="M517.6 53.5l.7-.4v.2l-.7.4zm-1.5-4.6l-.6.4c-.1 0-.2.1-.3.1l.6-.4c.1 0 .2-.1.3-.1z" class="Sf" style="fill: rgb(99, 17, 188);"/>
      <g class="Se" style="fill: rgb(212, 175, 255);">
        <path d="M500.6 30.7l.6-.4 6.6 3.9-.6.3zm20.2 35.8l-.6.4c1.2-.7 1.7-2.1 1.8-4.2 0-1.8-.3-3.4-1-4.9l.6-.4c.7 1.5 1 3.1 1 4.9-.1 2.1-.6 3.5-1.8 4.2zm-3.2-12.8l.6-.4c1.5 1.3 2.6 2.6 3.3 4.1l-.6.4c-.6-1.5-1.7-2.9-3.3-4.1zm-6.9-17.2l.6-.3 1 .5-.6.4z"/>
        <path d="M511.7 37.1l.6-.4 1.1.6-.6.4-1.1-.6zm-4.5-6.1l.6-.4 3.5 2-.6.4z"/>
        <path d="M510.7 33l.6-.4v3.6l-.6.3zm9.8 20.1l-.6.4c.2-.1.3-.2.4-.3.7-.7 1-1.8 1-3.5 0-2.4-.8-4.6-2.3-6.6-.7-1-1.7-1.9-2.9-2.9l.6-.4c1.2 1 2.1 1.9 2.9 2.9 1.5 2 2.3 4.2 2.3 6.6 0 1.6-.3 2.8-1 3.5-.1.1-.2.2-.4.3z"/>
        <path d="M516.2 36.1l.6-.3v4l-.6.3z"/>
        <path d="M512.7 34.1l.6-.3 3.5 2-.6.3z"/>
      </g>
      <path d="M520.9 57.8c.7 1.5 1 3.1 1 4.9 0 2.5-.8 4-2.4 4.5-.9.3-2.1.2-3.4-.2v3.9l-3.5-2v-3.6l-2-1.2v3.6l-3.5-2v-3.6l-6.6-3.8v-4.8l3.6 2.1.1-18-3.6-2.1v-4.8l6.6 3.8v-3.6l3.5 2v3.6l1 .6 1.1.6v-3.6l3.5 2v4c1.2 1 2.1 1.9 2.9 2.9 1.5 2 2.3 4.2 2.3 6.6 0 1.6-.3 2.8-1 3.5s-1.6.8-2.7.4v.2c1.4 1.2 2.5 2.6 3.1 4.1zm-4.8 3.1c.3-.4.5-1 .5-1.9 0-.8-.2-1.5-.5-2.3-.6-1.3-1.8-2.4-3.5-3.5-.1-.1-.2-.1-.3-.2l-3.1-1.8v7.2l3.4 2c1.3.8 2.3 1 3 .8a.55.55 0 0 0 .5-.3m-6.8-20.4v6.1l3 1.7c.2.1.3.2.5.3 1.1.6 2 .8 2.5.7.6-.1.9-.8.9-1.9s-.3-2-1-2.9c-.5-.7-1.4-1.4-2.4-2.1-.2-.2-.5-.3-.8-.5l-2.7-1.4" class="Sf" style="fill: rgb(99, 17, 188);"/>
    </g>
  </g>
</svg>