<?xml version="1.0" encoding="utf-8"?>
<svg viewBox="0 0 1200 480" style="fill-rule:evenodd;clip-rule:evenodd;stroke-linejoin:round;stroke-miterlimit:2;" xmlns="http://www.w3.org/2000/svg">
  <defs>
    <filter id="drop-shadow-filter-0" x="-500%" y="-500%" width="1000%" height="1000%">
      <feGaussianBlur in="SourceAlpha" stdDeviation="0"/>
      <feOffset dx="5" dy="5"/>
      <feComponentTransfer result="offsetblur">
        <feFuncA id="spread-ctrl" type="linear" slope="1"/>
      </feComponentTransfer>
      <feFlood flood-color="rgba(0,0,0,0.3)"/>
      <feComposite in2="offsetblur" operator="in"/>
      <feMerge>
        <feMergeNode/>
        <feMergeNode in="SourceGraphic"/>
      </feMerge>
    </filter>
  </defs>
  <clipPath id="_clip2">
    <polygon points="500.827,285.738 625.116,240.074 670.78,364.364 546.49,410.028 500.827,285.738 "/>
  </clipPath>
  <g>
    <rect x="536.408" y="-354.57" width="800" height="600" style="fill:rgb(242,97,46);"/>
    <ellipse cx="600" cy="196.371" rx="736.408" ry="728.097" style="fill:rgb(242,73,46);"/>
    <ellipse cx="600" cy="196.371" rx="534.302" ry="528.272" style="fill:rgb(242,144,46);"/>
    <ellipse cx="600" cy="196.371" rx="291.106" ry="287.82" style="fill:rgb(245,165,84);"/>
  </g>
  <g>
    <g>
      <path d="M469.126,495.306C498.096,482.512 509.956,457.385 514.808,438.598C516.827,430.784 529.619,429.647 533.703,436.876C533.816,437.075 533.927,437.273 534.036,437.469C539.626,447.461 547.942,447.151 552.532,436.81C567.862,402.275 593.438,385.043 612.4,376.637C620.605,372.998 629.736,379.732 626.52,387.004C612.771,418.105 624.252,440.44 633.681,452.056C638.117,457.521 647.973,456.69 651.198,450.664C653.546,446.276 654.487,442.121 654.632,438.424C654.952,430.253 662.185,427.327 670.299,431.912C714.996,457.167 715.879,495.304 715.879,495.304L587.789,524.583L469.126,495.306Z" style="fill:rgb(242,144,46);fill-rule:nonzero;"/>
    </g>
    <g>
      <path d="M337.124,413.174C269.3,299.047 212.959,324.04 237.997,203.467C238.856,199.331 235.219,195.641 231.082,196.495C210.504,200.741 159.39,218.524 143.262,291.379C142.009,297.037 134.211,297.71 132.063,292.327C130.097,287.399 128.332,281.333 127.499,274.265C126.845,268.722 119.587,267.09 116.662,271.844C94.554,307.771 46.738,393.437 41.123,470.507C33.79,571.174 200.454,637.346 200.454,637.346C200.454,637.346 406.457,529.841 337.124,413.174Z" style="fill:rgb(242,73,46);fill-rule:nonzero;"/>
    </g>
    <g>
      <path d="M282.216,599.85C327.502,491.478 260.265,434.202 235.371,417.487C231.711,415.03 226.774,417.357 226.274,421.737C225.209,431.072 222.415,438.809 219.153,444.983C210.709,460.964 205.998,459.505 208.1,441.552C214.297,388.634 190.72,359.072 175.296,345.721C171.235,342.206 165.001,345.521 165.614,350.856C167.578,367.971 166.582,398.089 143.186,425.558C107.981,466.891 67.765,532.516 119.318,599.85L203.238,615.731L282.216,599.85Z" style="fill:rgb(242,144,46);fill-rule:nonzero;"/>
    </g>
    <g>
      <path d="M470.383,500.861C453.421,491.881 446.477,474.246 443.636,461.06C442.454,455.576 434.964,454.778 432.573,459.852C432.507,459.991 432.442,460.13 432.378,460.268C429.105,467.281 424.236,467.063 421.549,459.805C412.573,435.567 397.598,423.473 386.496,417.573C381.692,415.019 376.346,419.745 378.229,424.849C386.279,446.677 379.557,462.353 374.036,470.506C371.439,474.341 365.668,473.758 363.78,469.529C362.405,466.449 361.854,463.533 361.769,460.938C361.582,455.203 357.347,453.15 352.596,456.368C326.426,474.093 325.909,500.859 325.909,500.859L400.906,521.409L470.383,500.861Z" style="fill:rgb(245,191,84);fill-rule:nonzero;"/>
    </g>
    <g>
      <path d="M855.35,422.316C923.174,308.189 979.515,333.182 954.477,212.609C953.618,208.473 957.255,204.783 961.392,205.637C981.97,209.883 1033.08,227.666 1049.21,300.521C1050.46,306.179 1058.26,306.852 1060.41,301.469C1062.38,296.541 1064.14,290.475 1064.97,283.407C1065.63,277.864 1072.89,276.232 1075.81,280.986C1097.92,316.913 1145.74,402.579 1151.35,479.649C1158.68,580.316 992.02,646.488 992.02,646.488C992.02,646.488 786.017,538.983 855.35,422.316Z" style="fill:rgb(242,73,46);fill-rule:nonzero;"/>
    </g>
    <g>
      <path d="M1069.91,357.764C1070.4,353.522 1075.71,351.908 1078.59,355.069C1087.52,364.906 1099.04,381.449 1093.47,396.889C1086.05,417.435 1059.61,433.583 1057.57,454.536C1057.18,458.63 1052.17,460.402 1049.17,457.582C1040.61,449.515 1029.53,436.175 1030.13,421.556C1031,400.528 1066.62,386.354 1069.91,357.764Z" style="fill:rgb(242,144,46);fill-rule:nonzero;"/>
    </g>
    <g>
      <path d="M861.801,656.674C812.346,538.325 885.773,475.776 912.959,457.523C916.956,454.839 922.348,457.381 922.894,462.164C924.057,472.358 927.108,480.807 930.67,487.55C939.892,505.002 945.036,503.409 942.741,483.803C935.973,426.013 961.721,393.73 978.565,379.15C983,375.311 989.808,378.931 989.138,384.757C986.993,403.448 988.081,436.339 1013.63,466.337C1052.08,511.475 1096,583.141 1039.7,656.674L948.05,674.017L861.801,656.674Z" style="fill:rgb(242,144,46);fill-rule:nonzero;"/>
    </g>
    <g>
      <path d="M660.582,505.784C689.553,489.175 701.413,456.557 706.265,432.168C708.284,422.025 721.076,420.549 725.16,429.934C725.273,430.191 725.384,430.448 725.493,430.703C731.083,443.674 739.399,443.271 743.988,429.847C759.319,385.016 784.895,362.646 803.857,351.734C812.062,347.01 821.192,355.751 817.976,365.191C804.227,405.565 815.708,434.559 825.138,449.639C829.573,456.733 839.43,455.654 842.654,447.832C845.003,442.136 845.944,436.742 846.089,431.942C846.408,421.335 853.642,417.537 861.756,423.49C906.453,456.274 907.336,505.781 907.336,505.781L779.245,543.79L660.582,505.784Z" style="fill:rgb(245,191,84);fill-rule:nonzero;"/>
    </g>
  </g>
  <g id="Flat">
    <path d="M484.364,409.403L494.977,421.779C518.689,449.43 554.367,463.297 590.068,458.737L600.773,457.369C647.832,451.358 689.46,422.999 712.99,380.922L712.99,380.922C733.685,343.914 731.745,297.856 708.015,262.802L708.015,262.802L484.364,409.403Z" style="fill:rgb(242,73,46);fill-rule:nonzero;"/>
    <path d="M661.408,396.018C661.382,396.041 661.355,396.061 661.326,396.078C652.744,402.575 643.662,408.351 634.169,413.351C623.501,419.002 612.349,423.643 600.853,427.215C545.894,444.222 493.23,432.332 474.424,395.129C451.83,350.425 486.706,286.102 552.328,251.466C617.95,216.822 689.471,224.976 712.073,269.688C731.301,307.718 708.922,359.946 661.408,396.018Z" style="fill:rgb(57,81,102);fill-rule:nonzero;"/>
    <path d="M661.408,396.018C661.382,396.041 661.355,396.061 661.326,396.078C652.744,402.575 643.662,408.351 634.169,413.351C623.501,419.002 612.349,423.643 600.853,427.215C564.951,435.977 532.245,427.929 519.97,404.408C503.751,373.324 529.34,327.018 577.137,300.968C624.926,274.919 676.825,279.003 693.044,310.079C706.069,335.028 692.138,369.801 661.408,396.018Z" style="fill:rgb(47,64,84);fill-rule:nonzero;"/>
    <g>
      <ellipse cx="669.64" cy="259.521" rx="5.944" ry="6.074" style="fill:rgb(166,178,188);"/>
      <ellipse cx="693.416" cy="271.669" rx="5.944" ry="6.074" style="fill:rgb(166,178,188);"/>
    </g>
  </g>
  <g clip-path="url(#_clip2)">
    <path d="M644.809,293.739C646.078,297.628 646.914,301.457 647.353,305.208C651.799,343.031 616.02,373.062 577.967,379.32C555.702,382.97 531.298,375.99 529.635,363.417C529.618,363.319 529.607,363.221 529.598,363.12C528.734,354.786 539.059,352.172 547.136,349.731C576.803,340.757 581.141,334.085 588.234,309.056C589.798,303.536 591.312,298.185 593.49,293.531C593.54,293.421 593.592,293.314 593.644,293.209C595.365,289.599 597.495,286.42 600.378,283.925C608.223,277.133 619.47,274.414 628.549,276.92C628.974,277.036 629.394,277.166 629.804,277.307C637.314,279.857 642.318,286.113 644.809,293.739Z" style="fill:rgb(255,71,90);fill-rule:nonzero;"/>
    <path d="M644.809,293.739C646.078,297.628 646.914,301.457 647.353,305.208C651.799,343.031 616.02,373.062 577.967,379.32C555.702,382.97 531.298,375.99 529.635,363.417C621.929,376.189 628.548,276.92 628.548,276.92C628.974,277.036 629.394,277.166 629.804,277.307C637.314,279.857 642.318,286.113 644.809,293.739Z" style="fill:rgb(229,16,77);fill-rule:nonzero;"/>
    <path d="M630.054,281.526L623.385,277.563C627.069,271.365 624.677,261.357 623.444,258.024L630.721,255.333C630.954,255.964 636.364,270.911 630.054,281.526Z" style="fill:rgb(15,152,135);fill-rule:nonzero;"/>
    <path d="M644.809,293.739C646.078,297.628 646.914,301.457 647.353,305.208C641.882,305.757 634.692,310.711 632.444,312.548L628.292,315.936C627.132,313.439 626.131,309.77 622.967,304.494C622.904,304.39 622.841,304.287 622.777,304.181C622.031,302.953 621.169,301.641 620.16,300.238C613.446,302.044 605.611,307.137 604.418,307.813C603.149,305.942 602.577,301.783 593.644,293.209C595.365,289.599 597.495,286.42 600.378,283.925C608.223,277.133 619.47,274.414 628.549,276.92C628.974,277.036 629.394,277.166 629.804,277.307C637.314,279.857 642.318,286.113 644.809,293.739Z" style="fill:rgb(17,168,146);fill-rule:nonzero;"/>
    <path d="M644.809,293.739C646.078,297.628 646.914,301.457 647.353,305.208C641.882,305.757 634.692,310.711 632.444,312.548L628.292,315.936C627.132,313.439 626.131,309.77 622.967,304.494C622.904,304.39 622.841,304.287 622.777,304.181C627.745,288.996 628.548,276.92 628.548,276.92C628.974,277.036 629.394,277.166 629.804,277.307C637.314,279.857 642.318,286.113 644.809,293.739Z" style="fill:rgb(15,152,135);fill-rule:nonzero;"/>
  </g>
  <path d="M 451.907 128.585 L 451.157 164.945 L 451.657 182.125 L 438.217 182.125 L 438.877 166.275 L 438.797 160.875 L 428.007 160.795 L 418.457 161.045 L 418.377 164.945 L 418.877 182.125 L 405.427 182.125 L 406.097 166.275 L 405.427 128.585 L 419.037 128.585 L 418.627 149.925 L 428.837 150.085 L 438.627 149.925 L 438.217 128.585 L 451.907 128.585 ZM 484.778 127.755 C 492.411 127.755 498.305 130.038 502.458 134.605 C 506.605 139.172 508.678 145.662 508.678 154.075 C 508.678 163.255 506.411 170.378 501.878 175.445 C 497.338 180.505 490.945 183.035 482.698 183.035 C 475.118 183.035 469.255 180.698 465.108 176.025 C 460.955 171.352 458.878 164.725 458.878 156.145 C 458.878 147.072 461.135 140.072 465.648 135.145 C 470.155 130.218 476.531 127.755 484.778 127.755 Z M 483.618 138.545 C 481.018 138.545 478.941 139.058 477.388 140.085 C 475.841 141.112 474.708 142.772 473.988 145.065 C 473.268 147.358 472.908 150.472 472.908 154.405 C 472.908 159.105 473.268 162.798 473.988 165.485 C 474.708 168.165 475.855 170.088 477.428 171.255 C 479.008 172.415 481.155 172.995 483.868 172.995 C 486.521 172.995 488.621 172.482 490.168 171.455 C 491.721 170.435 492.841 168.762 493.528 166.435 C 494.221 164.115 494.568 160.935 494.568 156.895 C 494.568 152.248 494.208 148.595 493.488 145.935 C 492.768 143.282 491.635 141.388 490.088 140.255 C 488.541 139.115 486.385 138.545 483.618 138.545 ZM 549.101 128.585 L 549.851 129.585 L 549.101 139.465 L 538.641 138.965 L 536.321 138.965 L 535.901 164.945 L 536.401 182.125 L 522.961 182.125 L 523.701 166.275 L 523.291 138.965 L 520.801 138.965 L 510.261 139.465 L 509.431 138.465 L 510.261 128.585 L 549.101 128.585 ZM 599.736 154.485 C 603.329 155.372 605.956 156.825 607.616 158.845 C 609.276 160.865 610.106 163.535 610.106 166.855 C 610.106 172.222 607.963 176.192 603.676 178.765 C 599.389 181.338 593.013 182.625 584.546 182.625 C 579.013 182.625 573.726 182.458 568.686 182.125 L 568.606 182.125 L 569.356 166.275 L 568.606 128.585 L 589.686 128.505 C 595.386 128.505 599.843 129.668 603.056 131.995 C 606.263 134.315 607.866 137.662 607.866 142.035 C 607.866 144.855 607.159 147.332 605.746 149.465 C 604.339 151.598 602.336 153.272 599.736 154.485 Z M 594.166 143.865 C 594.166 141.592 593.463 140.015 592.056 139.135 C 590.643 138.248 588.109 137.805 584.456 137.805 L 581.806 137.805 L 581.476 150.835 L 588.606 151.165 C 590.493 150.612 591.889 149.755 592.796 148.595 C 593.709 147.435 594.166 145.858 594.166 143.865 Z M 587.036 173.325 C 590.023 173.325 592.346 172.718 594.006 171.505 C 595.666 170.285 596.496 168.542 596.496 166.275 C 596.496 164.555 595.969 163.185 594.916 162.165 C 593.863 161.138 592.229 160.378 590.016 159.885 L 581.306 160.045 L 581.226 164.945 L 581.476 172.995 C 584.349 173.215 586.203 173.325 587.036 173.325 ZM 640.486 127.755 C 648.119 127.755 654.012 130.038 658.166 134.605 C 662.312 139.172 664.386 145.662 664.386 154.075 C 664.386 163.255 662.119 170.378 657.586 175.445 C 653.046 180.505 646.652 183.035 638.406 183.035 C 630.826 183.035 624.962 180.698 620.816 176.025 C 616.662 171.352 614.586 164.725 614.586 156.145 C 614.586 147.072 616.842 140.072 621.356 135.145 C 625.862 130.218 632.239 127.755 640.486 127.755 Z M 639.326 138.545 C 636.726 138.545 634.649 139.058 633.096 140.085 C 631.549 141.112 630.416 142.772 629.696 145.065 C 628.976 147.358 628.616 150.472 628.616 154.405 C 628.616 159.105 628.976 162.798 629.696 165.485 C 630.416 168.165 631.562 170.088 633.136 171.255 C 634.716 172.415 636.862 172.995 639.576 172.995 C 642.229 172.995 644.329 172.482 645.876 171.455 C 647.429 170.435 648.549 168.762 649.236 166.435 C 649.929 164.115 650.276 160.935 650.276 156.895 C 650.276 152.248 649.916 148.595 649.196 145.935 C 648.476 143.282 647.342 141.388 645.796 140.255 C 644.249 139.115 642.092 138.545 639.326 138.545 ZM 718.086 128.345 L 717.346 165.195 L 717.836 182.125 L 703.236 182.125 L 684.226 149.005 L 683.396 149.005 L 683.316 163.285 L 683.806 182.125 L 671.606 182.125 L 672.276 166.355 L 671.606 128.585 L 686.136 128.585 L 705.226 161.705 L 706.056 161.705 L 705.726 129.085 L 718.086 128.345 ZM 772.869 128.585 L 772.369 155.735 L 772.289 163.445 C 772.342 169.698 770.419 174.515 766.519 177.895 C 762.619 181.268 757.072 182.955 749.879 182.955 C 742.905 182.955 737.579 181.295 733.899 177.975 C 730.219 174.655 728.462 169.895 728.629 163.695 L 728.799 155.565 L 728.469 128.585 L 741.909 128.585 L 741.329 161.875 C 741.275 165.415 741.995 168.015 743.489 169.675 C 744.982 171.335 747.305 172.165 750.459 172.165 C 753.665 172.165 756.032 171.348 757.559 169.715 C 759.079 168.082 759.812 165.578 759.759 162.205 L 759.169 128.585 L 772.869 128.585 ZM 801.671 127.755 C 806.431 127.755 811.244 128.698 816.111 130.585 L 813.951 141.865 L 811.961 142.615 C 809.861 141.235 807.757 140.155 805.651 139.375 C 803.551 138.602 801.727 138.215 800.181 138.215 C 798.354 138.215 796.901 138.672 795.821 139.585 C 794.741 140.498 794.201 141.565 794.201 142.785 C 794.201 144.165 794.877 145.342 796.231 146.315 C 797.591 147.282 799.737 148.428 802.671 149.755 C 805.764 151.195 808.267 152.508 810.181 153.695 C 812.087 154.888 813.747 156.478 815.161 158.465 C 816.567 160.458 817.271 162.895 817.271 165.775 C 817.271 168.982 816.401 171.885 814.661 174.485 C 812.914 177.085 810.437 179.148 807.231 180.675 C 804.024 182.195 800.317 182.955 796.111 182.955 C 790.524 182.955 784.991 181.848 779.511 179.635 L 781.421 167.595 L 782.831 166.765 C 785.151 168.705 787.681 170.215 790.421 171.295 C 793.161 172.375 795.527 172.915 797.521 172.915 C 799.621 172.915 801.211 172.445 802.291 171.505 C 803.371 170.558 803.911 169.452 803.911 168.185 C 803.911 166.685 803.221 165.438 801.841 164.445 C 800.454 163.452 798.294 162.288 795.361 160.955 C 792.374 159.575 789.927 158.292 788.021 157.105 C 786.107 155.912 784.461 154.318 783.081 152.325 C 781.694 150.332 781.001 147.898 781.001 145.025 C 781.001 141.758 781.874 138.812 783.621 136.185 C 785.361 133.558 787.794 131.498 790.921 130.005 C 794.047 128.505 797.631 127.755 801.671 127.755 Z" transform="matrix(1, 0, 0, 1, 0, 0)" style="fill: rgb(243, 243, 243); white-space: pre; filter: url(#drop-shadow-filter-0);"/>
</svg>