<svg xmlns:xlink="http://www.w3.org/1999/xlink" xmlns="http://www.w3.org/2000/svg" width="288" height="370" viewBox="0 0 288 370" version="1.1" style="fill-rule: evenodd; clip-rule: evenodd; stroke-linejoin: round; stroke-miterlimit: 2;"><path d="M219.327,248.927L219.327,360.927C219.327,365.327 215.727,368.927 211.327,368.927C209.327,368.927 207.727,368.127 206.127,367.327L144.127,323.327L81.727,367.327C78.127,369.727 72.927,368.927 70.527,365.327C69.727,363.727 68.927,362.127 68.927,360.527L68.927,250.527C68.927,246.127 72.527,242.527 76.927,242.527C77.327,242.527 209.727,240.927 209.727,240.927C215.727,240.927 219.327,244.527 219.327,248.927Z" style="fill-rule: nonzero;" fill="#A42700"></path><path d="M142.527,17.927L170.127,1.927C177.327,-2.073 186.527,0.327 190.527,7.527C190.527,7.927 190.927,8.327 190.927,8.727L204.927,33.927L236.527,33.927C244.927,33.927 251.327,40.727 251.327,48.727L250.927,78.727L278.527,94.727C285.727,98.727 288.127,107.927 284.127,115.127C284.127,115.527 283.727,115.527 283.727,115.927L268.527,141.127L284.527,168.727C288.527,175.927 286.127,185.127 278.927,189.127C278.527,189.127 278.127,189.527 277.727,189.527L252.527,203.527L252.527,235.127C252.527,243.527 245.727,249.927 237.727,249.927L207.727,249.527L191.727,277.127C187.727,284.327 178.527,286.727 171.327,282.727C170.927,282.727 170.927,282.327 170.527,282.327L145.327,267.527L117.727,283.527C110.527,287.527 101.327,285.127 97.327,277.927C97.327,277.527 96.927,277.127 96.927,276.727L82.927,251.527L51.327,251.527C42.927,251.527 36.527,244.727 36.527,236.727L36.927,206.727L9.327,190.727C2.127,186.727 -0.273,177.527 3.727,170.327C3.727,169.927 4.127,169.927 4.127,169.527L18.927,144.327L2.927,116.727C-1.073,109.527 1.327,100.327 8.527,96.327C8.927,96.327 9.327,95.927 9.727,95.927L34.927,81.927L34.927,50.327C34.927,41.927 41.727,35.527 49.727,35.527L79.727,35.927L95.727,8.327C99.727,1.127 108.927,-1.273 116.127,2.727C116.527,2.727 116.527,3.127 116.927,3.127L142.527,17.927Z" style="fill-rule: nonzero;" fill="#FCB912"></path><g><path d="M195.327,249.927L179.327,277.527C177.727,280.327 175.327,282.327 172.927,283.527C179.727,286.727 188.127,284.327 192.127,277.527L208.127,250.327L195.327,249.927Z" style="fill-rule: nonzero;" fill="#F2A31E"></path><path d="M284.527,168.727L268.527,141.127L283.727,115.927C283.727,115.527 284.127,115.527 284.127,115.127C288.127,107.927 285.727,98.727 278.527,94.727L250.927,78.727L251.327,48.727C251.327,40.327 244.527,33.927 236.527,33.927L204.927,33.927L190.927,8.727C190.927,8.327 190.527,7.927 190.527,7.527C186.527,0.727 178.127,-1.673 171.327,1.527C174.127,2.727 176.127,4.727 177.727,7.527C177.727,7.927 178.127,8.327 178.127,8.727L192.127,33.927L223.727,33.927C232.127,33.927 238.527,40.727 238.527,48.727L238.127,78.727L265.727,94.727C272.927,98.727 275.327,107.927 271.327,115.127C271.327,115.527 270.927,115.527 270.927,115.927L256.127,141.127L272.127,168.727C276.127,175.927 273.727,185.127 266.527,189.127C266.127,189.127 265.727,189.527 265.327,189.527L240.127,203.527L240.127,235.127C240.127,242.727 234.127,249.127 226.927,249.927L237.727,249.927C246.127,249.927 252.527,243.127 252.527,235.127L252.527,203.527L277.727,189.527C278.127,189.527 278.527,189.127 278.927,189.127C286.127,184.727 288.927,175.927 284.527,168.727Z" style="fill-rule: nonzero;" fill="#F2A31E"></path></g><g><path d="M200.127,86.327C185.727,71.927 165.727,63.127 144.127,63.127C122.127,63.127 102.527,71.927 88.127,86.327C73.727,100.727 64.927,120.727 64.927,142.327C64.927,164.327 73.727,184.327 88.127,198.327C102.527,212.727 122.527,221.527 144.127,221.527C166.127,221.527 185.727,212.727 200.127,198.327C214.527,183.927 223.327,163.927 223.327,142.327C223.727,120.727 214.527,100.727 200.127,86.327M144.127,47.127C170.527,47.127 194.527,57.927 211.727,75.127C228.927,92.327 239.727,116.327 239.727,142.727C239.727,169.127 228.927,193.127 211.727,210.327C194.527,227.527 170.527,238.327 144.127,238.327C117.727,238.327 93.727,227.527 76.527,210.327C59.327,193.127 48.527,169.127 48.527,142.727C48.527,116.327 59.327,92.327 76.527,75.127C93.727,57.927 117.727,47.127 144.127,47.127Z" style="fill-rule: nonzero;" fill="#945313"></path><path d="M138.418,188.747L138.418,121.147L121.258,134.407L109.948,118.937L140.238,96.707L160.258,96.707L160.258,188.747L138.418,188.747Z" style="fill-rule: nonzero;" fill="#945313"></path></g></svg>