<svg xmlns:xlink="http://www.w3.org/1999/xlink" xmlns="http://www.w3.org/2000/svg" width="288" height="370" viewBox="0 0 288 370" version="1.1" style="fill-rule: evenodd; clip-rule: evenodd; stroke-linejoin: round; stroke-miterlimit: 2;"><path d="M219.327,248.927L219.327,360.927C219.327,365.327 215.727,368.927 211.327,368.927C209.327,368.927 207.727,368.127 206.127,367.327L144.127,323.327L81.727,367.327C78.127,369.727 72.927,368.927 70.527,365.327C69.727,363.727 68.927,362.127 68.927,360.527L68.927,250.527C68.927,246.127 72.527,242.527 76.927,242.527C77.327,242.527 209.727,240.927 209.727,240.927C215.727,240.927 219.327,244.527 219.327,248.927Z" style="fill-rule: nonzero;" fill="#A42700"></path><path d="M142.527,17.927L170.127,1.927C177.327,-2.073 186.527,0.327 190.527,7.527C190.527,7.927 190.927,8.327 190.927,8.727L204.927,33.927L236.527,33.927C244.927,33.927 251.327,40.727 251.327,48.727L250.927,78.727L278.527,94.727C285.727,98.727 288.127,107.927 284.127,115.127C284.127,115.527 283.727,115.527 283.727,115.927L268.527,141.127L284.527,168.727C288.527,175.927 286.127,185.127 278.927,189.127C278.527,189.127 278.127,189.527 277.727,189.527L252.527,203.527L252.527,235.127C252.527,243.527 245.727,249.927 237.727,249.927L207.727,249.527L191.727,277.127C187.727,284.327 178.527,286.727 171.327,282.727C170.927,282.727 170.927,282.327 170.527,282.327L145.327,267.527L117.727,283.527C110.527,287.527 101.327,285.127 97.327,277.927C97.327,277.527 96.927,277.127 96.927,276.727L82.927,251.527L51.327,251.527C42.927,251.527 36.527,244.727 36.527,236.727L36.927,206.727L9.327,190.727C2.127,186.727 -0.273,177.527 3.727,170.327C3.727,169.927 4.127,169.927 4.127,169.527L18.927,144.327L2.927,116.727C-1.073,109.527 1.327,100.327 8.527,96.327C8.927,96.327 9.327,95.927 9.727,95.927L34.927,81.927L34.927,50.327C34.927,41.927 41.727,35.527 49.727,35.527L79.727,35.927L95.727,8.327C99.727,1.127 108.927,-1.273 116.127,2.727C116.527,2.727 116.527,3.127 116.927,3.127L142.527,17.927Z" style="fill-rule: nonzero;" fill="#B8CDD3"></path><g><path d="M195.327,249.927L179.327,277.527C177.727,280.327 175.327,282.327 172.927,283.527C179.727,286.727 188.127,284.327 192.127,277.527L208.127,250.327L195.327,249.927Z" style="fill-rule: nonzero;" fill="#A5BABF"></path><path d="M284.527,168.727L268.527,141.127L283.727,115.927C283.727,115.527 284.127,115.527 284.127,115.127C288.127,107.927 285.727,98.727 278.527,94.727L250.927,78.727L251.327,48.727C251.327,40.327 244.527,33.927 236.527,33.927L204.927,33.927L190.927,8.727C190.927,8.327 190.527,7.927 190.527,7.527C186.527,0.727 178.127,-1.673 171.327,1.527C174.127,2.727 176.127,4.727 177.727,7.527C177.727,7.927 178.127,8.327 178.127,8.727L192.127,33.927L223.727,33.927C232.127,33.927 238.527,40.727 238.527,48.727L238.127,78.727L265.727,94.727C272.927,98.727 275.327,107.927 271.327,115.127C271.327,115.527 270.927,115.527 270.927,115.927L256.127,141.127L272.127,168.727C276.127,175.927 273.727,185.127 266.527,189.127C266.127,189.127 265.727,189.527 265.327,189.527L240.127,203.527L240.127,235.127C240.127,242.727 234.127,249.127 226.927,249.927L237.727,249.927C246.127,249.927 252.527,243.127 252.527,235.127L252.527,203.527L277.727,189.527C278.127,189.527 278.527,189.127 278.927,189.127C286.127,184.727 288.927,175.927 284.527,168.727Z" style="fill-rule: nonzero;" fill="#A5BABF"></path></g><g><path d="M199.727,86.327C185.327,71.927 165.327,63.127 143.727,63.127C121.727,63.127 102.127,71.927 87.727,86.327C73.327,100.727 64.527,120.727 64.527,142.327C64.527,164.327 73.327,184.327 87.727,198.327C102.127,212.727 122.127,221.527 143.727,221.527C165.727,221.527 185.327,212.727 199.727,198.327C214.127,183.927 222.927,163.927 222.927,142.327C223.327,120.727 214.127,100.727 199.727,86.327M143.727,47.127C170.127,47.127 194.127,57.927 211.327,75.127C228.527,92.327 239.327,116.327 239.327,142.727C239.327,169.127 228.527,193.127 211.327,210.327C194.127,227.527 170.127,238.327 143.727,238.327C117.327,238.327 93.327,227.527 76.127,210.327C58.927,193.127 48.127,169.127 48.127,142.727C48.127,116.327 58.927,92.327 76.127,75.127C93.327,57.927 117.327,47.127 143.727,47.127Z" style="fill-rule: nonzero;" fill="#2F4D59"></path><path d="M108.562,188.647L108.562,170.447L144.442,137.947C146.695,135.78 148.515,133.57 149.902,131.317C151.289,129.064 151.982,126.55 151.982,123.777C151.982,120.484 150.942,117.819 148.862,115.782C146.782,113.745 144.009,112.727 140.542,112.727C136.902,112.727 133.934,114.005 131.637,116.562C129.34,119.119 127.975,122.477 127.542,126.637L106.612,123.777C107.132,119.097 108.41,114.937 110.447,111.297C112.484,107.657 115.062,104.559 118.182,102.002C121.302,99.445 124.877,97.495 128.907,96.152C132.937,94.809 137.205,94.137 141.712,94.137C145.959,94.137 150.075,94.7 154.062,95.827C158.049,96.954 161.602,98.687 164.722,101.027C167.842,103.367 170.334,106.314 172.197,109.867C174.06,113.42 174.992,117.58 174.992,122.347C174.992,125.64 174.559,128.609 173.692,131.252C172.825,133.895 171.634,136.344 170.117,138.597C168.6,140.85 166.867,142.952 164.917,144.902C162.967,146.852 160.952,148.78 158.872,150.687L137.552,169.667L175.122,169.667L175.122,188.647L108.562,188.647Z" style="fill-rule: nonzero;" fill="#2F4D59"></path></g></svg>