<svg xmlns="http://www.w3.org/2000/svg"
		 style="margin:auto;background:transparent;display:block;z-index:1;position:relative" width="1140" height="322"
		 preserveAspectRatio="xMidYMid" viewBox="0 0 1140 322">
	<defs>
		<pattern id="pid-0.012972200683235275" x="0" y="0" width="163.84" height="163.84" patternUnits="userSpaceOnUse">
			<g transform="scale(0.64)">
				<g transform="translate(-117.022 117.022)">
					<line x1="143.84957206530646" x2="124.52723804471583" y1="166.92392788243868" y2="186.2462619030293"
								stroke-width="5" stroke="#38737f" stroke-linecap="round"></line>
					<line x1="143.84957206530646" x2="124.52723804471583" y1="-345.07607211756135" y2="-325.75373809697066"
								stroke-width="5" stroke="#38737f" stroke-linecap="round"></line>
					<line x1="399.84957206530646" x2="380.52723804471583" y1="-345.07607211756135" y2="-325.75373809697066"
								stroke-width="5" stroke="#38737f" stroke-linecap="round"></line>
					<line x1="655.8495720653065" x2="636.5272380447159" y1="-345.07607211756135" y2="-325.75373809697066"
								stroke-width="5" stroke="#38737f" stroke-linecap="round"></line>
					<line x1="143.84957206530646" x2="124.52723804471583" y1="-89.07607211756132" y2="-69.7537380969707"
								stroke-width="5" stroke="#38737f" stroke-linecap="round"></line>
					<line x1="399.84957206530646" x2="380.52723804471583" y1="-89.07607211756132" y2="-69.7537380969707"
								stroke-width="5" stroke="#38737f" stroke-linecap="round"></line>
					<line x1="655.8495720653065" x2="636.5272380447159" y1="-89.07607211756132" y2="-69.7537380969707"
								stroke-width="5" stroke="#38737f" stroke-linecap="round"></line>
					<line x1="143.84957206530646" x2="124.52723804471583" y1="166.92392788243868" y2="186.2462619030293"
								stroke-width="5" stroke="#38737f" stroke-linecap="round"></line>
					<line x1="399.84957206530646" x2="380.52723804471583" y1="166.92392788243868" y2="186.2462619030293"
								stroke-width="5" stroke="#38737f" stroke-linecap="round"></line>
					<line x1="655.8495720653065" x2="636.5272380447159" y1="166.92392788243868" y2="186.2462619030293"
								stroke-width="5" stroke="#38737f" stroke-linecap="round"></line>
					<line x1="82.21324522531897" x2="67.88486872339114" y1="94.7096038921626" y2="109.03798039409044"
								stroke-width="5" stroke="#38737f" stroke-linecap="round"></line>
					<line x1="82.21324522531897" x2="67.88486872339114" y1="-417.2903961078374" y2="-402.9620196059096"
								stroke-width="5" stroke="#38737f" stroke-linecap="round"></line>
					<line x1="338.213245225319" x2="323.88486872339115" y1="-417.2903961078374" y2="-402.9620196059096"
								stroke-width="5" stroke="#38737f" stroke-linecap="round"></line>
					<line x1="594.2132452253189" x2="579.8848687233912" y1="-417.2903961078374" y2="-402.9620196059096"
								stroke-width="5" stroke="#38737f" stroke-linecap="round"></line>
					<line x1="82.21324522531897" x2="67.88486872339114" y1="-161.2903961078374" y2="-146.96201960590957"
								stroke-width="5" stroke="#38737f" stroke-linecap="round"></line>
					<line x1="338.213245225319" x2="323.88486872339115" y1="-161.2903961078374" y2="-146.96201960590957"
								stroke-width="5" stroke="#38737f" stroke-linecap="round"></line>
					<line x1="594.2132452253189" x2="579.8848687233912" y1="-161.2903961078374" y2="-146.96201960590957"
								stroke-width="5" stroke="#38737f" stroke-linecap="round"></line>
					<line x1="82.21324522531897" x2="67.88486872339114" y1="94.7096038921626" y2="109.03798039409044"
								stroke-width="5" stroke="#38737f" stroke-linecap="round"></line>
					<line x1="338.213245225319" x2="323.88486872339115" y1="94.7096038921626" y2="109.03798039409044"
								stroke-width="5" stroke="#38737f" stroke-linecap="round"></line>
					<line x1="594.2132452253189" x2="579.8848687233912" y1="94.7096038921626" y2="109.03798039409044"
								stroke-width="5" stroke="#38737f" stroke-linecap="round"></line>
					<line x1="69.8935377378155" x2="54.321702426807704" y1="195.1596231956872" y2="210.73145850669502"
								stroke-width="5" stroke="#38737f" stroke-linecap="round"></line>
					<line x1="69.8935377378155" x2="54.321702426807704" y1="-316.84037680431277" y2="-301.26854149330495"
								stroke-width="5" stroke="#38737f" stroke-linecap="round"></line>
					<line x1="325.8935377378155" x2="310.3217024268077" y1="-316.84037680431277" y2="-301.26854149330495"
								stroke-width="5" stroke="#38737f" stroke-linecap="round"></line>
					<line x1="581.8935377378154" x2="566.3217024268077" y1="-316.84037680431277" y2="-301.26854149330495"
								stroke-width="5" stroke="#38737f" stroke-linecap="round"></line>
					<line x1="69.8935377378155" x2="54.321702426807704" y1="-60.8403768043128" y2="-45.26854149330498"
								stroke-width="5" stroke="#38737f" stroke-linecap="round"></line>
					<line x1="325.8935377378155" x2="310.3217024268077" y1="-60.8403768043128" y2="-45.26854149330498"
								stroke-width="5" stroke="#38737f" stroke-linecap="round"></line>
					<line x1="581.8935377378154" x2="566.3217024268077" y1="-60.8403768043128" y2="-45.26854149330498"
								stroke-width="5" stroke="#38737f" stroke-linecap="round"></line>
					<line x1="69.8935377378155" x2="54.321702426807704" y1="195.1596231956872" y2="210.73145850669502"
								stroke-width="5" stroke="#38737f" stroke-linecap="round"></line>
					<line x1="325.8935377378155" x2="310.3217024268077" y1="195.1596231956872" y2="210.73145850669502"
								stroke-width="5" stroke="#38737f" stroke-linecap="round"></line>
					<line x1="581.8935377378154" x2="566.3217024268077" y1="195.1596231956872" y2="210.73145850669502"
								stroke-width="5" stroke="#38737f" stroke-linecap="round"></line>
					<line x1="113.06189567886118" x2="97.70900090449793" y1="-6.045532009467255" y2="9.307362764896002"
								stroke-width="5" stroke="#38737f" stroke-linecap="round"></line>
					<line x1="113.06189567886118" x2="97.70900090449793" y1="-518.0455320094673" y2="-502.692637235104"
								stroke-width="5" stroke="#38737f" stroke-linecap="round"></line>
					<line x1="369.06189567886116" x2="353.70900090449794" y1="-518.0455320094673" y2="-502.692637235104"
								stroke-width="5" stroke="#38737f" stroke-linecap="round"></line>
					<line x1="625.0618956788612" x2="609.7090009044979" y1="-518.0455320094673" y2="-502.692637235104"
								stroke-width="5" stroke="#38737f" stroke-linecap="round"></line>
					<line x1="113.06189567886118" x2="97.70900090449793" y1="-262.04553200946725" y2="-246.692637235104"
								stroke-width="5" stroke="#38737f" stroke-linecap="round"></line>
					<line x1="369.06189567886116" x2="353.70900090449794" y1="-262.04553200946725" y2="-246.692637235104"
								stroke-width="5" stroke="#38737f" stroke-linecap="round"></line>
					<line x1="625.0618956788612" x2="609.7090009044979" y1="-262.04553200946725" y2="-246.692637235104"
								stroke-width="5" stroke="#38737f" stroke-linecap="round"></line>
					<line x1="113.06189567886118" x2="97.70900090449793" y1="-6.045532009467255" y2="9.307362764896002"
								stroke-width="5" stroke="#38737f" stroke-linecap="round"></line>
					<line x1="369.06189567886116" x2="353.70900090449794" y1="-6.045532009467255" y2="9.307362764896002"
								stroke-width="5" stroke="#38737f" stroke-linecap="round"></line>
					<line x1="625.0618956788612" x2="609.7090009044979" y1="-6.045532009467255" y2="9.307362764896002"
								stroke-width="5" stroke="#38737f" stroke-linecap="round"></line>
					<line x1="113.06189567886118" x2="97.70900090449793" y1="249.95446799053275" y2="265.307362764896"
								stroke-width="5" stroke="#38737f" stroke-linecap="round"></line>
					<line x1="72.70558884396478" x2="56.50717020178867" y1="47.23415846608448" y2="63.43257710826059"
								stroke-width="5" stroke="#38737f" stroke-linecap="round"></line>
					<line x1="72.70558884396478" x2="56.50717020178867" y1="-464.76584153391553" y2="-448.5674228917394"
								stroke-width="5" stroke="#38737f" stroke-linecap="round"></line>
					<line x1="328.7055888439648" x2="312.50717020178865" y1="-464.76584153391553" y2="-448.5674228917394"
								stroke-width="5" stroke="#38737f" stroke-linecap="round"></line>
					<line x1="584.7055888439647" x2="568.5071702017887" y1="-464.76584153391553" y2="-448.5674228917394"
								stroke-width="5" stroke="#38737f" stroke-linecap="round"></line>
					<line x1="72.70558884396478" x2="56.50717020178867" y1="-208.76584153391553" y2="-192.5674228917394"
								stroke-width="5" stroke="#38737f" stroke-linecap="round"></line>
					<line x1="328.7055888439648" x2="312.50717020178865" y1="-208.76584153391553" y2="-192.5674228917394"
								stroke-width="5" stroke="#38737f" stroke-linecap="round"></line>
					<line x1="584.7055888439647" x2="568.5071702017887" y1="-208.76584153391553" y2="-192.5674228917394"
								stroke-width="5" stroke="#38737f" stroke-linecap="round"></line>
					<line x1="72.70558884396478" x2="56.50717020178867" y1="47.23415846608448" y2="63.43257710826059"
								stroke-width="5" stroke="#38737f" stroke-linecap="round"></line>
					<line x1="328.7055888439648" x2="312.50717020178865" y1="47.23415846608448" y2="63.43257710826059"
								stroke-width="5" stroke="#38737f" stroke-linecap="round"></line>
					<line x1="584.7055888439647" x2="568.5071702017887" y1="47.23415846608448" y2="63.43257710826059"
								stroke-width="5" stroke="#38737f" stroke-linecap="round"></line>
					<line x1="96.54218792843231" x2="74.36672739294035" y1="188.21614154472755" y2="210.39160208021949"
								stroke-width="5" stroke="#38737f" stroke-linecap="round"></line>
					<line x1="96.54218792843231" x2="74.36672739294035" y1="-323.7838584552725" y2="-301.6083979197805"
								stroke-width="5" stroke="#38737f" stroke-linecap="round"></line>
					<line x1="352.5421879284323" x2="330.36672739294033" y1="-323.7838584552725" y2="-301.6083979197805"
								stroke-width="5" stroke="#38737f" stroke-linecap="round"></line>
					<line x1="608.5421879284323" x2="586.3667273929403" y1="-323.7838584552725" y2="-301.6083979197805"
								stroke-width="5" stroke="#38737f" stroke-linecap="round"></line>
					<line x1="96.54218792843231" x2="74.36672739294035" y1="-67.78385845527245" y2="-45.608397919780515"
								stroke-width="5" stroke="#38737f" stroke-linecap="round"></line>
					<line x1="352.5421879284323" x2="330.36672739294033" y1="-67.78385845527245" y2="-45.608397919780515"
								stroke-width="5" stroke="#38737f" stroke-linecap="round"></line>
					<line x1="608.5421879284323" x2="586.3667273929403" y1="-67.78385845527245" y2="-45.608397919780515"
								stroke-width="5" stroke="#38737f" stroke-linecap="round"></line>
					<line x1="96.54218792843231" x2="74.36672739294035" y1="188.21614154472755" y2="210.39160208021949"
								stroke-width="5" stroke="#38737f" stroke-linecap="round"></line>
					<line x1="352.5421879284323" x2="330.36672739294033" y1="188.21614154472755" y2="210.39160208021949"
								stroke-width="5" stroke="#38737f" stroke-linecap="round"></line>
					<line x1="608.5421879284323" x2="586.3667273929403" y1="188.21614154472755" y2="210.39160208021949"
								stroke-width="5" stroke="#38737f" stroke-linecap="round"></line>
					<line x1="156.4479030699018" x2="130.5595858189512" y1="201.76143064529197" y2="227.64974789624256"
								stroke-width="5" stroke="#38737f" stroke-linecap="round"></line>
					<line x1="156.4479030699018" x2="130.5595858189512" y1="-310.23856935470803" y2="-284.35025210375744"
								stroke-width="5" stroke="#38737f" stroke-linecap="round"></line>
					<line x1="412.4479030699018" x2="386.5595858189512" y1="-310.23856935470803" y2="-284.35025210375744"
								stroke-width="5" stroke="#38737f" stroke-linecap="round"></line>
					<line x1="668.4479030699018" x2="642.5595858189512" y1="-310.23856935470803" y2="-284.35025210375744"
								stroke-width="5" stroke="#38737f" stroke-linecap="round"></line>
					<line x1="156.4479030699018" x2="130.5595858189512" y1="-54.238569354708034" y2="-28.35025210375744"
								stroke-width="5" stroke="#38737f" stroke-linecap="round"></line>
					<line x1="412.4479030699018" x2="386.5595858189512" y1="-54.238569354708034" y2="-28.35025210375744"
								stroke-width="5" stroke="#38737f" stroke-linecap="round"></line>
					<line x1="668.4479030699018" x2="642.5595858189512" y1="-54.238569354708034" y2="-28.35025210375744"
								stroke-width="5" stroke="#38737f" stroke-linecap="round"></line>
					<line x1="156.4479030699018" x2="130.5595858189512" y1="201.76143064529197" y2="227.64974789624256"
								stroke-width="5" stroke="#38737f" stroke-linecap="round"></line>
					<line x1="412.4479030699018" x2="386.5595858189512" y1="201.76143064529197" y2="227.64974789624256"
								stroke-width="5" stroke="#38737f" stroke-linecap="round"></line>
					<line x1="668.4479030699018" x2="642.5595858189512" y1="201.76143064529197" y2="227.64974789624256"
								stroke-width="5" stroke="#38737f" stroke-linecap="round"></line>
					<line x1="237.92692532673533" x2="209.0389207225884" y1="115.14927436061981" y2="144.03727896476676"
								stroke-width="5" stroke="#38737f" stroke-linecap="round"></line>
					<line x1="237.92692532673533" x2="209.0389207225884" y1="-396.8507256393802" y2="-367.96272103523324"
								stroke-width="5" stroke="#38737f" stroke-linecap="round"></line>
					<line x1="493.92692532673533" x2="465.0389207225884" y1="-396.8507256393802" y2="-367.96272103523324"
								stroke-width="5" stroke="#38737f" stroke-linecap="round"></line>
					<line x1="749.9269253267353" x2="721.0389207225884" y1="-396.8507256393802" y2="-367.96272103523324"
								stroke-width="5" stroke="#38737f" stroke-linecap="round"></line>
					<line x1="237.92692532673533" x2="209.0389207225884" y1="-140.8507256393802" y2="-111.96272103523324"
								stroke-width="5" stroke="#38737f" stroke-linecap="round"></line>
					<line x1="493.92692532673533" x2="465.0389207225884" y1="-140.8507256393802" y2="-111.96272103523324"
								stroke-width="5" stroke="#38737f" stroke-linecap="round"></line>
					<line x1="749.9269253267353" x2="721.0389207225884" y1="-140.8507256393802" y2="-111.96272103523324"
								stroke-width="5" stroke="#38737f" stroke-linecap="round"></line>
					<line x1="237.92692532673533" x2="209.0389207225884" y1="115.14927436061981" y2="144.03727896476676"
								stroke-width="5" stroke="#38737f" stroke-linecap="round"></line>
					<line x1="493.92692532673533" x2="465.0389207225884" y1="115.14927436061981" y2="144.03727896476676"
								stroke-width="5" stroke="#38737f" stroke-linecap="round"></line>
					<line x1="749.9269253267353" x2="721.0389207225884" y1="115.14927436061981" y2="144.03727896476676"
								stroke-width="5" stroke="#38737f" stroke-linecap="round"></line>
					<line x1="108.01025027822675" x2="83.96346780676535" y1="30.96425517019967" y2="55.01103764166107"
								stroke-width="5" stroke="#38737f" stroke-linecap="round"></line>
					<line x1="108.01025027822675" x2="83.96346780676535" y1="-481.0357448298003" y2="-456.98896235833894"
								stroke-width="5" stroke="#38737f" stroke-linecap="round"></line>
					<line x1="364.01025027822675" x2="339.9634678067654" y1="-481.0357448298003" y2="-456.98896235833894"
								stroke-width="5" stroke="#38737f" stroke-linecap="round"></line>
					<line x1="620.0102502782267" x2="595.9634678067654" y1="-481.0357448298003" y2="-456.98896235833894"
								stroke-width="5" stroke="#38737f" stroke-linecap="round"></line>
					<line x1="108.01025027822675" x2="83.96346780676535" y1="-225.03574482980034" y2="-200.98896235833894"
								stroke-width="5" stroke="#38737f" stroke-linecap="round"></line>
					<line x1="364.01025027822675" x2="339.9634678067654" y1="-225.03574482980034" y2="-200.98896235833894"
								stroke-width="5" stroke="#38737f" stroke-linecap="round"></line>
					<line x1="620.0102502782267" x2="595.9634678067654" y1="-225.03574482980034" y2="-200.98896235833894"
								stroke-width="5" stroke="#38737f" stroke-linecap="round"></line>
					<line x1="108.01025027822675" x2="83.96346780676535" y1="30.96425517019967" y2="55.01103764166107"
								stroke-width="5" stroke="#38737f" stroke-linecap="round"></line>
					<line x1="364.01025027822675" x2="339.9634678067654" y1="30.96425517019967" y2="55.01103764166107"
								stroke-width="5" stroke="#38737f" stroke-linecap="round"></line>
					<line x1="620.0102502782267" x2="595.9634678067654" y1="30.96425517019967" y2="55.01103764166107"
								stroke-width="5" stroke="#38737f" stroke-linecap="round"></line>
					<line x1="219.3056361553247" x2="202.22829765464257" y1="220.15363743370065" y2="237.23097593438277"
								stroke-width="5" stroke="#38737f" stroke-linecap="round"></line>
					<line x1="219.3056361553247" x2="202.22829765464257" y1="-291.8463625662994" y2="-274.76902406561726"
								stroke-width="5" stroke="#38737f" stroke-linecap="round"></line>
					<line x1="475.3056361553247" x2="458.2282976546426" y1="-291.8463625662994" y2="-274.76902406561726"
								stroke-width="5" stroke="#38737f" stroke-linecap="round"></line>
					<line x1="731.3056361553247" x2="714.2282976546426" y1="-291.8463625662994" y2="-274.76902406561726"
								stroke-width="5" stroke="#38737f" stroke-linecap="round"></line>
					<line x1="219.3056361553247" x2="202.22829765464257" y1="-35.84636256629935" y2="-18.76902406561723"
								stroke-width="5" stroke="#38737f" stroke-linecap="round"></line>
					<line x1="475.3056361553247" x2="458.2282976546426" y1="-35.84636256629935" y2="-18.76902406561723"
								stroke-width="5" stroke="#38737f" stroke-linecap="round"></line>
					<line x1="731.3056361553247" x2="714.2282976546426" y1="-35.84636256629935" y2="-18.76902406561723"
								stroke-width="5" stroke="#38737f" stroke-linecap="round"></line>
					<line x1="219.3056361553247" x2="202.22829765464257" y1="220.15363743370065" y2="237.23097593438277"
								stroke-width="5" stroke="#38737f" stroke-linecap="round"></line>
					<line x1="475.3056361553247" x2="458.2282976546426" y1="220.15363743370065" y2="237.23097593438277"
								stroke-width="5" stroke="#38737f" stroke-linecap="round"></line>
					<line x1="731.3056361553247" x2="714.2282976546426" y1="220.15363743370065" y2="237.23097593438277"
								stroke-width="5" stroke="#38737f" stroke-linecap="round"></line>
					<animateTransform attributeName="transform" type="translate" values="0 0;-256 256" keyTimes="0;1"
														repeatCount="indefinite" dur="5s"></animateTransform>
				</g>
				<g transform="translate(-234.044 234.044)">

					<line x1="40.9928975182779" x2="33.79733990665973" y1="193.35096324031437" y2="200.54652085193257"
								stroke-width="5" stroke="#38737f" stroke-linecap="round"></line>
					<line x1="40.9928975182779" x2="33.79733990665973" y1="-318.6490367596856" y2="-311.45347914806746"
								stroke-width="5" stroke="#38737f" stroke-linecap="round"></line>
					<line x1="296.9928975182779" x2="289.7973399066597" y1="-318.6490367596856" y2="-311.45347914806746"
								stroke-width="5" stroke="#38737f" stroke-linecap="round"></line>
					<line x1="552.9928975182779" x2="545.7973399066598" y1="-318.6490367596856" y2="-311.45347914806746"
								stroke-width="5" stroke="#38737f" stroke-linecap="round"></line>
					<line x1="40.9928975182779" x2="33.79733990665973" y1="-62.64903675968563" y2="-55.45347914806743"
								stroke-width="5" stroke="#38737f" stroke-linecap="round"></line>
					<line x1="296.9928975182779" x2="289.7973399066597" y1="-62.64903675968563" y2="-55.45347914806743"
								stroke-width="5" stroke="#38737f" stroke-linecap="round"></line>
					<line x1="552.9928975182779" x2="545.7973399066598" y1="-62.64903675968563" y2="-55.45347914806743"
								stroke-width="5" stroke="#38737f" stroke-linecap="round"></line>
					<line x1="40.9928975182779" x2="33.79733990665973" y1="193.35096324031437" y2="200.54652085193257"
								stroke-width="5" stroke="#38737f" stroke-linecap="round"></line>
					<line x1="296.9928975182779" x2="289.7973399066597" y1="193.35096324031437" y2="200.54652085193257"
								stroke-width="5" stroke="#38737f" stroke-linecap="round"></line>
					<line x1="552.9928975182779" x2="545.7973399066598" y1="193.35096324031437" y2="200.54652085193257"
								stroke-width="5" stroke="#38737f" stroke-linecap="round"></line>
					<line x1="143.37490676884062" x2="124.17247866608851" y1="91.90792026313854" y2="111.11034836589066"
								stroke-width="5" stroke="#6099a5" stroke-linecap="round"></line>
					<line x1="143.37490676884062" x2="124.17247866608851" y1="-420.0920797368615" y2="-400.8896516341093"
								stroke-width="5" stroke="#6099a5" stroke-linecap="round"></line>
					<line x1="399.3749067688406" x2="380.1724786660885" y1="-420.0920797368615" y2="-400.8896516341093"
								stroke-width="5" stroke="#6099a5" stroke-linecap="round"></line>
					<line x1="655.3749067688407" x2="636.1724786660885" y1="-420.0920797368615" y2="-400.8896516341093"
								stroke-width="5" stroke="#6099a5" stroke-linecap="round"></line>
					<line x1="143.37490676884062" x2="124.17247866608851" y1="-164.09207973686148" y2="-144.88965163410933"
								stroke-width="5" stroke="#6099a5" stroke-linecap="round"></line>
					<line x1="399.3749067688406" x2="380.1724786660885" y1="-164.09207973686148" y2="-144.88965163410933"
								stroke-width="5" stroke="#6099a5" stroke-linecap="round"></line>
					<line x1="655.3749067688407" x2="636.1724786660885" y1="-164.09207973686148" y2="-144.88965163410933"
								stroke-width="5" stroke="#6099a5" stroke-linecap="round"></line>
					<line x1="143.37490676884062" x2="124.17247866608851" y1="91.90792026313854" y2="111.11034836589066"
								stroke-width="5" stroke="#6099a5" stroke-linecap="round"></line>
					<line x1="399.3749067688406" x2="380.1724786660885" y1="91.90792026313854" y2="111.11034836589066"
								stroke-width="5" stroke="#6099a5" stroke-linecap="round"></line>
					<line x1="655.3749067688407" x2="636.1724786660885" y1="91.90792026313854" y2="111.11034836589066"
								stroke-width="5" stroke="#6099a5" stroke-linecap="round"></line>
					<line x1="134.98977620668995" x2="107.72420678166642" y1="65.11401449902769" y2="92.37958392405125"
								stroke-width="5" stroke="#6099a5" stroke-linecap="round"></line>
					<line x1="134.98977620668995" x2="107.72420678166642" y1="-446.8859855009723" y2="-419.62041607594875"
								stroke-width="5" stroke="#6099a5" stroke-linecap="round"></line>
					<line x1="390.98977620668995" x2="363.72420678166645" y1="-446.8859855009723" y2="-419.62041607594875"
								stroke-width="5" stroke="#6099a5" stroke-linecap="round"></line>
					<line x1="646.98977620669" x2="619.7242067816665" y1="-446.8859855009723" y2="-419.62041607594875"
								stroke-width="5" stroke="#6099a5" stroke-linecap="round"></line>
					<line x1="134.98977620668995" x2="107.72420678166642" y1="-190.8859855009723" y2="-163.62041607594875"
								stroke-width="5" stroke="#6099a5" stroke-linecap="round"></line>
					<line x1="390.98977620668995" x2="363.72420678166645" y1="-190.8859855009723" y2="-163.62041607594875"
								stroke-width="5" stroke="#6099a5" stroke-linecap="round"></line>
					<line x1="646.98977620669" x2="619.7242067816665" y1="-190.8859855009723" y2="-163.62041607594875"
								stroke-width="5" stroke="#6099a5" stroke-linecap="round"></line>
					<line x1="134.98977620668995" x2="107.72420678166642" y1="65.11401449902769" y2="92.37958392405125"
								stroke-width="5" stroke="#6099a5" stroke-linecap="round"></line>
					<line x1="390.98977620668995" x2="363.72420678166645" y1="65.11401449902769" y2="92.37958392405125"
								stroke-width="5" stroke="#6099a5" stroke-linecap="round"></line>
					<line x1="646.98977620669" x2="619.7242067816665" y1="65.11401449902769" y2="92.37958392405125"
								stroke-width="5" stroke="#6099a5" stroke-linecap="round"></line>
					<line x1="223.2457630802666" x2="215.55166791945277" y1="50.77954856700947" y2="58.4736437278233"
								stroke-width="5" stroke="#6099a5" stroke-linecap="round"></line>
					<line x1="223.2457630802666" x2="215.55166791945277" y1="-461.22045143299056" y2="-453.5263562721767"
								stroke-width="5" stroke="#6099a5" stroke-linecap="round"></line>
					<line x1="479.2457630802666" x2="471.55166791945277" y1="-461.22045143299056" y2="-453.5263562721767"
								stroke-width="5" stroke="#6099a5" stroke-linecap="round"></line>
					<line x1="735.2457630802667" x2="727.5516679194527" y1="-461.22045143299056" y2="-453.5263562721767"
								stroke-width="5" stroke="#6099a5" stroke-linecap="round"></line>
					<line x1="223.2457630802666" x2="215.55166791945277" y1="-205.22045143299053" y2="-197.5263562721767"
								stroke-width="5" stroke="#6099a5" stroke-linecap="round"></line>
					<line x1="479.2457630802666" x2="471.55166791945277" y1="-205.22045143299053" y2="-197.5263562721767"
								stroke-width="5" stroke="#6099a5" stroke-linecap="round"></line>
					<line x1="735.2457630802667" x2="727.5516679194527" y1="-205.22045143299053" y2="-197.5263562721767"
								stroke-width="5" stroke="#6099a5" stroke-linecap="round"></line>
					<line x1="223.2457630802666" x2="215.55166791945277" y1="50.77954856700947" y2="58.4736437278233"
								stroke-width="5" stroke="#6099a5" stroke-linecap="round"></line>
					<line x1="479.2457630802666" x2="471.55166791945277" y1="50.77954856700947" y2="58.4736437278233"
								stroke-width="5" stroke="#6099a5" stroke-linecap="round"></line>
					<line x1="735.2457630802667" x2="727.5516679194527" y1="50.77954856700947" y2="58.4736437278233"
								stroke-width="5" stroke="#6099a5" stroke-linecap="round"></line>
					<line x1="230.0820530369287" x2="203.03375839940395" y1="160.46245064963557" y2="187.51074528716032"
								stroke-width="5" stroke="#6099a5" stroke-linecap="round"></line>
					<line x1="230.0820530369287" x2="203.03375839940395" y1="-351.53754935036443" y2="-324.4892547128397"
								stroke-width="5" stroke="#6099a5" stroke-linecap="round"></line>
					<line x1="486.0820530369287" x2="459.03375839940395" y1="-351.53754935036443" y2="-324.4892547128397"
								stroke-width="5" stroke="#6099a5" stroke-linecap="round"></line>
					<line x1="742.0820530369288" x2="715.033758399404" y1="-351.53754935036443" y2="-324.4892547128397"
								stroke-width="5" stroke="#6099a5" stroke-linecap="round"></line>
					<line x1="230.0820530369287" x2="203.03375839940395" y1="-95.53754935036443" y2="-68.48925471283968"
								stroke-width="5" stroke="#6099a5" stroke-linecap="round"></line>
					<line x1="486.0820530369287" x2="459.03375839940395" y1="-95.53754935036443" y2="-68.48925471283968"
								stroke-width="5" stroke="#6099a5" stroke-linecap="round"></line>
					<line x1="742.0820530369288" x2="715.033758399404" y1="-95.53754935036443" y2="-68.48925471283968"
								stroke-width="5" stroke="#6099a5" stroke-linecap="round"></line>
					<line x1="230.0820530369287" x2="203.03375839940395" y1="160.46245064963557" y2="187.51074528716032"
								stroke-width="5" stroke="#6099a5" stroke-linecap="round"></line>
					<line x1="486.0820530369287" x2="459.03375839940395" y1="160.46245064963557" y2="187.51074528716032"
								stroke-width="5" stroke="#6099a5" stroke-linecap="round"></line>
					<line x1="742.0820530369288" x2="715.033758399404" y1="160.46245064963557" y2="187.51074528716032"
								stroke-width="5" stroke="#6099a5" stroke-linecap="round"></line>
					<line x1="105.54136777584182" x2="78.71471008717532" y1="143.32981174900956" y2="170.15646943767607"
								stroke-width="5" stroke="#6099a5" stroke-linecap="round"></line>
					<line x1="105.54136777584182" x2="78.71471008717532" y1="-368.67018825099046" y2="-341.84353056232396"
								stroke-width="5" stroke="#6099a5" stroke-linecap="round"></line>
					<line x1="361.5413677758418" x2="334.7147100871753" y1="-368.67018825099046" y2="-341.84353056232396"
								stroke-width="5" stroke="#6099a5" stroke-linecap="round"></line>
					<line x1="617.5413677758418" x2="590.7147100871753" y1="-368.67018825099046" y2="-341.84353056232396"
								stroke-width="5" stroke="#6099a5" stroke-linecap="round"></line>
					<line x1="105.54136777584182" x2="78.71471008717532" y1="-112.67018825099044" y2="-85.84353056232393"
								stroke-width="5" stroke="#6099a5" stroke-linecap="round"></line>
					<line x1="361.5413677758418" x2="334.7147100871753" y1="-112.67018825099044" y2="-85.84353056232393"
								stroke-width="5" stroke="#6099a5" stroke-linecap="round"></line>
					<line x1="617.5413677758418" x2="590.7147100871753" y1="-112.67018825099044" y2="-85.84353056232393"
								stroke-width="5" stroke="#6099a5" stroke-linecap="round"></line>
					<line x1="105.54136777584182" x2="78.71471008717532" y1="143.32981174900956" y2="170.15646943767607"
								stroke-width="5" stroke="#6099a5" stroke-linecap="round"></line>
					<line x1="361.5413677758418" x2="334.7147100871753" y1="143.32981174900956" y2="170.15646943767607"
								stroke-width="5" stroke="#6099a5" stroke-linecap="round"></line>
					<line x1="617.5413677758418" x2="590.7147100871753" y1="143.32981174900956" y2="170.15646943767607"
								stroke-width="5" stroke="#6099a5" stroke-linecap="round"></line>
					<line x1="83.1214699767064" x2="72.43643249347112" y1="37.83058174669094" y2="48.515619229926216"
								stroke-width="5" stroke="#38737f" stroke-linecap="round"></line>
					<line x1="83.1214699767064" x2="72.43643249347112" y1="-474.16941825330906" y2="-463.4843807700738"
								stroke-width="5" stroke="#38737f" stroke-linecap="round"></line>
					<line x1="339.1214699767064" x2="328.4364324934711" y1="-474.16941825330906" y2="-463.4843807700738"
								stroke-width="5" stroke="#38737f" stroke-linecap="round"></line>
					<line x1="595.1214699767064" x2="584.4364324934711" y1="-474.16941825330906" y2="-463.4843807700738"
								stroke-width="5" stroke="#38737f" stroke-linecap="round"></line>
					<line x1="83.1214699767064" x2="72.43643249347112" y1="-218.16941825330906" y2="-207.48438077007378"
								stroke-width="5" stroke="#38737f" stroke-linecap="round"></line>
					<line x1="339.1214699767064" x2="328.4364324934711" y1="-218.16941825330906" y2="-207.48438077007378"
								stroke-width="5" stroke="#38737f" stroke-linecap="round"></line>
					<line x1="595.1214699767064" x2="584.4364324934711" y1="-218.16941825330906" y2="-207.48438077007378"
								stroke-width="5" stroke="#38737f" stroke-linecap="round"></line>
					<line x1="83.1214699767064" x2="72.43643249347112" y1="37.83058174669094" y2="48.515619229926216"
								stroke-width="5" stroke="#38737f" stroke-linecap="round"></line>
					<line x1="339.1214699767064" x2="328.4364324934711" y1="37.83058174669094" y2="48.515619229926216"
								stroke-width="5" stroke="#38737f" stroke-linecap="round"></line>
					<line x1="595.1214699767064" x2="584.4364324934711" y1="37.83058174669094" y2="48.515619229926216"
								stroke-width="5" stroke="#38737f" stroke-linecap="round"></line>
					<line x1="239.3802293975809" x2="214.30709654322098" y1="192.22762406553272" y2="217.30075691989265"
								stroke-width="5" stroke="#6099a5" stroke-linecap="round"></line>
					<line x1="239.3802293975809" x2="214.30709654322098" y1="-319.7723759344673" y2="-294.69924308010735"
								stroke-width="5" stroke="#6099a5" stroke-linecap="round"></line>
					<line x1="495.38022939758093" x2="470.30709654322095" y1="-319.7723759344673" y2="-294.69924308010735"
								stroke-width="5" stroke="#6099a5" stroke-linecap="round"></line>
					<line x1="751.3802293975809" x2="726.307096543221" y1="-319.7723759344673" y2="-294.69924308010735"
								stroke-width="5" stroke="#6099a5" stroke-linecap="round"></line>
					<line x1="239.3802293975809" x2="214.30709654322098" y1="-63.77237593446728" y2="-38.69924308010735"
								stroke-width="5" stroke="#6099a5" stroke-linecap="round"></line>
					<line x1="495.38022939758093" x2="470.30709654322095" y1="-63.77237593446728" y2="-38.69924308010735"
								stroke-width="5" stroke="#6099a5" stroke-linecap="round"></line>
					<line x1="751.3802293975809" x2="726.307096543221" y1="-63.77237593446728" y2="-38.69924308010735"
								stroke-width="5" stroke="#6099a5" stroke-linecap="round"></line>
					<line x1="239.3802293975809" x2="214.30709654322098" y1="192.22762406553272" y2="217.30075691989265"
								stroke-width="5" stroke="#6099a5" stroke-linecap="round"></line>
					<line x1="495.38022939758093" x2="470.30709654322095" y1="192.22762406553272" y2="217.30075691989265"
								stroke-width="5" stroke="#6099a5" stroke-linecap="round"></line>
					<line x1="751.3802293975809" x2="726.307096543221" y1="192.22762406553272" y2="217.30075691989265"
								stroke-width="5" stroke="#6099a5" stroke-linecap="round"></line>
					<line x1="106.15402528548793" x2="95.1979556851937" y1="108.43128619691825" y2="119.38735579721248"
								stroke-width="5" stroke="#6099a5" stroke-linecap="round"></line>
					<line x1="106.15402528548793" x2="95.1979556851937" y1="-403.5687138030818" y2="-392.6126442027875"
								stroke-width="5" stroke="#6099a5" stroke-linecap="round"></line>
					<line x1="362.15402528548793" x2="351.19795568519373" y1="-403.5687138030818" y2="-392.6126442027875"
								stroke-width="5" stroke="#6099a5" stroke-linecap="round"></line>
					<line x1="618.1540252854879" x2="607.1979556851937" y1="-403.5687138030818" y2="-392.6126442027875"
								stroke-width="5" stroke="#6099a5" stroke-linecap="round"></line>
					<line x1="106.15402528548793" x2="95.1979556851937" y1="-147.56871380308175" y2="-136.61264420278752"
								stroke-width="5" stroke="#6099a5" stroke-linecap="round"></line>
					<line x1="362.15402528548793" x2="351.19795568519373" y1="-147.56871380308175" y2="-136.61264420278752"
								stroke-width="5" stroke="#6099a5" stroke-linecap="round"></line>
					<line x1="618.1540252854879" x2="607.1979556851937" y1="-147.56871380308175" y2="-136.61264420278752"
								stroke-width="5" stroke="#6099a5" stroke-linecap="round"></line>
					<line x1="106.15402528548793" x2="95.1979556851937" y1="108.43128619691825" y2="119.38735579721248"
								stroke-width="5" stroke="#6099a5" stroke-linecap="round"></line>
					<line x1="362.15402528548793" x2="351.19795568519373" y1="108.43128619691825" y2="119.38735579721248"
								stroke-width="5" stroke="#6099a5" stroke-linecap="round"></line>
					<line x1="618.1540252854879" x2="607.1979556851937" y1="108.43128619691825" y2="119.38735579721248"
								stroke-width="5" stroke="#6099a5" stroke-linecap="round"></line>
					<line x1="106.98302301996263" x2="84.22858006295984" y1="187.61973030123013" y2="210.3741732582329"
								stroke-width="5" stroke="#6099a5" stroke-linecap="round"></line>
					<line x1="106.98302301996263" x2="84.22858006295984" y1="-324.3802696987699" y2="-301.6258267417671"
								stroke-width="5" stroke="#6099a5" stroke-linecap="round"></line>
					<line x1="362.9830230199626" x2="340.22858006295985" y1="-324.3802696987699" y2="-301.6258267417671"
								stroke-width="5" stroke="#6099a5" stroke-linecap="round"></line>
					<line x1="618.9830230199626" x2="596.2285800629598" y1="-324.3802696987699" y2="-301.6258267417671"
								stroke-width="5" stroke="#6099a5" stroke-linecap="round"></line>
					<line x1="106.98302301996263" x2="84.22858006295984" y1="-68.38026969876987" y2="-45.6258267417671"
								stroke-width="5" stroke="#6099a5" stroke-linecap="round"></line>
					<line x1="362.9830230199626" x2="340.22858006295985" y1="-68.38026969876987" y2="-45.6258267417671"
								stroke-width="5" stroke="#6099a5" stroke-linecap="round"></line>
					<line x1="618.9830230199626" x2="596.2285800629598" y1="-68.38026969876987" y2="-45.6258267417671"
								stroke-width="5" stroke="#6099a5" stroke-linecap="round"></line>
					<line x1="106.98302301996263" x2="84.22858006295984" y1="187.61973030123013" y2="210.3741732582329"
								stroke-width="5" stroke="#6099a5" stroke-linecap="round"></line>
					<line x1="362.9830230199626" x2="340.22858006295985" y1="187.61973030123013" y2="210.3741732582329"
								stroke-width="5" stroke="#6099a5" stroke-linecap="round"></line>
					<line x1="618.9830230199626" x2="596.2285800629598" y1="187.61973030123013" y2="210.3741732582329"
								stroke-width="5" stroke="#6099a5" stroke-linecap="round"></line>
					<animateTransform attributeName="transform" type="translate" values="0 0;-256 256" keyTimes="0;1"
														repeatCount="indefinite" dur="2.5s"></animateTransform>
				</g>
				<g transform="translate(-95.0666 95.0666)">

					<line x1="147.27923395773675" x2="118.14572195833213" y1="206.53734629677538" y2="235.67085829618"
								stroke-width="5" stroke="#88c3cf" stroke-linecap="round"></line>
					<line x1="147.27923395773675" x2="118.14572195833213" y1="-305.46265370322465" y2="-276.32914170382"
								stroke-width="5" stroke="#88c3cf" stroke-linecap="round"></line>
					<line x1="403.2792339577368" x2="374.14572195833216" y1="-305.46265370322465" y2="-276.32914170382"
								stroke-width="5" stroke="#88c3cf" stroke-linecap="round"></line>
					<line x1="659.2792339577368" x2="630.1457219583322" y1="-305.46265370322465" y2="-276.32914170382"
								stroke-width="5" stroke="#88c3cf" stroke-linecap="round"></line>
					<line x1="147.27923395773675" x2="118.14572195833213" y1="-49.46265370322462" y2="-20.32914170382"
								stroke-width="5" stroke="#88c3cf" stroke-linecap="round"></line>
					<line x1="403.2792339577368" x2="374.14572195833216" y1="-49.46265370322462" y2="-20.32914170382"
								stroke-width="5" stroke="#88c3cf" stroke-linecap="round"></line>
					<line x1="659.2792339577368" x2="630.1457219583322" y1="-49.46265370322462" y2="-20.32914170382"
								stroke-width="5" stroke="#88c3cf" stroke-linecap="round"></line>
					<line x1="147.27923395773675" x2="118.14572195833213" y1="206.53734629677538" y2="235.67085829618"
								stroke-width="5" stroke="#88c3cf" stroke-linecap="round"></line>
					<line x1="403.2792339577368" x2="374.14572195833216" y1="206.53734629677538" y2="235.67085829618"
								stroke-width="5" stroke="#88c3cf" stroke-linecap="round"></line>
					<line x1="659.2792339577368" x2="630.1457219583322" y1="206.53734629677538" y2="235.67085829618"
								stroke-width="5" stroke="#88c3cf" stroke-linecap="round"></line>
					<line x1="161.3751142308616" x2="139.32774642792847" y1="19.276851328716415" y2="41.32421913164957"
								stroke-width="5" stroke="#88c3cf" stroke-linecap="round"></line>
					<line x1="161.3751142308616" x2="139.32774642792847" y1="-492.7231486712836" y2="-470.67578086835044"
								stroke-width="5" stroke="#88c3cf" stroke-linecap="round"></line>
					<line x1="417.37511423086164" x2="395.32774642792845" y1="-492.7231486712836" y2="-470.67578086835044"
								stroke-width="5" stroke="#88c3cf" stroke-linecap="round"></line>
					<line x1="673.3751142308616" x2="651.3277464279284" y1="-492.7231486712836" y2="-470.67578086835044"
								stroke-width="5" stroke="#88c3cf" stroke-linecap="round"></line>
					<line x1="161.3751142308616" x2="139.32774642792847" y1="-236.72314867128358" y2="-214.67578086835044"
								stroke-width="5" stroke="#88c3cf" stroke-linecap="round"></line>
					<line x1="417.37511423086164" x2="395.32774642792845" y1="-236.72314867128358" y2="-214.67578086835044"
								stroke-width="5" stroke="#88c3cf" stroke-linecap="round"></line>
					<line x1="673.3751142308616" x2="651.3277464279284" y1="-236.72314867128358" y2="-214.67578086835044"
								stroke-width="5" stroke="#88c3cf" stroke-linecap="round"></line>
					<line x1="161.3751142308616" x2="139.32774642792847" y1="19.276851328716415" y2="41.32421913164957"
								stroke-width="5" stroke="#88c3cf" stroke-linecap="round"></line>
					<line x1="417.37511423086164" x2="395.32774642792845" y1="19.276851328716415" y2="41.32421913164957"
								stroke-width="5" stroke="#88c3cf" stroke-linecap="round"></line>
					<line x1="673.3751142308616" x2="651.3277464279284" y1="19.276851328716415" y2="41.32421913164957"
								stroke-width="5" stroke="#88c3cf" stroke-linecap="round"></line>
					<line x1="241.33825358255072" x2="216.3708942738048" y1="71.9074533863074" y2="96.87481269505332"
								stroke-width="5" stroke="#88c3cf" stroke-linecap="round"></line>
					<line x1="241.33825358255072" x2="216.3708942738048" y1="-440.0925466136926" y2="-415.1251873049467"
								stroke-width="5" stroke="#88c3cf" stroke-linecap="round"></line>
					<line x1="497.3382535825507" x2="472.37089427380477" y1="-440.0925466136926" y2="-415.1251873049467"
								stroke-width="5" stroke="#88c3cf" stroke-linecap="round"></line>
					<line x1="753.3382535825507" x2="728.3708942738048" y1="-440.0925466136926" y2="-415.1251873049467"
								stroke-width="5" stroke="#88c3cf" stroke-linecap="round"></line>
					<line x1="241.33825358255072" x2="216.3708942738048" y1="-184.0925466136926" y2="-159.12518730494668"
								stroke-width="5" stroke="#88c3cf" stroke-linecap="round"></line>
					<line x1="497.3382535825507" x2="472.37089427380477" y1="-184.0925466136926" y2="-159.12518730494668"
								stroke-width="5" stroke="#88c3cf" stroke-linecap="round"></line>
					<line x1="753.3382535825507" x2="728.3708942738048" y1="-184.0925466136926" y2="-159.12518730494668"
								stroke-width="5" stroke="#88c3cf" stroke-linecap="round"></line>
					<line x1="241.33825358255072" x2="216.3708942738048" y1="71.9074533863074" y2="96.87481269505332"
								stroke-width="5" stroke="#88c3cf" stroke-linecap="round"></line>
					<line x1="497.3382535825507" x2="472.37089427380477" y1="71.9074533863074" y2="96.87481269505332"
								stroke-width="5" stroke="#88c3cf" stroke-linecap="round"></line>
					<line x1="753.3382535825507" x2="728.3708942738048" y1="71.9074533863074" y2="96.87481269505332"
								stroke-width="5" stroke="#88c3cf" stroke-linecap="round"></line>
					<line x1="31.744216648698583" x2="18.52383807833462" y1="25.163342673097254" y2="38.38372124346122"
								stroke-width="5" stroke="#88c3cf" stroke-linecap="round"></line>
					<line x1="31.744216648698583" x2="18.52383807833462" y1="-486.83665732690275" y2="-473.6162787565388"
								stroke-width="5" stroke="#88c3cf" stroke-linecap="round"></line>
					<line x1="287.74421664869857" x2="274.5238380783346" y1="-486.83665732690275" y2="-473.6162787565388"
								stroke-width="5" stroke="#88c3cf" stroke-linecap="round"></line>
					<line x1="543.7442166486986" x2="530.5238380783346" y1="-486.83665732690275" y2="-473.6162787565388"
								stroke-width="5" stroke="#88c3cf" stroke-linecap="round"></line>
					<line x1="31.744216648698583" x2="18.52383807833462" y1="-230.83665732690275" y2="-217.61627875653878"
								stroke-width="5" stroke="#88c3cf" stroke-linecap="round"></line>
					<line x1="287.74421664869857" x2="274.5238380783346" y1="-230.83665732690275" y2="-217.61627875653878"
								stroke-width="5" stroke="#88c3cf" stroke-linecap="round"></line>
					<line x1="543.7442166486986" x2="530.5238380783346" y1="-230.83665732690275" y2="-217.61627875653878"
								stroke-width="5" stroke="#88c3cf" stroke-linecap="round"></line>
					<line x1="31.744216648698583" x2="18.52383807833462" y1="25.163342673097254" y2="38.38372124346122"
								stroke-width="5" stroke="#88c3cf" stroke-linecap="round"></line>
					<line x1="287.74421664869857" x2="274.5238380783346" y1="25.163342673097254" y2="38.38372124346122"
								stroke-width="5" stroke="#88c3cf" stroke-linecap="round"></line>
					<line x1="543.7442166486986" x2="530.5238380783346" y1="25.163342673097254" y2="38.38372124346122"
								stroke-width="5" stroke="#88c3cf" stroke-linecap="round"></line>
					<line x1="119.96410249809445" x2="101.83324891883201" y1="86.34037981992564" y2="104.47123339918808"
								stroke-width="5" stroke="#88c3cf" stroke-linecap="round"></line>
					<line x1="119.96410249809445" x2="101.83324891883201" y1="-425.65962018007434" y2="-407.52876660081193"
								stroke-width="5" stroke="#88c3cf" stroke-linecap="round"></line>
					<line x1="375.96410249809446" x2="357.833248918832" y1="-425.65962018007434" y2="-407.52876660081193"
								stroke-width="5" stroke="#88c3cf" stroke-linecap="round"></line>
					<line x1="631.9641024980945" x2="613.833248918832" y1="-425.65962018007434" y2="-407.52876660081193"
								stroke-width="5" stroke="#88c3cf" stroke-linecap="round"></line>
					<line x1="119.96410249809445" x2="101.83324891883201" y1="-169.65962018007434" y2="-151.52876660081193"
								stroke-width="5" stroke="#88c3cf" stroke-linecap="round"></line>
					<line x1="375.96410249809446" x2="357.833248918832" y1="-169.65962018007434" y2="-151.52876660081193"
								stroke-width="5" stroke="#88c3cf" stroke-linecap="round"></line>
					<line x1="631.9641024980945" x2="613.833248918832" y1="-169.65962018007434" y2="-151.52876660081193"
								stroke-width="5" stroke="#88c3cf" stroke-linecap="round"></line>
					<line x1="119.96410249809445" x2="101.83324891883201" y1="86.34037981992564" y2="104.47123339918808"
								stroke-width="5" stroke="#88c3cf" stroke-linecap="round"></line>
					<line x1="375.96410249809446" x2="357.833248918832" y1="86.34037981992564" y2="104.47123339918808"
								stroke-width="5" stroke="#88c3cf" stroke-linecap="round"></line>
					<line x1="631.9641024980945" x2="613.833248918832" y1="86.34037981992564" y2="104.47123339918808"
								stroke-width="5" stroke="#88c3cf" stroke-linecap="round"></line>
					<line x1="140.79374726936783" x2="128.60351744605902" y1="98.75023706944151" y2="110.94046689275032"
								stroke-width="5" stroke="#88c3cf" stroke-linecap="round"></line>
					<line x1="140.79374726936783" x2="128.60351744605902" y1="-413.2497629305585" y2="-401.05953310724965"
								stroke-width="5" stroke="#88c3cf" stroke-linecap="round"></line>
					<line x1="396.7937472693678" x2="384.603517446059" y1="-413.2497629305585" y2="-401.05953310724965"
								stroke-width="5" stroke="#88c3cf" stroke-linecap="round"></line>
					<line x1="652.7937472693678" x2="640.603517446059" y1="-413.2497629305585" y2="-401.05953310724965"
								stroke-width="5" stroke="#88c3cf" stroke-linecap="round"></line>
					<line x1="140.79374726936783" x2="128.60351744605902" y1="-157.2497629305585" y2="-145.05953310724968"
								stroke-width="5" stroke="#88c3cf" stroke-linecap="round"></line>
					<line x1="396.7937472693678" x2="384.603517446059" y1="-157.2497629305585" y2="-145.05953310724968"
								stroke-width="5" stroke="#88c3cf" stroke-linecap="round"></line>
					<line x1="652.7937472693678" x2="640.603517446059" y1="-157.2497629305585" y2="-145.05953310724968"
								stroke-width="5" stroke="#88c3cf" stroke-linecap="round"></line>
					<line x1="140.79374726936783" x2="128.60351744605902" y1="98.75023706944151" y2="110.94046689275032"
								stroke-width="5" stroke="#88c3cf" stroke-linecap="round"></line>
					<line x1="396.7937472693678" x2="384.603517446059" y1="98.75023706944151" y2="110.94046689275032"
								stroke-width="5" stroke="#88c3cf" stroke-linecap="round"></line>
					<line x1="652.7937472693678" x2="640.603517446059" y1="98.75023706944151" y2="110.94046689275032"
								stroke-width="5" stroke="#88c3cf" stroke-linecap="round"></line>
					<line x1="75.06274434745075" x2="56.529687185751776" y1="140.5834629337337" y2="159.1165200954327"
								stroke-width="5" stroke="#88c3cf" stroke-linecap="round"></line>
					<line x1="75.06274434745075" x2="56.529687185751776" y1="-371.4165370662663" y2="-352.8834799045673"
								stroke-width="5" stroke="#88c3cf" stroke-linecap="round"></line>
					<line x1="331.06274434745075" x2="312.52968718575175" y1="-371.4165370662663" y2="-352.8834799045673"
								stroke-width="5" stroke="#88c3cf" stroke-linecap="round"></line>
					<line x1="587.0627443474507" x2="568.5296871857518" y1="-371.4165370662663" y2="-352.8834799045673"
								stroke-width="5" stroke="#88c3cf" stroke-linecap="round"></line>
					<line x1="75.06274434745075" x2="56.529687185751776" y1="-115.4165370662663" y2="-96.88347990456731"
								stroke-width="5" stroke="#88c3cf" stroke-linecap="round"></line>
					<line x1="331.06274434745075" x2="312.52968718575175" y1="-115.4165370662663" y2="-96.88347990456731"
								stroke-width="5" stroke="#88c3cf" stroke-linecap="round"></line>
					<line x1="587.0627443474507" x2="568.5296871857518" y1="-115.4165370662663" y2="-96.88347990456731"
								stroke-width="5" stroke="#88c3cf" stroke-linecap="round"></line>
					<line x1="75.06274434745075" x2="56.529687185751776" y1="140.5834629337337" y2="159.1165200954327"
								stroke-width="5" stroke="#88c3cf" stroke-linecap="round"></line>
					<line x1="331.06274434745075" x2="312.52968718575175" y1="140.5834629337337" y2="159.1165200954327"
								stroke-width="5" stroke="#88c3cf" stroke-linecap="round"></line>
					<line x1="587.0627443474507" x2="568.5296871857518" y1="140.5834629337337" y2="159.1165200954327"
								stroke-width="5" stroke="#88c3cf" stroke-linecap="round"></line>
					<line x1="85.3897400929063" x2="57.81024149428554" y1="67.82728154471451" y2="95.40678014333525"
								stroke-width="5" stroke="#88c3cf" stroke-linecap="round"></line>
					<line x1="85.3897400929063" x2="57.81024149428554" y1="-444.17271845528546" y2="-416.59321985666475"
								stroke-width="5" stroke="#88c3cf" stroke-linecap="round"></line>
					<line x1="341.3897400929063" x2="313.81024149428555" y1="-444.17271845528546" y2="-416.59321985666475"
								stroke-width="5" stroke="#88c3cf" stroke-linecap="round"></line>
					<line x1="597.3897400929063" x2="569.8102414942855" y1="-444.17271845528546" y2="-416.59321985666475"
								stroke-width="5" stroke="#88c3cf" stroke-linecap="round"></line>
					<line x1="85.3897400929063" x2="57.81024149428554" y1="-188.1727184552855" y2="-160.59321985666475"
								stroke-width="5" stroke="#88c3cf" stroke-linecap="round"></line>
					<line x1="341.3897400929063" x2="313.81024149428555" y1="-188.1727184552855" y2="-160.59321985666475"
								stroke-width="5" stroke="#88c3cf" stroke-linecap="round"></line>
					<line x1="597.3897400929063" x2="569.8102414942855" y1="-188.1727184552855" y2="-160.59321985666475"
								stroke-width="5" stroke="#88c3cf" stroke-linecap="round"></line>
					<line x1="85.3897400929063" x2="57.81024149428554" y1="67.82728154471451" y2="95.40678014333525"
								stroke-width="5" stroke="#88c3cf" stroke-linecap="round"></line>
					<line x1="341.3897400929063" x2="313.81024149428555" y1="67.82728154471451" y2="95.40678014333525"
								stroke-width="5" stroke="#88c3cf" stroke-linecap="round"></line>
					<line x1="597.3897400929063" x2="569.8102414942855" y1="67.82728154471451" y2="95.40678014333525"
								stroke-width="5" stroke="#88c3cf" stroke-linecap="round"></line>
					<line x1="24.421945064961896" x2="-0.08953625632083018" y1="90.35667031624921" y2="114.86815163753194"
								stroke-width="5" stroke="#88c3cf" stroke-linecap="round"></line>
					<line x1="24.421945064961896" x2="-0.08953625632083018" y1="-421.6433296837508" y2="-397.1318483624681"
								stroke-width="5" stroke="#88c3cf" stroke-linecap="round"></line>
					<line x1="280.4219450649619" x2="255.91046374367917" y1="-421.6433296837508" y2="-397.1318483624681"
								stroke-width="5" stroke="#88c3cf" stroke-linecap="round"></line>
					<line x1="536.4219450649618" x2="511.91046374367914" y1="-421.6433296837508" y2="-397.1318483624681"
								stroke-width="5" stroke="#88c3cf" stroke-linecap="round"></line>
					<line x1="24.421945064961896" x2="-0.08953625632083018" y1="-165.64332968375078" y2="-141.13184836246808"
								stroke-width="5" stroke="#88c3cf" stroke-linecap="round"></line>
					<line x1="280.4219450649619" x2="255.91046374367917" y1="-165.64332968375078" y2="-141.13184836246808"
								stroke-width="5" stroke="#88c3cf" stroke-linecap="round"></line>
					<line x1="536.4219450649618" x2="511.91046374367914" y1="-165.64332968375078" y2="-141.13184836246808"
								stroke-width="5" stroke="#88c3cf" stroke-linecap="round"></line>
					<line x1="24.421945064961896" x2="-0.08953625632083018" y1="90.35667031624921" y2="114.86815163753194"
								stroke-width="5" stroke="#88c3cf" stroke-linecap="round"></line>
					<line x1="280.4219450649619" x2="255.91046374367917" y1="90.35667031624921" y2="114.86815163753194"
								stroke-width="5" stroke="#88c3cf" stroke-linecap="round"></line>
					<line x1="536.4219450649618" x2="511.91046374367914" y1="90.35667031624921" y2="114.86815163753194"
								stroke-width="5" stroke="#88c3cf" stroke-linecap="round"></line>
					<line x1="31.585439237614676" x2="17.208064372749124" y1="226.41755225831938" y2="240.79492712318492"
								stroke-width="5" stroke="#88c3cf" stroke-linecap="round"></line>
					<line x1="31.585439237614676" x2="17.208064372749124" y1="-285.58244774168065" y2="-271.20507287681505"
								stroke-width="5" stroke="#88c3cf" stroke-linecap="round"></line>
					<line x1="287.58543923761465" x2="273.2080643727491" y1="-285.58244774168065" y2="-271.20507287681505"
								stroke-width="5" stroke="#88c3cf" stroke-linecap="round"></line>
					<line x1="543.5854392376147" x2="529.2080643727492" y1="-285.58244774168065" y2="-271.20507287681505"
								stroke-width="5" stroke="#88c3cf" stroke-linecap="round"></line>
					<line x1="31.585439237614676" x2="17.208064372749124" y1="-29.582447741680625" y2="-15.20507287681508"
								stroke-width="5" stroke="#88c3cf" stroke-linecap="round"></line>
					<line x1="287.58543923761465" x2="273.2080643727491" y1="-29.582447741680625" y2="-15.20507287681508"
								stroke-width="5" stroke="#88c3cf" stroke-linecap="round"></line>
					<line x1="543.5854392376147" x2="529.2080643727492" y1="-29.582447741680625" y2="-15.20507287681508"
								stroke-width="5" stroke="#88c3cf" stroke-linecap="round"></line>
					<line x1="31.585439237614676" x2="17.208064372749124" y1="226.41755225831938" y2="240.79492712318492"
								stroke-width="5" stroke="#88c3cf" stroke-linecap="round"></line>
					<line x1="287.58543923761465" x2="273.2080643727491" y1="226.41755225831938" y2="240.79492712318492"
								stroke-width="5" stroke="#88c3cf" stroke-linecap="round"></line>
					<line x1="543.5854392376147" x2="529.2080643727492" y1="226.41755225831938" y2="240.79492712318492"
								stroke-width="5" stroke="#88c3cf" stroke-linecap="round"></line>
					<animateTransform attributeName="transform" type="translate" values="0 0;-256 256" keyTimes="0;1"
														repeatCount="indefinite" dur="1.6666666666666665s"></animateTransform>
				</g>
			</g>
		</pattern>
	</defs>
	<rect x="0" y="0" width="1140" height="322" fill="url(#pid-0.012972200683235275)"></rect>
</svg>
