<svg width="41" height="41" xmlns="http://www.w3.org/2000/svg" xmlns:xlink="http://www.w3.org/1999/xlink">
  <defs>
    <path id="a" d="M.2913.2877h13.231v11.894H.2912z"/>
    <path id="c" d="M.223.2877h13.2316v11.894H.223z"/>
  </defs>
  <g fill="none" fill-rule="evenodd">
    <path d="M35.1606 3.1363l4.3511 8.9156c.5558 1.1386.2856 2.718-.617 3.607L22.0543 32.242c-.9679.9527-2.5418.9527-3.5098-.0001L1.7046 15.6586c-.902-.889-1.1724-2.4684-.6168-3.6066L5.439 3.1363C5.9778 2.032 7.3453 1.178 8.5746 1.178h23.4507c1.229 0 2.5965.854 3.1353 1.9583h0z" fill="#C9FFB0" fill-rule="nonzero" stroke="#FFF" stroke-width="1.575"/>
    <path d="M30.1327 6.4143c-1.0435-.9832-2.0893-1.9628-3.1613-2.912a11.919 11.919 0 00-.1362-.119L9.933 15.6038l2.57 3.5561L30.1327 6.4143zM31.8117 7.9932L12.1465 22.2105l.989 1.3672L33.071 9.1645a9.1778 9.1778 0 01-.1013-.0944c-.3882-.3562-.773-.7165-1.158-1.077z" fill="#FFF"/>
    <path d="M38.894 14.1448c.1768-.581.1603-1.2356-.0898-1.7474L34.453 3.4816c-.1998-.4093-.566-.781-.9961-1.0548l-3.9457 11.4328 9.3828.2852z" fill="#86ED5F"/>
    <g transform="translate(6.7771 1.6779)">
      <mask id="b" fill="#fff">
        <use xlink:href="#a"/>
      </mask>
      <path d="M4.3106 12.1818L13.5222.2876H1.7974c-.4999 0-1.0442.2015-1.506.5145l4.0192 11.3797z" fill="#86ED5F" mask="url(#b)"/>
    </g>
    <g transform="translate(20.0765 1.6779)">
      <mask id="d" fill="#fff">
        <use xlink:href="#c"/>
      </mask>
      <path d="M13.4546.802c-.4626-.3136-1.0062-.5144-1.506-.5144H.223l9.2116 11.8942L13.4546.802z" fill="#A3F56C" mask="url(#d)"/>
    </g>
    <path d="M7.118 2.4438c-.4187.2725-.7755.6361-.9711 1.0377l-4.3512 8.916c-.22.4497-.2553 1.0086-.1427 1.5324l9.5515.2518L7.118 2.4438z" fill="#73DC4B"/>
    <path d="M7.118 2.4438c-.4187.2725-.7755.6361-.9711 1.0377l-4.3512 8.916c-.22.4497-.2553 1.0086-.1427 1.5324l9.5515.2518L7.118 2.4438z" fill="#5ACA30"/>
    <path d="M2.2575 15.0976l16.8395 16.583c.24.2358.536.3834.8463.4486L11.088 13.8598H1.6366c.0892.4733.3004.9222.6209 1.2378" fill="#91ED5A"/>
    <path d="M20.6562 32.1292c.3104-.0652.6056-.2128.8457-.4486l16.8402-16.583c.3208-.3156.5323-.7646.6211-1.2378h-9.4519l-8.855 18.2694z" fill="#73DC4B"/>
    <path d="M20.6562 32.1292c.3104-.0652.6056-.2128.8457-.4486l16.8402-16.583c.3208-.3156.5323-.7646.6211-1.2378h-9.4519l-8.855 18.2694z" fill="#5ACA30"/>
    <path d="M11.0878 13.8597l8.8557 18.2694c.2349.049.4775.049.7127 0l8.855-18.2694H11.0879z" fill="#A5FF7A"/>
    <path d="M11.7144 8.5082c-1.639.5323-2.0686.963-2.6002 2.6024-.5313-1.638-.9627-2.0689-2.6025-2.6005 1.6391-.5316 2.0705-.9611 2.6009-2.6002.5326 1.639.9627 2.0679 2.6018 2.5983M16.1707 4.7937c-.89.289-1.1233.5232-1.4116 1.4123-.2887-.8891-.5233-1.1227-1.4127-1.411.8894-.289 1.1233-.522 1.4117-1.4117.2887.8898.5225 1.1227 1.4126 1.4104M16.8423 21.2538c-.8901.289-1.1233.5225-1.4117 1.4126-.2887-.8888-.5232-1.123-1.4126-1.412.8894-.2877 1.1233-.5213 1.4116-1.411.2887.8897.5226 1.1226 1.4127 1.4104" fill="#FFF"/>
  </g>
</svg>
