<svg xmlns="http://www.w3.org/2000/svg" viewBox="0 0 70 70"  xmlns:v="https://vecta.io/nano"><path d="M35,70a35.47,35.47,0,0,1-8.45-1A35,35,0,1,1,49.83,3.3c3.53-2.25,8.75-.54,12.39,4.16.15.19.3.39.44.59a11.89,11.89,0,0,1,3.61,2.31,10.6,10.6,0,0,1,3.27,7.91A9,9,0,0,1,68,23.44a32.32,32.32,0,0,1,1.14,4h0A35,35,0,0,1,35,70ZM35,6.47A28.57,28.57,0,1,0,62.85,28.84h0A27.53,27.53,0,0,0,61.34,24a3.17,3.17,0,0,1-.16-2,3.2,3.2,0,0,1-1.49-1.33c-.29-.5-.6-1-.92-1.48a3.23,3.23,0,0,1-.11-3.39.92.92,0,0,0,.06-.29,3.33,3.33,0,0,1,.77-1.79,3.16,3.16,0,0,1-1.73-1.4,11.43,11.43,0,0,0-.65-.95c-1.59-2-3.35-2.68-3.87-2.62A1.81,1.81,0,0,1,53,9l-1.37.79a3.22,3.22,0,0,1-3.14.06A28.47,28.47,0,0,0,35,6.47Z" fill="#051d27"/><path d="M66.76,35A31.62,31.62,0,0,0,66,28.14c-2.45-.61-13.43-3.53-16.07-3.53-17.55,0-28.75,14.48-28.75,32,0,2.35,5.65,7,6.14,9.19A31.8,31.8,0,0,0,66.76,35Z" fill="#d8003e"/><path d="M58.34,27.2a31.72,31.72,0,0,1,7.67.94A31.76,31.76,0,1,0,27.33,65.83a31.77,31.77,0,0,1,31-38.63Z" fill="#fd013e"/><path d="M51.33,6.19,45.71,9.44c-2.24,1.74-1.7,6.17,1.19,9.9S54,24.69,56.19,23l4.55-4.64Z" fill="#d8003e"/><ellipse cx="56.03" cy="12.26" rx="4.6" ry="7.67" transform="matrix(.790369 -.612631 .612631 .790369 4.24 36.9)" fill="#fd013e"/><path d="M41.45 38.53a1.55 1.55 0 0 1-.37 0 1.84 1.84 0 0 1-1.44-2.17c2-9.64 10.07-12 16-13.71 4.86-1.41 7-2.24 7-4.34a3.76 3.76 0 0 0-1.11-2.89c-1.91-1.81-5.63-1.67-5.67-1.66a1.84 1.84 0 1 1-.2-3.68c.22 0 5.33-.25 8.41 2.67a7.43 7.43 0 0 1 2.26 5.56c0 5.08-4.9 6.5-9.65 7.88-5.85 1.69-11.9 3.45-13.41 10.9a1.85 1.85 0 0 1-1.82 1.44z" fill="#2a2f3c"/><path d="M32.81 53.29l.72 1.3-3.4 2.32.36-3.19 2.32-.43zm-12.34 3.6l.26.35-1.06.52.05-.81.75-.06zm11.68-8.98l.11.91.79-.16-.18-1.07-.72.32zm3.13-1.89l-.39 1.71 1.25.21.68-1.07-.43-.96-1.11.11zm2.74 2.45l-.05.81 1.06-.52-.26-.35-.75.06zm3.11.86l1.08-.48.5 2.08-1.23.17-.35-1.77zm-8.49-9.43l.43.95-.68 1.07-1.25-.21.4-1.71 1.1-.1zm11.79 5.51l.19 1.07-.79.17-.12-.91.72-.33zm3.13-1.62l-.94 1.38 2.89 1.38.44-1.53-2.39-1.23zm4.91 3.88l-.05.81 1.06-.52-.26-.35-.75.06zm-.73 3.6l-.43.96 1.29.96 2.03-1.28-2.89-.64zm-.11 7.19l-.72.32.11.91.8-.16-.19-1.07zm-5.01-19.33l.24-2.41 1.9-.27.62 1-2.76 1.68zm15.27-5.23l-.05.81 1.06-.52-.26-.35-.75.06zm-14.74-.75l.58.56-.72.81-.44-.66.58-.71zm-10.4.68l-1.06.51.04-.81.75-.06.27.36zm-.97 3.61l-.73.33.12.9.79-.16-.18-1.07zm-2-2.82L33 35.77l-1.27-.36-.48-1.51 1.21-1.03 1.32 1.75zm-5.2-10.22l.18 1.06-.79.17-.12-.91.73-.32z" fill="#fff"/><path d="M47 26.82l-3.2 13.61-9.57-13.61 7.45 14.66-10.64-3.14 6.38 4.19-18.09 5.23 20.22-3.14-3.19 10.47 6.38-7.33L47 51.95v-5.23l14.89 3.14-13.83-6.29 7.45-5.23L47 41.48V26.82zm9.57 16.79l7.1-1.77v1.77h-7.1zm-23.94-10.6l-6.2-10.61-.89 2.65 7.09 7.96zm1.78 19.43l-6.21 10.6-.89-2.65 7.1-7.95z" fill="#fdcb02"/><path d="M46.93 44.58l5.26 6.65L44.6 47l-2.34 5.44-1.17-4.23-7.99 2.2 5.07-5.83-5.25-2.42 5.25-1.81-1.75-2.41 4.67.6-1.17-9.07 3.51 9.07 1.17-.6v1.81l5.25-2.42-2.92 4.83 6.43.61-6.43 1.81z" fill="#fff"/></svg>